<svg version="1.2" baseProfile="tiny" xmlns="http://www.w3.org/2000/svg" viewBox="0 0 92.8 107.2"><path d="M14.1 99.1c1 4.1 4.7 7 8.9 7 5.1 0 9.2-4.2 9.2-9.3v-8.2h28.3v8.2c0 5.1 4.1 9.3 9.2 9.3 4.2 0 7.9-2.9 8.9-7l.2-.9.9.3c.8.2 1.6.3 2.5.3 5.1 0 9.2-4.2 9.2-9.3V72.8c0-5.1-4.1-9.3-9.2-9.3-.8 0-1.7.1-2.5.3l-.9.3-.2-.9c-1-4.1-4.7-7-8.9-7-5.1 0-9.2 4.2-9.2 9.3v8.2H32.2v-8.2c0-5.1-4.1-9.3-9.2-9.3-4.2 0-7.9 2.9-8.9 7l-.2.9-.9-.3c-.8-.2-1.6-.3-2.5-.3-5.1 0-9.2 4.2-9.2 9.3v16.7c0 5.1 4.1 9.3 9.2 9.3.8 0 1.7-.1 2.5-.3l.9-.3.2.9zm-.8-3.9c-.9.5-1.9.7-2.8.7-3.5 0-6.4-2.9-6.4-6.4V72.8c0-3.5 2.9-6.4 6.4-6.4 1 0 2 .2 2.8.7l.5.3V95l-.5.2zm16.1 1.6c0 3.5-2.9 6.4-6.4 6.4s-6.4-2.9-6.4-6.4V65.4c0-3.5 2.9-6.4 6.4-6.4s6.4 2.9 6.4 6.4v31.4zm31-11H32.1v-9.2h28.3v9.2zM76 65.5v31.4c0 3.5-2.9 6.4-6.4 6.4s-6.4-2.9-6.4-6.4V65.5c0-3.5 2.9-6.4 6.4-6.4s6.4 2.8 6.4 6.4zm12.5 24c0 3.5-2.9 6.4-6.4 6.4-1 0-2-.2-2.8-.7l-.5-.3V67.3l.5-.3c.9-.5 1.9-.7 2.9-.7 3.5 0 6.4 2.9 6.4 6.4v16.8h-.1zM71.6 65.6c0-.8-.6-1.4-1.4-1.4-.8 0-1.4.6-1.4 1.4v.9c0 .8.6 1.4 1.4 1.4.8 0 1.4-.6 1.4-1.4v-.9zM33.1 35.1c0-.8-.6-1.4-1.4-1.4h-4.2c-.8 0-1.4.6-1.4 1.4s.6 1.4 1.4 1.4h4.2c.8.1 1.4-.6 1.4-1.4zm0 7.6c0-.8-.6-1.4-1.4-1.4h-4.2c-.8 0-1.4.6-1.4 1.4s.6 1.4 1.4 1.4h4.2c.7 0 1.4-.7 1.4-1.4zm-19 9.3c.8 0 1.4-.6 1.4-1.4v-5.7l.4-.3c2.8-1.7 4.6-4.7 4.6-8s-1.8-6.3-4.6-8l-.4-.3v-.7c0-3.5 2.9-6.4 6.4-6.4h15.5c3.1 0 5.7 2.2 6.3 5.3l.1.5-.3.3c-2.9 2.8-5.5 7.9-5.5 12 0 3.6 1.7 7 5.2 8.1l.6.2v18.1c0 .8.6 1.4 1.4 1.4.8 0 1.4-.6 1.4-1.4V47.6l.6-.2c3.6-1.1 5.2-4.5 5.2-8.1 0-4.1-2.7-9.3-5.7-12.1l-.2-.2v-.3c-.4-3.8-3.2-7-6.8-8l-.7-.2v-7.8c0-.8-.6-1.4-1.4-1.4h-2.1V2.5c0-.8-.6-1.4-1.4-1.4h-8.9c-.8 0-1.4.6-1.4 1.4v6.8h-2.1c-.8 0-1.4.6-1.4 1.4v7.8l-.7.2c-4 1-6.9 4.7-6.9 9v1.6c0 .6.4 1.1.9 1.3 2.5.9 4.1 3.4 4.1 6 0 2.7-1.6 5.1-4.1 6-.5.2-.9.7-.9 1.3v6.7c-.1.8.6 1.4 1.4 1.4zm31.7-21.6c1.9 2.3 3.8 6 3.8 9 0 1.5-.4 3-1.3 4.1-.8.9-1.9 1.4-3.1 1.4-1.2 0-2.3-.5-3.1-1.4-1-1.1-1.3-2.6-1.3-4.1 0-3 1.9-6.7 3.8-9l.7-.8.5.8zM26.5 3.9h6.1v5.3h-6.1V3.9zM23 12.1h13.1v6.3H23v-6.3z"/></svg>