<svg version="1.2" baseProfile="tiny" xmlns="http://www.w3.org/2000/svg" viewBox="-6 253.3 607.3 190.1"><path fill="none" d="M585 274.2h3.1v-.5H585zm-2.6-4.1h.5l2.4-2.4-.4-.4-2.4 2.4c0 .1 0 .3-.1.4zm1.1 4.1h1v-.5h-1zm1.36-7.789l-.424-.424.424-.424.425.424zm-2.248.501l-.849-.849.849-.848.848.848zm3.096-1.407l-.424-.424.424-.424.425.424zm1.692 2.695l-.4.4 1.3 1.3-1.2 1.2h3.6v-.5h-.8l-2.5-2.4zm1.2 5.5h1v.5h-1zm-6.1-2.1v.5h8.2v-.5h-4.1z"/><path fill="none" d="M582.5 274.2h.5v-1h7.2v1h.5v-1.5h-8.2zm3.21-7.719l.423.424-.424.425-.424-.425zm4.89 3.619v-.4l-2.4-2.4-.4.4 1.7 1.7c.8.8.6.7 1.1.7zm-3.169-4.546l-.424-.425.424-.424.424.424zm.819.812l-.425-.425.425-.424.424.424zm-.815.978l-.424-.424.424-.424.424.424zm-.845-3.447l.424.424-.424.424-.424-.424zm-.444 3.827l.425-.424.424.424-.424.424zm4.554-6.324v-.5h-3.6l1.2 1.2-1.3 1.3.4.4 2.4-2.4h.9zm.5 12.8h.5v-1.5h-.5v1.5zm-4.652-5.186l.848.848-.848.849-.849-.849z"/><path fill="none" d="M582.5 270.6v.5h3.6l-1.2-1.2 1.3-1.3-.4-.4-2.4 2.4h-.9zm8.2-10.2v-.5h-8.2v.5h4.1zm-2.6-2.6H585v.6h3.1zm-2.5 6.1l.5-.5-1.3-1.3 1.2-1.2h-3.6v.5c.2 0 .7 0 .8.1l2.4 2.4z"/><path fill="none" d="M590.7 257.8h-.5v1.1H583v-1.1h-.5v1.6h8.2z"/><path fill="none" d="M583.5 257.8h1v.5h-1zm1.7 6.5l-2.3-2.3h-.5v.4l2.4 2.4.4-.5zm-1.3 1.3l.4-.4-2.4-2.4v-.9h-.5v3.6l1.2-1.2 1.3 1.3zm-2.5-4.7h.5v.5h-.5zm.5-3.1h-.5v1.5h.5v-1.5zm-.5 2.1h.5v.5h-.5zm9.8 0h.5v.5h-.5zm-2 6.6l-.4.4 2.4 2.4v.8h.5v-3.6l-1.2 1.2-1.3-1.2z"/><path fill="none" d="M590.45 265.117l.848.848-.849.849-.848-.849zm-.85-7.317h-1v.6h1zm1.6 12.8h.5v.5h-.5zm.5-12.8h-.5v1.5h.5v-1.5z"/><path fill="none" d="M589.2 265.6l1.3-1.3 1.2 1.2v-3.6h-.5v.8l-2.4 2.4.4.5zm2 6h.5v.5h-.5zm-3.3-7.3l.4.4 2.4-2.4c0-.1 0-.3.1-.4h-.5l-2.4 2.4zm3.3-3.4h.5v.5h-.5zm-4.625 2.186l-.849-.849.849-.848.848.848zM1.5 259.9h-1v.5H2v-2.6h-.5v2.1zm1.1 14.4h.5v-2.6h-.5v2.6zM.5 261.4H2v-.5H.5v.5zm0 1.1h1v7.1h-1v.5h1.6v-8.2H.5zm0 8.7H2v-.5H.5v.5zm2.1-.5h.5v.5h-.5zm0-10.3h.5v-2.6h-.5v2.6zm590.6 13.3h.5v.5h-.5zM2.6 260.9h.5v.5h-.5zm0 9.2h.5v-8.2h-.5z"/><path fill="none" d="M.5 268.1H1v1H.5zm0-10.3H1v.5H.5zm0 1.1H1v.5H.5zM1 263H.5v1H1zm593.3 10.7h.5v.5h-.5zm-593.8 0H1v.5H.5zm0-1H1v.5H.5zm.5-8.2H.5v3.1H1z"/><path fill="none" d="M.5 272.2h1v2.1H2v-2.6H.5v.5zm593.8-4.6h.5v-3.1h-.5v3.1zm0 3.5h.5v-.5h-.5v.5zm.5.5h-2.6v.5h2.6v-.5zm-1.1-1h-1.5v.5h1.5v-.5zm-.5-.5h.5v-8.2h-.5v8.2zm.5-8.7v-.5h-1.5v.5h1.5zm1.1-1.5h-2.6v.5h2.6v-.5zm-14.9 2h-.5v8.2h.5v-8.2zm12.8 11.3h2.1v-.5h-2.6v1.5h.5v-1zm-12.3-3.1h.5v-8.2h-.5v8.2zm-1 3.6h.5v.5h-.5zm13.3-11.8h-.5v8.2h.5v-8.2zm1.6 6.1h.5v.5h-.5zm-14.9-6.6h1.5v-.5h-1.5v.5zm14.9 2.1h.5v.5h-.5zm0 6.6h.5v-1h-.5v1zm0-12.3h.5v.5h-.5zm.5 1.1h-2.1v-1h-.5v1.5h2.6v-.5zm-.5 4.1h.5v-1h-.5v1z"/><path fill="none" d="M593.2 257.8h.5v.5h-.5zm1.1 3.6h.5v-.5h-.5v.5zm-14.9 9.2v.5h1.5v-.5h-1.5zm-566.1.1h.5v.5h-.5zm-.646-5.582l.849.848-.849.849-.848-.849zM12.2 263c.7-.8.6-.5.6-1.1h-.4l-2.4 2.4.4.4 1.8-1.7zm1.1 9.7v.5h.5v-1.5h-.5v1zm0 1.6h.5v-.5h-.5v.5z"/><path fill="none" d="M11.3 266.5l-.4.4 2.4 2.4v.8h.5v-3.6l-1.2 1.2-1.3-1.2zm5.1 1.1h.5v-3.1h-.5zm0-4.6h.5v1h-.5zm0-5.2h.5v.5h-.5zm0 15.9h.5v.5h-.5zm0-1h.5v.5h-.5zm0-3.6h.5v-1h-.5zm-4.6 5.2h1v-.5h-1v.5zm-4.7 0h3.1v-.5H7.1v.5zm3.7-.6h.5v.5h-.5zm-6.2.6h1v-.5h-1v.5zm1.6-.6h.5v.5h-.5zm-1.6-1.5h8.2v-.5H4.6v.5zm5.4-4.4l2.4 2.4c.2 0 .3 0 .4.1v-.5l-2.4-2.4-.4.4zm-.4.5l-.4.4 1.3 1.3-1.2 1.2h3.6v-.5h-.8l-2.5-2.4zm-3.5-1.8l-1.3 1.3-1.2-1.2v3.6h.5v-.8l2.4-2.4-.4-.5zm4.4-.1l.4-.4-.4-.4-.5.4zm-5.9 6.8h8.2v-.5H4.6v.5zm9.2-15.4h-.5v.5h.5v-.5zm-3.3 4.4l-1.3 1.3.4.4 2.4-2.4h.8c0-.2 0-.4.1-.5H9.3l1.2 1.2zm3.3-3.3h-.5v1.5h.5v-1.5zm-1-1.1h-1v.5h1v-.5zm.5 3.1h.5v.5h-.5zm-2 4.7l1.3-1.3 1.2 1.2v-3.6h-.5v.8l-2.4 2.4.4.5zm570.6 3.7l2.5-2.5-.4-.4-1.3 1.3-1.2-1.2v3.6h.5c-.1-.2-.1-.6-.1-.8zM10.8 257.8h.5v.5h-.5zm-3.6.6h3.1v-.5H7.2v.5zm7.7 3.5h-.5v8.2h.5zm2 8.8h-1.5v.5h1.5v-.5z"/><path fill="none" d="M15.9 272.2h1v-.5h-1.5v2.6h.5v-2.1zm1-2.6h-1v-7.1h1v-.6h-1.5v8.2h1.5zm0-8.7h-1.5v.5h1.5v-.5zm0-1h-1v-2.1h-.5v2.6h1.5v-.5z"/><path fill="none" d="M16.4 258.9h.5v.5h-.5zm-2 11.8h.5v.5h-.5zm.5 1h-.5v2.6h.5v-2.6zm0-13.9h-.5v2.6h.5v-2.6zm-.5 3.1h.5v.5h-.5zm566.5 10.7h-2.6v.5h2.6v-.5zm-2-1h-.5v.5h.5v-.5zm1.5 3.6h.5v-1.5h-2.6v.5h2.1v1zm-1.5-5.1h-.5v1h.5v-1zm-.5 4.6h.5v.5h-.5zm0-5.7h.5v.5h-.5zm-565.6-9.1H4.6v.5h8.2v-.5zm565-1.1H17.4v.5h560.4v-.5zm-572.2 0h-1v.5h1v-.5zm573.3 6.7h-.5v3.1h.5v-3.1zM6.2 257.8h.5v.5h-.5zm575.2 13.8h.5v.5h-.5zm-2-13.8h.5v.5h-.5zm2.5 14.9h-.5v1.5h.5v-1.5zm-3.5-14.9h.5v.5h-.5zm3 12.8h.5v.5h-.5zM12.8 260.4v-.5H4.6v.5h8.2zm565.6 3.1h.5v.5h-.5zm.5-2.6h-.5v.5h.5v-.5zm0 1h-.5v1h.5v-1zm2-2h-2.6v.5h2.6v-.5z"/><path fill="none" d="M580.9 257.8h-.5v1h-2.1v.5h2.6v-1.5zM8.8 267.4l-.5.4.5.4.4-.4zm-4.7-8v-.5h-.5v1.5h.5v-1zm4.7 1.9l-1 .9 1 .8.8-.8z"/><path fill="none" d="M7.8 263.8l.4-.4-1.2-1.2 1.2-1.2H4.6v.5h.8l2.4 2.3zm-.4.5L5 261.9h-.4v.4l2.4 2.4.4-.4zm-3.8-3.4h.5v.5h-.5zm.5-3.1h-.5v.5h.5v-.5zm-.5 12.9h.5v.5h-.5zm0 2.5h.5v-1.5h-.5v1.5zm1.198-6.255l-.848-.848.848-.849.849.849z"/><path fill="none" d="M6.1 265.6l.4-.4-2.4-2.4v-.8h-.5v3.6l1.2-1.2 1.3 1.2zm-2.5 8.7h.5v-.5h-.5v.5zm6.008-8.737l-.424-.424.424-.424.425.424zM4.6 270.1H5l2.4-2.3.1.1-.6-.6-2.3 2.3v.5zm3.218-4.533l-.425-.424.425-.424.424.424zM7.3 266l-.4-.4-.4.4.5.5zm1-1.7l.5.4.4-.4-.4-.4zm1.807 2.607l-.424.424-.425-.424.425-.425zm-1.897-.021l-.425.424-.424-.424.424-.424zM4.6 271.2h3.6L7 269.9l1.3-1.3-.4-.4-2.4 2.4h-.9v.6z"/><path fill="none" d="M9.6 269.9l-.8-.8-1 .8 1 .9z"/><path fill="#DDD4CC" d="M0 257.3v91.6h.5v-74.1H1v74.1h.5v-74.1H2v15.4h.5v-15.4H3v15.4h.5v-15.4h13.8V261h15.4v-.5H17.4v-.5h15.4v-.5H17.4v-.5h560.4v.5h-15.4v.5h15.4v.5h-15.4v.5h15.4v13.8h13.8v15.5h.5v-15.5h.5v15.5h.5v-15.5h.5V349h.6v-74.2h.5V349h.5v-91.6H0zm.5.5H1v.5H.5v-.5zm0 1.1H1v.5H.5v-.5zm0 4.6v-.5H1v1H.5v-.5zm0 2.5v-1.5H1v3.1H.5V266zm0 2.1H1v1H.5v-1zm.5 6.2H.5v-.5H1v.5zm0-1.1H.5v-.5H1v.5zm1.1 1.1h-.6v-2.1h-1v-.5H2c.1.9.1 1.7.1 2.6zm0-3.1H.6v-.5h1.5v.5zm0-1.1H.5v-.5h1v-7.2h-1v-.5H2v8.2zm0-8.7H.6v-.5h1.5v.5zm0-1H.6v-.5h1v-2.1h.5v2.6zm1 13.9h-.5v-2.6h.5v2.6zm0-3.1h-.5v-.5h.5v.5zm0-5.2v4.1h-.5v-8.2h.5v4.1zm0-4.6h-.5v-.5h.5v.5zm0-1h-.5v-2.6h.5v2.6zm590.6 13.8h-.5v-.5h.5v.5zm1.1 0h-.5v-.5h.5v.5zm0-3.1h-.5v-.5h.5v.5zm0-1h-.5v-1h.5v1zm0-1.5h-.5v-.6h.5v.6zm0-1h-.5v-3.1h.5v3.1zm0-3.6h-.5v-.5h.5v.5zm0-1h-.5v-1h.5v1zm0-1.6h-.5v-.5h.5v.5zm-.5-3.6h.5v.5h-.5v-.5zm-1.1 0h.5v.5h-.5v-.5zm-1 0h.5v1h2.1v.5h-2.6v-1.5zm0 2.1h2.6v.5h-2.6v-.5zm0 1h1.5v.5h-1.5v-.5zm1.5 1v8.2h-.5v-8.2h.5zm-1.5 4.1v-4.1h.5v8.2h-.5V266zm0 4.6h1.5v.5h-1.5v-.5zm0 1h2.6v.5h-2.6v-.5zm0 1.1h2.6v.5h-2.1v1h-.5v-1.5zm-12.3 1.5h-.5v-.5h.5v.5zm1-3.1h-1.5v-.5h1.5v.5zm-1.5-1v-8.2h.5v8.2h-.5zm1.5 0h-.5v-8.2h.5v8.2zm0-8.7h-1.5v-.5h1.5v.5zm7.4 5.9l2.4 2.4v.4c-.6 0-.3.1-1.1-.6l-1.7-1.7.4-.5zm-.9 0l-.4-.4.4-.4.4.4-.4.4zm.9-.8l-.4-.4.4-.4.4.4-.4.4zm-.9-1l-.4-.4.4-.4.4.4-.4.4zm-1.7 2.7l.4.4-1.3 1.3 1.2 1.2h-3.6v-.5h.8l2.5-2.4zm-.4-1.3l.4-.4.4.4-.4.4-.4-.4zm.4 3l.9-.9.9.9-.9.9-.9-.9zm.5-2.2l.4-.4.4.4-.4.4-.4-.4zm0-3.4l.4-.4.4.4-.4.4-.4-.4zm1.2-.5l-.4-.4 1.3-1.3-1.2-1.2h3.6v.5h-.8l-2.5 2.4zm0-1.6l-.9.9-.9-.9.9-.9.9.9zm-1.7 3.4l-.4-.4.4-.4.4.4-.4.4zm-.5.4l-.4.4-.4-.4.4-.4.4.4zm-.4 1.3l.4.4-2.4 2.4h-.5c.1-.1.1-.3.1-.4l2.4-2.4zm-.3 6.9h-1v-.5h1v.5zm3.6 0H585v-.5h3.1v.5zm1.5 0h-1v-.5h1v.5zm1.1 0h-.5v-1H583v1h-.5v-1.5h8.2v1.5zm0-2.1h-8.2v-.5h8.2v.5zm0-1h-3.6l1.2-1.2-1.3-1.3.4-.4 2.4 2.4h.8c.1.2.1.4.1.5zm1 3.1h-.5v-1.5h.5v1.5zm0-2.1h-.5v-.5h.5v.5zm0-1h-.5v-.5h.5v.5zm0-1h-.5v-.8l-2.4-2.4.4-.4 1.3 1.3 1.2-1.2v3.5zm-2.1-4.1l.9-.9.9.9-.9.9-.9-.9zm1.6-8.2h.5v1.5h-.5v-1.5zm0 2.1h.5v.5h-.5v-.5zm0 1h.5v.5h-.5v-.5zm0 1h.5v3.6l-1.2-1.2-1.3 1.3-.4-.4 2.4-2.4v-.9zm-.5.5l-2.4 2.4-.4-.4 2.4-2.4h.5c-.1.1-.1.3-.1.4zm-2.1-4.6h1v.5h-1v-.5zm-3.6 0h3v.5h-3v-.5zm-1.5 0h1v.5h-1v-.5zm-1 0h.5v1h7.2v-1h.5v1.5h-8.2v-1.5zm0 2.1h8.2v.5h-8.2v-.5zm0 1h3.6l-1.2 1.2 1.3 1.3-.5.5-2.4-2.4c-.1-.1-.6-.1-.8-.1v-.5zm-.1 1.1h.5l2.3 2.3-.4.4-2.4-2.4v-.3zm-1-4.2h.5v1.5h-.5v-1.5zm0 2.1h.5v.5h-.5v-.5zm0 1h.5v.5h-.5v-.5zm0 1h.5v.9l2.4 2.4-.4.4-1.3-1.3-1.2 1.2v-3.6zm2.1 4.1l-.9.9-.9-.9.9-.9.9.9zm-2.1.5l1.2 1.2 1.3-1.3.4.4-2.5 2.5v.8h-.5c.1-.6.1-2.6.1-3.6zm0 4.1h.5v.5h-.5v-.5zm0 1h.5v.5h-.5v-.5zm0 1.1h.5v1.5h-.5v-1.5zm-2-14.9h.5v.5h-.5v-.5zm-1 0h.5v.5h-.5v-.5zm0 1.1h2.1v-1h.5v1.5h-2.6v-.5zm0 1h2.6v.5h-2.6v-.5zm0 1h.5v.5h-.5v-.5zm0 1h.5v1h-.5v-1zm0 1.6h.5v.5h-.5v-.5zm0 1h.5v3.1h-.5v-3.1zm0 3.5h.5v.5h-.5v-.5zm0 1.1h.5v1h-.5v-1zm0 1.5h.5v.5h-.5v-.5zm0 1h2.6v.5h-2.6v-.5zm0 1.1h2.6v1.5h-.5v-1h-2.1v-.5zm0 1h.5v.5h-.5v-.5zm-561-15.9h560.4v.5H17.4v-.5zm-11.2 0h.5v.5h-.5v-.5zm-1.6 0h1v.5h-1v-.5zm0 1.1h8.2v.5H4.6v-.5zm0 1h8.2v.5H4.6v-.5zm5 5.7l-.4-.4.4-.4.4.4-.4.4zm.4 1.3l-.4.4-.4-.4.4-.4.4.4zm-1.2-2.2l-.5-.4.5-.4.4.4-.4.4zM6.5 266l.4-.4.4.4-.3.5-.5-.5zm1.1 2l-.1-.1-2.5 2.2h-.4v-.5l2.3-2.3.7.7zm.2-2.4l-.4-.4.4-.4.4.4-.4.4zm.5 1.3l-.4.4-.4-.4.4-.4.4.4zm-2.9 3.8l2.5-2.4.4.4-1.3 1.2 1.2 1.2H4.6v-.5c.2.1.6.1.8.1zm2.4-.8l.9-.9.9.9-.9.9-.9-.9zm.5-2.1l.5-.4.4.4-.4.4-.5-.4zm.5-4.8l-.9-.9.9-.9.9.9-.9.9zm-4.2-2.1h3.6L7 262.2l1.3 1.3-.4.4-2.5-2.4h-.8v-.6zm0 1H5l2.4 2.4-.4.4-2.4-2.4v-.4zm-1-4.1h.5v.5h-.5v-.5zm0 2.1v-1h.5v1.5h-.5v-.5zm0 1h.5v.5h-.5v-.5zm0 1h.5v.8l2.4 2.4-.4.4-1.3-1.3-1.2 1.2v-3.5zm2.1 4.1l-.9.9-.9-.9.9-.9.9.9zm-1.6 8.3h-.5v-.5h.5v.5zm0-1.6v.5h-.5v-1.5h.5v1zm0-1.5h-.5v-.5h.5v.5zm0-1.1h-.5v-3.6l1.2 1.2 1.3-1.3.4.4-2.4 2.4v.9zm1.5 4.2h-1v-.5h1v.5zm1.1 0h-.5v-.5h.5v.5zm3.6 0H7.2v-.5h3.1v.5zm1 0h-.5v-.5h.5v.5zm1.5 0h-1v-.5h1v.5zm0-1.1H4.6v-.5h8.2v.5zm0-1H4.6v-.5h8.2v.5zm0-1H9.2l1.2-1.2-1.3-1.3.4-.4 2.5 2.5h.8v.4zm0-1c-.1-.1-.3-.1-.4-.1l-2.4-2.4.4-.4 2.4 2.4v.5zm-2.3-4.6l.4.4-.4.4-.5-.4.5-.4zm-.5-1.3l2.4-2.4h.4c0 .6.1.3-.6 1.1l-1.7 1.7-.5-.4zm3.8 10h-.5v-.5h.5v.5zm0-2.1v1h-.5v-1.5h.5v.5zm0-1h-.5v-.5h.5v.5zm0-1.1h-.5v-.8l-2.4-2.4.4-.4 1.3 1.3 1.2-1.2v3.5zm-2-4.1l.9-.9.9.9-.9.9-.9-.9zm5.1 8.3h-.5v-.5h.5v.5zm0-1.1h-.5v-.5h.5v.5zm0-4.6v.5h-.5v-1h.5v.5zm0-2.6v1.5h-.5v-3.1h.5v1.6zm0-2h-.5v-1h.5v1zm-.5-6.2h.5v.5h-.5v-.5zm0 1.1h.5v.5h-.5v-.5zm-1-1.1h.5v2.1h1v.5h-1.5v-2.6zm0 3.1h1.5v.5h-1.5v-.5zm0 1h1.5v.5h-1v7.2h1v.5h-1.5v-8.2zm0 8.8h1.5v.5h-1.5v-.5zm0 1h1.5v.5h-1v2.1h-.5v-2.6zm-1-13.9h.5v2.6h-.5v-2.6zm0 3.1h.5v.5h-.5v-.5zm0 5.1v-4.1h.5v8.2h-.5V266zm0 4.7h.5v.5h-.5v-.5zm0 1h.5v2.6h-.5v-2.6zm-1.1-13.9h.5v.5h-.5v-.5zm0 1.6v-.5h.5v1.5h-.5v-1zm0 1.5h.5v.5h-.5v-.5zm0 1h.5v3.6l-1.2-1.2-1.3 1.3-.4-.4 2.4-2.4v-.9zm-.5-.5H12l-2.4 2.4-.4-.4 1.3-1.3-1.2-1.2h3.6c-.1.2-.1.4-.1.5zm-1-3.6h1v.5h-1v-.5zm-1 0h.5v.5h-.5v-.5zm-.5.6H7.2v-.5h3.1v.5z"/><path fill="none" d="M6.2 438.5h.5v.5h-.5zm-1.6-.5h8.2v-.5H4.6v.5zm3-9.1l-.2.1-2.4-2.3h-.4v.5l2.3 2.3.7-.6zm-3 7.5v.5h8.2v-.5H4.6zm2.6 2.6h3.1v-.5H7.2v.5zm4.6 0h1v-.5h-1v.5zm1.5-1.5v.5h.5v-1.5h-.5v1zm-1.3-2.1L9.6 433l-.4.4 1.3 1.3-1.2 1.2h3.6c-.1-.2-.1-.4-.1-.5H12zm1.3 0h.5v.5h-.5zm0 3.6h.5v-.5h-.5v.5zm-9.7-2.1v1h.5v-1.5h-.5v.5zm1.24-5.256l-.849-.849.848-.848.849.848z"/><path fill="none" d="M6.1 430.3l.4-.4-2.4-2.4v-.8h-.5v3.6l1.2-1.2 1.3 1.2zm-2.5-4.6h.5v.5h-.5zm.5-1.6v-.5h-.5v1.5h.5v-1zm.5 14.9h1v-.5h-1v.5zm-.5-16.4h-.5v.5h.5v-.5zM3.6 439h.5v-.5h-.5v.5zm0-3.6h.5v.5h-.5zm2.5-4.2l-1.3 1.3-1.2-1.2v3.6h.5v-.8l2.4-2.4-.4-.5zm5.2 0l-.4.4 2.4 2.4v.8h.5v-3.6l-1.2 1.2-1.3-1.2zm-.5 7.3h.5v.5h-.5zm4.6-2.6h1.5v-.5h-1.5v.5zm1-3.1h.5v1h-.5zm-1 6.2h.5v-2.1h1v-.5h-1.5v2.6zm1-6.7h.5v-3.1h-.5zm0 6.2h.5v.5h-.5z"/><path fill="none" d="M16.4 437.5h.5v.5h-.5zm0-8.8h.5v-1h-.5zm-.5-6.1h-.5v2.6h1.5v-.5h-1v-2.1zm-.5 3.6h1.5v-.5h-1.5v.5z"/><path fill="none" d="M15.4 434.9h1.5v-.5h-1v-7.2h1v-.5h-1.5zm-1 4.1h.5v-2.6h-.5v2.6zm-1.1-13.3h.5v.5h-.5zm1.1-.6h.5v-2.6h-.5v2.6zm-1.1 2.4l-2.4 2.4.4.4 1.3-1.3 1.2 1.2v-3.6h-.5v.9zm0-4.4h.5v-.5h-.5v.5zm0 1v1h.5v-1.5h-.5v.5zm1.1 6.7v4.1h.5v-8.2h-.5zm0-5.1h.5v.5h-.5zm0 9.7h.5v.5h-.5z"/><path fill="none" d="M12.613 429.9l.848.848-.848.848-.849-.848zM.5 427.2h1v7.2h-1v.5h1.6v-8.2H.5zM2.6 439h.5v-2.6h-.5v2.6zm-1.1-14.4h-1v.5H2v-2.6h-.5v2.1zm3.9 1.6l2.4 2.4.4-.4-1.2-1.3 1.2-1.2H4.6v.5h.8zm-4.9 0H2v-.5H.5v.5zm0 9.7H2v-.5H.5v.5zm10.3-13.3h.5v.5h-.5zm-8.2 12.3h.5v-8.2h-.5zm0-9.8h.5v-2.6h-.5v2.6zm10.2-2.5h-1v.5h1v-.5zm-10.2 3.1h.5v.5h-.5zm13.8-2.1h.5v.5h-.5zm-15.9-1H1v.5H.5z"/><path fill="none" d="M.5 423.6H1v.5H.5zm0 4.1H1v1H.5zm.5 5.1H.5v1.1H1zm-.5 4.7H1v.5H.5zm0 1H1v.5H.5zm.5-9.3H.5v3.1H1z"/><path fill="none" d="M.5 436.9h1v2.1H2v-2.6H.5v.5zm2.1-1.5h.5v.5h-.5zm7-8.5l-.8-.9-1 .9 1 .9zm-.03 4.37l.425.424-.425.424-.424-.424zm-.77-2.67l-.5.4.5.5.4-.5zm.396 1.35l.424-.425.425.425-.425.424zM8.8 432.1l-.5.4.5.4.4-.4z"/><path fill="none" d="M12.8 425.7H9.2l1.2 1.2-1.3 1.3.4.4 2.5-2.5h.8v-.4zm0 .9c-.1.1-.3.1-.4.1L10 429l.4.4 2.4-2.4v-.4zm-3.2 8.1l-.8-.9-1 .9 1 .9zm.4-2.2l2.4 2.4h.4c0-.6.1-.3-.6-1.1l-1.7-1.7-.5.4zm0-1.7l.5.4.4-.4-.4-.4zm2.8-7.2H4.6v.5h8.2v-.5zm0 1H4.6v.5h8.2v-.5zm-7.2-2h-1v.5h1v-.5zm2.566 9.015l-.424.425-.424-.425.424-.424zM6.2 422.6h.5v.5h-.5zm4.1 0H7.2v.5h3.1v-.5zm-2.111 7.364l-.424.424-.425-.424.425-.425zM6.9 431.2l.4-.4-.3-.4-.5.4z"/><path fill="none" d="M4.6 435.9h3.6L7 434.7l1.3-1.3-.5-.4-2.5 2.4h-.8c.1.2.1.4.1.5zm0-1H5l2.4-2.4-.4-.4-2.4 2.4v.4zm586.6.5h.5v.5h-.5zm-8.7 1v.5h8.2v-.5h-4.1zm0 2.6h.5v-1h7.2v1h.5v-1.5h-8.2zm4.9-6l-.4.4 1.3 1.3-1.2 1.2h3.6v-.5h-.8l-2.5-2.4z"/><path fill="none" d="M585 439h3.1v-.5H585zm3.6 0h1v-.5h-1zm-5.1-.5h1v.5h-1zm5.7-7.3l-.4.4 2.4 2.4v.8h.5v-3.6l-1.2 1.2-1.3-1.2zm2 5.2h.5v.5h-.5zm0 2.6h.5v-1.5h-.5v1.5zm-2.9-6.9l-.4.4 2.4 2.4h.5c-.1-.2-.1-.3-.1-.4l-2.4-2.4z"/><path fill="none" d="M590.408 429.898l.848.849-.848.848-.849-.848zM578.4 425.2h2.6v-.5h-2.6v.5zm1 .5v.5h1.5v-.5h-1.5zm1 9.2h.5v-8.2h-.5v8.2zm-.5-8.2h-.5v8.2h.5v-8.2zm.5-3h-2.1v.5h2.6v-1.5h-.5v1zm3.5 7.5l-1.3 1.3-1.2-1.2v3.6h.5v-.9l2.4-2.4-.4-.4zm1.3 1.3l-.4-.4-2.4 2.4v.4h.5l2.3-2.4zm-3.8 6.5h.5v-1.5h-.5v1.5zm0-3.6h.5v.5h-.5zm0 1h.5v.5h-.5zm11.3-9.7h-.5v8.2h.5v-8.2zm1.6 1.1h.5v-1h-.5v1zm0 7.1h.5v-1h-.5v1z"/><path fill="none" d="M591.2 427.6l-2.4 2.4.4.4 1.3-1.3 1.2 1.2v-3.6h-.5v.9zm-574.8-5h.5v.5h-.5zm577.9 10.2h.5v.5h-.5zm0-6.6h.5v-.5h-.5v.5zm0-3.6h.5v.5h-.5zm-2.1 2.6h2.6v-.5h-2.6v.5zm.5-2.6h-.5v1.5h2.6v-.5h-2.1v-1zm1.6 5.7h.5v.5h-.5zm-14.9 7.1v.5h1.5v-.5h-1.5zm13.8-.5h.5v-8.2h-.5v8.2zm.5-8.7v-.5h-1.5v.5h1.5z"/><path fill="none" d="M593.2 422.6h.5v.5h-.5zm.5 13.3v-.5h-1.5v.5h1.5zm-.5 2.6h.5v.5h-.5zm-1-1.6h2.6v-.5h-2.6v.5z"/><path fill="none" d="M592.2 439h.5v-1h2.1v-.5h-2.6v1.5zm2.1-.5h.5v.5h-.5zm0-2.6h.5v-.5h-.5v.5zm0-3.6h.5v-3.1h-.5v3.1zm-8.634-1.998l-.424-.424.424-.424.424.424zM582.5 435.4v.5h3.6l-1.2-1.2 1.3-1.3-.5-.5-2.4 2.4c-.2.1-.7.1-.8.1zm2.345-4.176l-.425-.424.425-.424.424.424zm1.382-2.124l.424-.425.424.425-.424.424zm-.494 2.921l-.424-.424.424-.424.424.424zm-.063-5.078l.848-.848.849.848-.849.849zm2.612 3.505l.425.424-.425.424-.424-.424z"/><path fill="none" d="M586.506 433.795l.849.848-.849.849-.848-.849zm.948-1.621l-.424-.425.424-.424.424.424zm-.436-2.254l.425-.424.424.424-.424.424zm4.182-4.22h.5v.5h-.5zm0-1h.5v.5h-.5zm-.6 2c-.6 0-.3-.1-1.1.6l-1.7 1.7.4.4 2.4-2.4v-.3zm-12.2 10.2h2.6v-.5h-2.6v.5zm-561 2.1h560.4v-.5H17.4v.5zm569.215-6.845l.424.424-.424.424-.424-.424zm1.985-9.555h1v.5h-1zm2.1 2.6v-.5h-8.2v.5h4.1z"/><path fill="none" d="M590.7 422.6h-.5v1.1H583v-1.1h-.5v1.6h8.2z"/><path fill="none" d="M588.1 422.6H585v.5h3.1zm-3.6 0h-1v.5h1zm7.2 0h-.5v1.5h.5v-1.5zm-12.8 6.6h-.5v3.1h.5v-3.1zm0-3.5h-.5v.5h.5v-.5zm0 8.2h-.5v1h.5v-1zm-.5-5.6h.5v.5h-.5zm.5-1.6h-.5v1h.5v-1zm-.5 6.1h.5v.5h-.5zm0 5.2h2.1v1h.5v-1.5h-2.6v.5zm12.3-12.3h-3.6l1.2 1.2-1.3 1.3.4.4 2.4-2.4h.8c.1-.2.1-.3.1-.5zm-11.8 9.7h-.5v.5h.5v-.5zm-.5 3.1h.5v.5h-.5z"/><path fill="none" d="M579.4 438.5h.5v.5h-.5zm2.5-15.9h-.5v1.5h.5v-1.5zm2.9 6.9l.4-.4-2.4-2.4h-.5c.1.1.1.3.1.4l2.4 2.4zm-3.4-4.8h.5v.5h-.5zm4.3 3.9l.4-.4-1.3-1.3 1.2-1.2h-3.6v.5h.8l2.5 2.4zm-1.8 1.8l.4-.4-2.5-2.5v-.8h-.5v3.6l1.2-1.2 1.4 1.3zm-2.5-4.7h.5v.5h-.5z"/><path fill="none" d="M582.653 431.61l-.848-.848.848-.849.849.849zm-3.253-9.01h.5v.5h-.5zm-1 0h.5v.5h-.5z"/><path fill="#DDD4CC" d="M594.8 347.9v74.2h-.5v-74.2h-.6v74.2h-.5v-15.5h-.5v15.5h-.5v-15.5h-.5v15.5h-13.8v13.8h-15.4v.5h15.4v.5h-15.4v.5h15.4v.5H17.5v-.5h15.4v-.5H17.4v-.5h15.4v-.5H17.4v-13.8H3.6v-15.4h-.5v15.4h-.5v-15.4h-.5v15.4h-.6V348H1v74.1H.5V348H0v91.6h595.3V348h-.5zM.5 422.6H1v.5H.5v-.5zm0 1H1v.5H.5v-.5zm0 4.1H1v1H.5v-1zm0 3.1v-1.5H1v3.1H.5v-1.6zm0 2.6v-.5H1v1H.5v-.5zM1 439H.5v-.5H1v.5zm0-1H.5v-.5H1v.5zm1.1 1h-.6v-2.1h-1v-.5H2c.1.9.1 1.7.1 2.6zm0-3.1H.6v-.5h1.5v.5zm0-1H.5v-.5h1v-7.2h-1v-.5H2v8.2zm0-8.7H.6v-.5h1.5v.5zm0-1.1H.6v-.5h1v-2.1h.5v2.6zm1 13.9h-.5v-2.6h.5v2.6zm0-3.1h-.5v-.5h.5v.5zm0-5.1v4.1h-.5v-8.2h.5v4.1zm0-4.6h-.5v-.5h.5v.5zm0-1.1h-.5v-2.6h.5v2.6zm8.7-2.5h1v.5h-1v-.5zm-1 0h.5v.5h-.5v-.5zm-3.7 0h3.1v.5H7.1v-.5zm-.9 0h.5v.5h-.5v-.5zm-1.6 0h1v.5h-1v-.5zm0 1h8.2v.5H4.6v-.5zm0 1h8.2v.5H4.6v-.5zm2.4 5.8l.4.4-.4.4-.4-.4.4-.4zm0 1.7l.4.4-2.4 2.4h-.4v-.4l2.4-2.4zm-1.6 3.3l2.5-2.4.4.4-1.3 1.3 1.2 1.2H4.6v-.5h.8zm2.9-5.4l-.4.4-.5-.4.4-.4.5.4zm-.5 1.2l.4.4-.4.4-.4-.4.4-.4zm0 3.5l.9-.9.9.9-.9.9-.9-.9zm.5-2.2l.5-.4.4.4-.4.4-.5-.4zm.5-3l-.5-.5.5-.4.4.4-.4.5zm-1-2.6l.9-.9.9.9-.9.9-.9-.9zm1.8 4.3l.4.4-.4.4-.4-.4.4-.4zm0-.9l-.4-.4.4-.4.4.4-.4.4zm.9.9l-.4-.5.4-.4.4.4-.4.5zm1.7 2.6c.7.8.6.5.6 1.1h-.4l-2.4-2.4.4-.4 1.8 1.7zm-1.7-4.3l-.5-.5 2.4-2.4c.2 0 .3 0 .4-.1v.5l-2.3 2.5zm1.5-3.4l-2.5 2.5-.4-.4 1.3-1.3-1.2-1.2h3.6v.5c-.2-.1-.6-.1-.8-.1zm-7.4-.4h3.6L7 426.9l1.3 1.3-.4.4-2.4-2.4h-.9v-.5zm0 1H5l2.4 2.3.1-.1-.6.6-2.3-2.3v-.5zm-1-4.1h.5v.5h-.5v-.5zm0 1h.5v1.5h-.5v-1.5zm0 2.1h.5v.5h-.5v-.5zm0 1h.5v.8l2.4 2.4-.4.4-1.3-1.3-1.2 1.2v-3.5zm2.1 4.1l-.9.9-.9-.9.9-.9.9.9zM4.1 439h-.5v-.5h.5v.5zm0-1.5v.5h-.5v-1.5h.5v1zm0-1.6h-.5v-.5h.5v.5zm0-1h-.5v-3.6l1.2 1.2 1.3-1.3.4.4-2.4 2.4v.9zm1.5 4.1h-1v-.5h1v.5zm1.1 0h-.5v-.5h.5v.5zm3.6 0H7.2v-.5h3.1v.5zm1 0h-.5v-.5h.5v.5zm1.5 0h-1v-.5h1v.5zm0-1H4.6v-.5h8.2v.5zm0-1.1H4.6v-.5h8.2v.5zm-3.5-1l1.2-1.2-1.3-1.3.4-.4 2.4 2.4h.8c0 .2 0 .4.1.5H9.3zm4.5 3.1h-.5v-.5h.5v.5zm0-1h-.5v-1.5h.5v1.5zm0-2.1h-.5v-.5h.5v.5zm0-1h-.5v-.8l-2.4-2.4.4-.4 1.3 1.3 1.2-1.2v3.5zm-2-4.1l.9-.9.9.9-.9.9-.9-.9zm2-.5l-1.2-1.2-1.3 1.3-.4-.4 2.4-2.4v-.8h.5v3.5zm0-4.1h-.5v-.5h.5v.5zm0-1.6v.5h-.5v-1.5h.5v1zm0-1.5h-.5v-.5h.5v.5zm1.1 15.9h-.5v-2.6h.5v2.6zm0-3.1h-.5v-.5h.5v.5zm0-1h-.5v-8.2h.5v8.2zm0-8.7h-.5v-.5h.5v.5zm0-1.1h-.5v-2.6h.5v2.6zm2 13.9h-.5v-.5h.5v.5zm0-1h-.5v-.5h.5v.5zm0-1.1h-1v2.1h-.5v-2.6h1.5v.5zm0-1h-1.5v-.5h1.5v.5zm0-2h-.5v-1h.5v1zm0-3.1v1.5h-.5v-3.1h.5v1.6zm0-2.6v.5h-.5v-1h.5v.5zm0-1h-1v7.2h1v.5h-1.5v-8.2h1.5v.5zm0-1h-1.5v-.5h1.5v.5zm0-1.1h-1.5v-2.6h.5v2.1h1v.5zm0-1h-.5v-.5h.5v.5zm0-1h-.5v-.5h.5v.5zM577.8 439H17.4v-.5h560.4v.5zm13.4-16.4h.5v1.5h-.5v-1.5zm0 2.1h.5v.5h-.5v-.5zm0 1h.5v.5h-.5v-.5zm-2.6-3.1h1v.5h-1v-.5zm-3.6 0h3v.5h-3v-.5zm-1.5 0h1v.5h-1v-.5zm-1 0h.5v1h7.2v-1h.5v1.5h-8.2v-1.5zm0 2.1h8.2v.5h-8.2v-.5zm4.1 7.4l.4.4-.4.4-.4-.4.4-.4zm-.9 0l-.4-.4.4-.4.4.4-.4.4zm.9-2.6l-.4-.4.4-.4.4.4-.4.4zm0-1.7l-.9-.9.9-.9.9.9-.9.9zm-.9 2.5l-.4-.4.4-.4.4.4-.4.4zm-.9.9l-.4-.4.4-.4.4.4-.4.4zm1.3 2.2l-1.3 1.3 1.2 1.2h-3.6v-.5c.2 0 .7 0 .8-.1l2.4-2.4.5.5zm-.4 1.3l.9-.9.9.9-.9.9-.9-.9zm1.7-4.4l-.4-.4.4-.4.4.4-.4.4zm.4 1.4l-.4.4-.4-.4.4-.4.4.4zm.5-1.3l.4.4-.4.4-.4-.4.4-.4zm0-.9l-.4-.4 1.7-1.7c.8-.7.5-.6 1.1-.6v.4l-2.4 2.3zm1.5-3.3l-2.4 2.4-.4-.4 1.3-1.3-1.2-1.2h3.6v.5h-.9zm-7.3-.5h3.6l-1.2 1.2 1.3 1.3-.4.4-2.4-2.4h-.8c-.1-.2-.1-.3-.1-.5zm.4 1l2.4 2.4-.4.4-2.4-2.4c0-.2 0-.3-.1-.4h.5zm-1.5-4.1h.5v1.5h-.5v-1.5zm0 2.1h.5v.5h-.5v-.5zm0 1h.5v.5h-.5v-.5zm0 1h.5v.8l2.5 2.5-.4.4-1.3-1.3-1.2 1.2c-.1-.9-.1-3-.1-3.6zm2.1 4.1l-.9.9-.9-.9.9-.9.9.9zm-4.1-8.2h.5v.5h-.5v-.5zm-1 0h.5v.5h-.5v-.5zm0 3.1h.5v.5h-.5v-.5zm0 1h.5v1h-.5v-1zm0 1.6h.5v.5h-.5v-.5zm0 .9h.5v3.1h-.5v-3.1zm0 3.6h.5v.5h-.5v-.5zm0 1.1h.5v1h-.5v-1zm0 1.5h.5v.5h-.5v-.5zm.5 3.6h-.5v-.5h.5v.5zm1 0h-.5v-.5h.5v.5zm1 0h-.5v-1h-2.1v-.5h2.6v1.5zm0-2.1h-2.6v-.5h2.6v.5zm0-1h-1.5v-.5h1.5v.5zm-1.5-1v-8.2h.5v8.2h-.5zm1.5 0h-.5v-8.2h.5v8.2zm0-8.7h-1.5v-.5h1.5v.5zm0-1h-2.6v-.5h2.6v.5zm0-1h-2.6v-.5h2.1v-1h.5v1.5zm1 14.8h-.5v-1.5h.5v1.5zm0-2.1h-.5v-.5h.5v.5zm0-1h-.5v-.5h.5v.5zm0-1.8v.8h-.5v-3.6l1.2 1.2 1.3-1.3.4.4-2.4 2.5zm.5.3l2.4-2.4.4.4-2.3 2.3h-.5v-.3zm2.1 4.6h-1v-.5h1v.5zm3.6 0H585v-.5h3.1v.5zm1.5 0h-1v-.5h1v.5zm1.1 0h-.5v-1H583v1h-.5v-1.5h8.2v1.5zm0-2.1h-8.2v-.5h8.2v.5zm0-1h-3.6l1.2-1.2-1.3-1.3.4-.4 2.4 2.4h.8c.1.2.1.4.1.5zm-.4-1l-2.4-2.4.4-.4 2.4 2.4c0 .1 0 .3.1.4h-.5zm1.4 4.1h-.5v-1.5h.5v1.5zm0-2.1h-.5v-.5h.5v.5zm0-1h-.5v-.5h.5v.5zm0-1h-.5v-.8l-2.4-2.4.4-.4 1.3 1.3 1.2-1.2v3.5zm-2.1-4.1l.9-.9.9.9-.9.9-.9-.9zm2.1-.5l-1.2-1.2-1.3 1.3-.4-.4 2.4-2.4v-.8h.5v3.5zm1.5-7.7h.5v.5h-.5v-.5zm-1 3.1h1.5v.5h-1.5v-.5zm1.5 1v8.2h-.5v-8.2h.5zm-1.5 4.1v-4.1h.5v8.2h-.5v-4.1zm0 4.6h1.5v.5h-1.5v-.5zm1.5 3.6h-.5v-.5h.5v.5zm1.1 0h-.5v-.5h.5v.5zm0-1h-2.1v1h-.5v-1.5h2.6v.5zm0-1.1h-2.6v-.5h2.6v.5zm0-1h-.5v-.5h.5v.5zm0-1h-.5v-1h.5v1zm0-1.5h-.5v-.5h.5v.5zm0-1.1h-.5v-3.1h.5v3.1zm0-3.5h-.5v-.5h.5v.5zm0-1h-.5v-1h.5v1zm0-1.6h-.5v-.5h.5v.5zm0-1h-2.6v-.5h2.6v.5zm0-1h-2.6v-1.5h.5v1h2.1v.5zm0-1.1h-.5v-.5h.5v.5z"/></svg>