<svg version="1.2" baseProfile="tiny" xmlns="http://www.w3.org/2000/svg" viewBox="0 0 1161 356"><path fill-rule="evenodd" d="M17.1 0H0v356h1161V0H17.1zM1 34h1v288H1V34zm2 0h1v30.1h1V34h1v30.1h1V34h27V7h30.1V6H34V5h30.1V4H34V3h1093v1h-30.1v1h30.1v1h-30.1v1h30.1v26.9h26.9v30.2h1V33.9h1v30.2h1V33.9h1V322h-1v-30.2h-1V322h-1v-30.2h-1V322H1127v27h-30.1v1h30.1v1h-30.1v1h30.1v1H34v-1h30.1v-1H34v-1h30.1v-1H34v-27H7v-30.1H6V322H5v-30.1H4V322H3V34zm1156-.1h1V322h-1V33.9zM34 354v1h1093v-1H34zm1126-29.9v-1h-1v1h1zm-2 0v-1h-1v1h1zm2 2v-1h-4v-2h-1v3h5zm-6 0v-3h-1v3h1zm6 2v-1h-5v1h5zm-6 0v-1h-1v1h1zm-1 1v1h1v-1h-1zm7 1v-1h-1v1h1zm-2 0v-1h-3v1h3zm-6-1h-7l2.4 2.4-2.5 2.5.8.8 4.7-4.7h1.6v-1zm-8 .6l-1.7 1.7 1.7 1.7 1.7-1.7-1.7-1.7zm-9.3 9.3l1.7 1.7 1.7-1.7-1.7-1.7-1.7 1.7zm5.1 0l.8.8.8-.8-.8-.8-.8.8zm3.4 1.7l-.8-.8-.8.8.8.8.8-.8zm0 1.7l.8.8.8-.8-.8-.8-.8.8zm2.5-.8l.8-.8-.8-.8-.8.8.8.8zm.8-2.6l.8.8.8-.8-.8-.8-.8.8zm6.5-7.9v1.6l-4.7 4.7.8.8 2.5-2.5 2.4 2.4v-7h-1zm.3 7.9l-1.7-1.7-1.7 1.7 1.7 1.7 1.7-1.7zm-8.4-1.7l.8.8.8-.8-.8-.8-.8.8zm-2.6-.8l-.8.8.8.8.8-.8-.8-.8zm2.6-.9l-.8-.8-.8.8.8.8.8-.8zm1.6 0l.8.8 4.6-4.6v-.8c-1.1 0-.6-.2-2.1 1.2l-3.3 3.4zm13.5-2.5v-2h-1v2h1zm0 1.9v-1h-1v1h1zm0 7v-6h-1v6h1zm0 2v-1h-1v1h1zm0 3v-2h-1v2h1zm-2 0v-15.9h-1V347h1zm-2 0v-15.9h-1v16c.3-.1.7-.1 1-.1zm-2 0v-7l-2.4 2.4-2.5-2.5-.8.8 4.7 4.7v1.6h1zm-2-.8l-4.6-4.6-.8.8 4.6 4.6h.9c-.1-.3-.1-.6-.1-.8zm8 2.8v-1h-1v1h1zm-4 0h2v-1h-3v1h1zm-2 0v-1h-1v1h1zm-2-1h-1.6l-4.7-4.7-.8.8 2.5 2.5-2.4 2.4h7v-1zm-8-3.1l-1.7 1.7 1.7 1.7 1.7-1.7-1.7-1.7zm16 6.1v-1h-5v1h5zm-6 0v-1h-1v1h1zm6 4v-1h-1v1h1zm-2 0v-1h-1v1h1zm-2 0v-2h4v-1h-5v3h1zm-2 0v-3h-1v3h1zm-5 0h1v-1h-2v1h1zm-5 0h3v-1h-6v1h3zm-4-1h-2v1h2v-1zm-12 0v1h1v-1h-1zm2 0v1h1v-1h-1zm-2-2v1h4v2h1v-3h-5zm6 0v3h1v-3h-1zm2 0v3h1v-2h14v2h1v-3h-16zm-8-2v1h5v-1h-5zm6 0v1h1v-1h-1zm2 0v1h16v-1h-16zm-1-1v-1h-1v1h1zm-7-1v1h1v-1h-1zm2 0v1h3v-1h-3zm6 0v1h7l-2.4-2.4 2.5-2.5-4.2-4.2-2.5 2.5-2.4-2.4v7h1v-1.6l4.7-4.7.8.8-4.6 4.6v.8h.9l4.6-4.6.8.8-4.7 4.7c-.2.2-1.2.2-1.5.2zm-8-3v2h1v-2h-1zm0-2v1h1v-1h-1zm0-7v6h1v-6h-1zm0-1.9v1h1v-1h-1zm0-3v2h1v-2h-1zm2 0V347h1v-15.9h-1zm2 0V347h1v-15.9h-1zm2 0v7l2.4-2.4 2.5 2.5.8-.8-4.8-4.8v-1.5h-.9zm2 .8l4.6 4.6.8-.8-4.6-4.6h-.9c.1.2.1.5.1.8zm-8-2.8v1h1v-1h-1zm4 0h-2v1h3v-1h-1zm2 0v1h1v-1h-1zm2 1h1.6l4.7 4.7.8-.8-2.5-2.5 2.4-2.4h-7v1zm-8-3v1h5v-1h-5zm6 0v1h1v-1h-1zm2 0v1h16v-1h-16zm-8-4v1h1v-1h-1zm2 0v1h1v-1h-1zm2 0v2h-4v1h5v-3h-1zm2 0v3h1v-3h-1zm2 0v3h16v-3h-1v2h-14v-2h-1zm14 0h-2v1h2v-1zm-11 0h-1v1h2v-1h-1zm5 0h-3v1h6v-1h-3zM32 355h1v-1h-1v1zm0-2h1v-1h-1v1zm-2 2h1v-4h2v-1h-3v5zm0-6h3v-1h-3v1zm-2 6h1v-5h-1v5zm0-6h1v-1h-1v1zm-1-1h-1v1h1v-1zm-1 7h1v-1h-1v1zm0-2h1v-3h-1v3zm1-6v-7l-2.4 2.4-2.5-2.5-.8.8 4.7 4.7v1.6h1zm-.6-8l-1.7-1.7L23 339l1.7 1.7 1.7-1.7zm-9.3-9.3l-1.8 1.7 1.8 1.7 1.7-1.7-1.7-1.7zm0 5.1l-.9.8.9.8.8-.8-.8-.8zm-1.8 3.4l.8-.8-.8-.8-.8.8.8.8zm-1.7 0l-.8.8.8.8.8-.8-.8-.8zm.8 2.5l.8.8.8-.8-.8-.8-.8.8zm2.7.9l-.9.8.9.8.8-.8-.8-.8zM25 348h-1.6l-4.7-4.7-.8.8 2.5 2.5L18 349h7v-1zm-7.9.3l1.7-1.7-1.7-1.7-1.8 1.7 1.8 1.7zm1.6-8.4l-.8.8.8.8.8-.8-.8-.8zm.9-2.6l-.8-.8-.8.8.8.8.8-.8zm.8 2.6l.8-.8-.8-.8-.8.8.8.8zm0 1.7l-.8.8 4.6 4.6h.8c0-1.1.2-.6-1.2-2.1l-3.4-3.3zM23 355h2v-1h-2v1zm-2 0h1v-1h-1v1zm-7 0h6.1v-1H14v1zm-2 0h1v-1h-1v1zm-3 0h2v-1H9v1zm0-2h16v-1H9v1zm0-2h16v-1H9v1zm0-2h7l-2.4-2.4 2.5-2.5-.8-.8-4.7 4.7H9v1zm.8-2l4.6-4.6-.8-.8-4.6 4.6v.9c.3-.1.6-.1.8-.1zM7 355h1v-1H7v1zm0-4v2h1v-3H7v1zm0-2h1v-1H7v1zm1-2v-1.6l4.7-4.7-.8-.8-2.5 2.5L7 340v7h1zm3.1-8l-1.7-1.7-1.7 1.7 1.7 1.7 1.7-1.7zM5 355h1v-5H5v5zm0-6h1v-1H5v1zm-4 6h1v-1H1v1zm0-2h1v-1H1v1zm0-2h2v4h1v-5H1v1zm0-2h3v-1H1v1zm0-5v1h1v-2H1v1zm0-5v3h1v-6H1v3zm1-4v-2H1v2h1zm0-12H1v1h1v-1zm0 2H1v1h1v-1zm2-2H3v4H1v1h3v-5zm0 6H1v1h3v-1zm0 2H1v1h2v14H1v1h3v-16zm2-8H5v5h1v-5zm0 6H5v1h1v-1zm0 2H5v16h1v-16zm1-1h1v-1H7v1zm1-7H7v1h1v-1zm0 2H7v3h1v-3zm0 6H7v7l2.4-2.4 2.5 2.5 4.2-4.2-2.5-2.5L16 329H9v1h1.6l4.7 4.7-.8.8-4.7-4.5H9v.9l4.6 4.6-.8.8-4.8-4.7V331zm3-8H9v1h2v-1zm2 0h-1v1h1v-1zm7 0h-6.1v1H20v-1zm2 0h-1v1h1v-1zm3 0h-2v1h2v-1zm0 2H9v1h16v-1zm0 2H9v1h16v-1zm0 2h-7l2.4 2.4-2.5 2.5.8.8 4.8-4.8H25v-.9zm-.8 2l-4.6 4.6.8.8 4.6-4.6v-.9c-.2.1-.5.1-.8.1zm2.8-8h-1v1h1v-1zm0 4v-2h-1v3h1v-1zm0 2h-1v1h1v-1zm-1 2v1.6l-4.7 4.7.8.8 2.5-2.5L27 338v-7h-1zm3-8h-1v5h1v-5zm0 6h-1v1h1v-1zm0 2h-1v16h1v-16zm4-8h-1v1h1v-1zm0 2h-1v1h1v-1zm0 2h-2v-4h-1v5h3v-1zm0 2h-3v1h3v-1zm0 2h-3v16h3v-1h-2v-14h2v-1zm0 14v-2h-1v2h1zm0-11v-1h-1v2h1v-1zm0 5v-3h-1v6h1v-3zM34 2V1h1093v1H34zm1126 29.9v1h-1v-1h1zm-2 0v1h-1v-1h1zm2-2v1h-4v2h-1v-3h5zm-6 0v3h-1v-3h1zm6-2v1h-5v-1h5zm-6 0v1h-1v-1h1zm-1-1v-1h1v1h-1zm7-1v1h-1v-1h1zm-2 0v1h-3v-1h3zm-6 1h-7l2.4-2.4-2.5-2.5.8-.8 4.7 4.7h1.6v1zm-8-.6l-1.7-1.7 1.7-1.7 1.7 1.7-1.7 1.7zm-9.3-9.3l1.7-1.7 1.7 1.7-1.7 1.7-1.7-1.7zm5.1 0l.8-.8.8.8-.8.8-.8-.8zm3.4-1.7l-.8.8-.8-.8.8-.8.8.8zm0-1.7l.8-.8.8.8-.8.8-.8-.8zm2.5.8l.8.8-.8.8-.8-.8.8-.8zm.8 2.6l.8-.8.8.8-.8.8-.8-.8zm6.5 7.9v-1.6l-4.7-4.7.8-.8 2.5 2.5 2.4-2.4v7h-1zm.3-7.9l-1.7 1.7-1.7-1.7 1.7-1.7 1.7 1.7zm-8.4 1.7l.8-.8.8.8-.8.8-.8-.8zm-2.6.8l-.8-.8.8-.8.8.8-.8.8zm2.6.8l-.8.8-.8-.8.8-.8.8.8zm1.6 0l.8-.8 4.6 4.6v.8c-1.1 0-.6.2-2.1-1.2l-3.3-3.4zm13.5 2.6v2h-1v-2h1zm0-2v1h-1v-1h1zm0-6.9v6h-1v-6h1zm0-2v1h-1v-1h1zm0-3v2h-1V9h1zm-2 0v15.9h-1V9h1zm-2 0v15.9h-1V9h1zm-2 0v7l-2.4-2.4-2.5 2.5-.8-.8 4.7-4.7V9h1zm-2 .8l-4.6 4.6-.8-.8 4.6-4.6h.9c-.1.3-.1.6-.1.8zm8-2.8v1h-1V7h1zm-4 0h2v1h-3V7h1zm-2 0v1h-1V7h1zm-2 1h-1.6l-4.7 4.7-.8-.8 2.5-2.5L1145 7h7v1zm-8 3.1l-1.7-1.7 1.7-1.7 1.7 1.7-1.7 1.7zm16-6.1v1h-5V5h5zm-6 0v1h-1V5h1zm6-4v1h-1V1h1zm-2 0v1h-1V1h1zm-2 0v2h4v1h-5V1h1zm-2 0v3h-1V1h1zm-5 0h1v1h-2V1h1zm-5 0h3v1h-6V1h3zm-4 1h-2V1h2v1zm-12 0V1h1v1h-1zm2 0V1h1v1h-1zm-2 2V3h4V1h1v3h-5zm6 0V1h1v3h-1zm2 0V1h1v2h14V1h1v3h-16zm-8 2V5h5v1h-5zm6 0V5h1v1h-1zm2 0V5h16v1h-16zm-1 1v1h-1V7h1zm-7 1V7h1v1h-1zm2 0V7h3v1h-3zm6 0V7h7l-2.4 2.4 2.5 2.5-4.2 4.2-2.5-2.5-2.4 2.4V9h1v1.6l4.7 4.7.8-.8-4.6-4.6v-.8h.9l4.6 4.6.8-.8-4.7-4.7c-.2-.2-1.2-.2-1.5-.2zm-8 3V9h1v2h-1zm0 2v-1h1v1h-1zm0 7v-6h1v6h-1zm0 1.9v-1h1v1h-1zm0 3v-2h1v2h-1zm2 0V9h1v15.9h-1zm2 0V9h1v15.9h-1zm2 0v-7l2.4 2.4 2.5-2.5.8.8-4.8 4.8v1.5h-.9zm2-.8l4.6-4.6.8.8-4.6 4.6h-.9c.1-.2.1-.5.1-.8zm-8 2.8v-1h1v1h-1zm4 0h-2v-1h3v1h-1zm2 0v-1h1v1h-1zm2-1h1.6l4.7-4.7.8.8-2.5 2.5 2.4 2.4h-7v-1zm-8 3v-1h5v1h-5zm6 0v-1h1v1h-1zm2 0v-1h16v1h-16zm-8 4v-1h1v1h-1zm2 0v-1h1v1h-1zm2 0v-2h-4v-1h5v3h-1zm2 0v-3h1v3h-1zm2 0v-3h16v3h-1v-2h-14v2h-1zm14 0h-2v-1h2v1zm-11 0h-1v-1h2v1h-1zm5 0h-3v-1h6v1h-3zM32 1h1v1h-1V1zm0 2h1v1h-1V3zm-2-2h1v4h2v1h-3V1zm0 6h3v1h-3V7zm-2-6h1v5h-1V1zm0 6h1v1h-1V7zm-1 1h-1V7h1v1zm-1-7h1v1h-1V1zm0 2h1v3h-1V3zm1 6v7l-2.4-2.4-2.5 2.5-.8-.8 4.7-4.7V9h1zm-.6 8l-1.7 1.7L23 17l1.7-1.7 1.7 1.7zm-9.3 9.3l-1.8-1.7 1.8-1.7 1.7 1.7-1.7 1.7zm0-5.1l-.9-.8.9-.8.8.8-.8.8zm-1.8-3.4l.8.8-.8.8-.8-.8.8-.8zm-1.7 0l-.9-.8.8-.8.8.8-.7.8zm.8-2.5l.8-.8.8.8-.8.8-.8-.8zm2.7-.9l-.9-.8.9-.8.8.8-.8.8zM25 8h-1.6l-4.7 4.7-.8-.8 2.5-2.5L18.1 7h7c-.1.3-.1.7-.1 1zm-7.9-.3l1.7 1.7-1.7 1.7-1.8-1.7 1.8-1.7zm1.6 8.4l-.8-.8.8-.8.8.8-.8.8zm.9 2.6l-.8.8-.8-.8.8-.8.8.8zm.8-2.6l.8.8-.8.8-.8-.7.8-.9zm0-1.7l-.8-.8L24.2 9h.8c0 1.1.2.6-1.2 2.1l-3.4 3.3zM23 1h2v1h-2V1zm-2 0h1v1h-1V1zm-7 0h6v1h-6V1zm-2 0h1v1h-1V1zM9 1h2v1H9V1zm0 2h16v1H9V3zm0 2h16v1H9V5zm0 2h7l-2.4 2.4 2.5 2.5-.8.8L10.5 8H9V7zm.8 2l4.6 4.6-.8.8L9 9.8V9h.8zM7 1h1v1H7V1zm0 4V3h1v3H7V5zm0 2h1v1H7V7zm1 2v1.6l4.7 4.7-.8.8-2.5-2.5L7 16V9h1zm3.1 8l-1.7 1.7L7.7 17l1.7-1.7 1.7 1.7zM5 1h1v5H5V1zm0 6h1v1H5V7zM1 1h1v1H1V1zm0 2h1v1H1V3zm0 2h2V1h1v5H1V5zm0 2h3v1H1V7zm0 5v-1h1v2H1v-1zm0 5v-3h1v6H1v-3zm1 4v2H1v-2h1zm0 12H1v-1h1v1zm0-2H1v-1h1v1zm2 2H3v-4H1v-1h3v5zm0-6H1v-1h3v1zm0-2H1v-1h2V10H1V9h3v16zm2 8H5v-5h1v5zm0-6H5v-1h1v1zm0-2H5V9h1v16zm1 1h1v1H7v-1zm1 7H7v-1h1v1zm0-2H7v-3h1v3zm0-6H7v-7l2.4 2.4 2.5-2.5 4.2 4.2-2.5 2.5L16 27H9v-1h1.6l4.7-4.7-.8-.8L9.8 25H9v-.9l4.6-4.6-.8-.8L8 23.4V25zm3 8H9v-1h2v1zm2 0h-1v-1h1v1zm7 0h-6.1v-1H20v1zm2 0h-1v-1h1v1zm3 0h-2v-1h2v1zm0-2H9v-1h16v1zm0-2H9v-1h16v1zm0-2h-7l2.4-2.4-2.5-2.5.8-.8 4.8 4.8H25v.9zm-.8-2l-4.6-4.6.8-.8 4.6 4.6v.9c-.2-.1-.5-.1-.8-.1zm2.8 8h-1v-1h1v1zm0-4v2h-1v-3h1v1zm0-2h-1v-1h1v1zm-1-2v-1.6l-4.7-4.7.8-.8 2.5 2.5L27 18v7h-1zm3 8h-1v-5h1v5zm0-6h-1v-1h1v1zm0-2h-1V9h1v16zm4 8h-1v-1h1v1zm0-2h-1v-1h1v1zm0-2h-2v4h-1v-5h3v1zm0-2h-3v-1h3v1zm0-2h-3V9h3v1h-2v14h2v1zm0-14v2h-1v-2h1zm0 11v1h-1v-2h1v1zm0-5v3h-1v-6h1v3z"/></svg>