<svg version="1.2" baseProfile="tiny" xmlns="http://www.w3.org/2000/svg" viewBox="0 0 112.1 83.4"><path d="M57.3 77.8c-4-.5-13.2-2.4-15.7-5.5-1.2-1.5-2.3-3.1-3.4-4.6-1.2-1.8-2.4-3.6-3.7-5.4l-1-1.5h7.4l.3.2c2.4 2.2 4.9 4.3 7.5 6.3.8.6 2.7.9 3.7 1 2.1.2 4.2.2 6.2.1 2.4-.1 4.9-.4 7.2-1.1.3-.1.6-.3.8-.6l3.9-5.9h6.3L71 80.5l2.4 2.2h3.7c.1 0 .1 0 .1-.1v-.2l-3.3-2.8 5.6-19.1h28.4c2 0 3.6-1.6 3.6-3.6V52c0-2-1.6-3.6-3.6-3.6h-10l-.1-.9c-.8-10.4-5.2-20-12.5-27.3-5.6-5.5-12.4-9.3-20-11l-.6-.1-.1-.7C64 3.9 60.3.7 56 .7c-4.4 0-8.1 3.3-8.6 7.6l-.1.7-.6.1c-7.6 1.7-14.4 5.6-20 11-7.3 7.4-11.7 17-12.5 27.4l-.1.9h-10C2.1 48.4.5 50 .5 52v4.9c0 2 1.6 3.6 3.6 3.6h26.2l.3.4 1.8 2.7c.9 1.3 1.8 2.7 2.7 4 .8 1.2 1.7 2.4 2.5 3.7.6.9 1.2 1.7 1.9 2.5 2.9 3.5 11.1 5.4 15.4 6.1h.3l2.9 2.5H62.5c.1 0 .1 0 .1-.1v-.2l-1.2-1.2c-.9-.8-1.8-1.7-2.7-2.5-.3-.3-.7-.6-1-.8-.1.4-.2.3-.4.2zM56 11.1c20.5 0 37.3 15.7 39.1 36.4l.1 1H16.8l.1-1C18.6 26.7 35.5 11.1 56 11.1zm0-7.5c2.3 0 4.5 1.4 5.4 3.5l.7 1.5-1.6-.2c-1.5-.2-3-.2-4.5-.2s-3 .1-4.5.2l-1.7.2.7-1.5c1-2.1 3.1-3.5 5.5-3.5zm8.2 61.2c-1.4.3-2.9.5-4.3.7-1.9.2-3.8.2-5.7.2-1.1 0-2.7-.1-3.7-.5h-.1l-.1-.1c-1.1-.8-2.1-1.7-3.2-2.5L45 60.9h22.1l-2.6 3.9h-.3zm44.5-6.8H3.2v-6.6h105.5V58z"/></svg>