<svg version="1.2" baseProfile="tiny" xmlns="http://www.w3.org/2000/svg" viewBox="0 0 130 72.9"><path d="M49 70.4c1.6 0 3.1-.1 4.6-.2h.4c-5.1-2.5-9.7-5.7-13.7-9.5-5.1-4.8-9.3-10.4-12.4-16.6-1.9-.5-3.9-.8-5.9-1.1-2.1-.3-4.3-.4-6.5-.4-2.3 0-4.5.1-6.7.4-1.7.2-3.4.5-5.1.9 4 7.8 10.3 14.3 17.9 18.9 8 4.8 17.5 7.6 27.4 7.6zm14.6-6.3c.3.4.3.5.4.6.3.4.5.7.7.9l.2.2.2.3.3-.3c.2-.2.3-.4.6-.7.2-.2.3-.5.5-.7 1-1.4 1.9-2.8 2.7-4.3.9-1.5 1.6-3.1 2.3-4.6 1.6-3.7 2.7-7.5 3.3-11.4.7-4 .9-8 .6-12V32c-.1-.9-.1-1.8-.2-2.6 0-.4-.1-.8-.1-1.2-.1-.4-.1-.8-.2-1.2-.7-4.4-2-8.7-3.8-12.8-1.6-3.6-3.6-7-6-10.2-2.4 3.1-4.5 6.4-6 9.9-1.9 4.1-3.1 8.5-3.8 12.9-.1.8-.2 1.5-.3 2.3-.1.9-.2 1.8-.2 2.6v.1c-.2 4.1 0 8.2.8 12.2.7 4 1.9 7.9 3.6 11.6.7 1.5 1.4 2.9 2.2 4.4.4 1.4 1.3 2.8 2.2 4.1zm-1.7 2l-.4-.6c-1-1.4-1.8-2.8-2.6-4.2-.8-1.5-1.6-3-2.3-4.6-1.7-3.9-3-8-3.7-12.2-.8-4.2-1-8.5-.8-12.8v-.1c.1-.9.1-1.8.2-2.7l.3-2.4c.7-4.7 2.1-9.3 4-13.6C58.5 8.7 61 4.7 64 1.2L65 0l1 1.2c3 3.7 5.4 7.8 7.3 12 1.9 4.3 3.3 8.8 4 13.4.1.4.1.8.2 1.2.1.4.1.8.1 1.2.1.9.2 1.9.3 2.8v.1c.3 4.2.1 8.4-.6 12.6-.7 4.1-1.9 8.1-3.5 12-.7 1.7-1.5 3.3-2.4 4.9-.9 1.5-1.8 3-2.8 4.5-.2.3-.4.6-.6.8-.2.2-.4.5-.6.8-.3.4-.5.7-.9 1.1v.1c-.1.1-.2.3-.3.4l-.9 1.1-1-1.1c-.1-.1-.3-.3-.4-.5 0 0 0-.1-.1-.2-.3-.3-.5-.6-.7-.9l-.2-.2c-.5-.6-.8-.9-1-1.2zM33.6 41.5c.2.3.3.7.6 1.1.2.4.4.8.6 1.1 2.8 5 6.5 9.5 10.9 13.4 3.2 2.8 6.8 5.3 10.6 7.2-.2-.3-.3-.5-.4-.8-.9-1.5-1.7-3.1-2.4-4.7-.4-.8-.7-1.6-1-2.3-.3-.8-.6-1.5-.9-2.3l-.6-1.8c-.2-.6-.4-1.2-.5-1.8-1.1-3.8-1.7-7.6-2-11.5-.3-3.7-.2-7.4.2-11.1-2.9-3.1-6.2-5.8-9.8-8.1-3.2-2.1-6.8-3.9-10.5-5.3-.4 3.9-.3 7.7.3 11.5.7 4.5 2 8.8 3.8 12.9.3.6.5 1.1.8 1.7.3.7 0 .2.3.8zm-1.7 2.3c-.2-.3-.4-.7-.6-1.2-.3-.5-.3-.6-.3-.6s0 .1 0 0c-.3-.6-.6-1.2-.8-1.7-1.9-4.3-3.3-8.9-4-13.6-.7-4.5-.8-9.2-.1-13.8l.2-1.5 1.5.5c4.5 1.5 8.7 3.6 12.6 6.1 4 2.6 7.5 5.6 10.7 9l.4.4-.1.6c-.4 3.7-.5 7.4-.2 11.2.3 3.7.9 7.4 2 11 .2.6.3 1.1.5 1.7s.4 1.1.6 1.7c.3.7.5 1.5.8 2.2.3.8.6 1.5.9 2.2.7 1.5 1.5 3 2.3 4.5.8 1.4 1.7 2.9 2.7 4.3l2.5 3.5-4-1.6c-5.6-2.3-10.8-5.5-15.2-9.4-4.6-4-8.4-8.8-11.4-14-.5-.8-.8-1.1-1-1.5zm.7 1.1zm41.3 19.3c3.8-2 7.3-4.4 10.4-7.2 4.3-3.8 8-8.4 10.9-13.3.2-.3.4-.7.6-1.1.3-.5.4-.8.6-1.2.2-.4.4-.7.6-1.1.2-.3.3-.7.5-1.1 1.8-4.1 3.1-8.4 3.8-12.9.6-3.8.7-7.7.3-11.5-3.8 1.4-7.3 3.2-10.6 5.3-3.6 2.3-6.9 5.1-9.8 8.2.5 3.6.6 7.3.3 10.9-.3 3.8-.9 7.6-1.9 11.3-.3 1.2-.7 2.3-1.1 3.5-.2.7-.5 1.4-.8 2.2-.3.7-.6 1.4-.9 2.2-.8 1.7-1.6 3.3-2.5 4.9-.1.3-.2.6-.4.9zM86 58.9c-4.4 3.9-9.5 7.1-15.1 9.4l-4 1.7 2.5-3.6c1-1.4 1.9-2.9 2.8-4.4s1.7-3.1 2.4-4.7c.3-.7.6-1.3.9-2.1.3-.7.5-1.4.8-2.1.4-1.1.7-2.2 1.1-3.3 1-3.5 1.6-7.1 1.8-10.8.2-3.7.1-7.4-.4-11l-.1-.6.4-.4c3.1-3.4 6.7-6.5 10.7-9 3.9-2.5 8.1-4.6 12.7-6.1l1.5-.5.2 1.5c.6 4.6.5 9.3-.1 13.8-.7 4.7-2.1 9.2-4 13.6-.2.4-.3.7-.5 1.2l-.6 1.2c-.2.5-.5.9-.6 1.2-.2.4-.4.8-.7 1.2-3.3 5.1-7.1 9.8-11.7 13.8zM102.1 44c-3.1 6.2-7.3 11.8-12.4 16.6-4.1 3.8-8.7 7-13.7 9.5h.4c1.5.1 3 .2 4.6.2 9.9 0 19.4-2.8 27.4-7.7 7.6-4.6 13.9-11.1 17.9-18.9-1.7-.4-3.4-.7-5.1-.9-2.2-.3-4.4-.4-6.7-.4-2.2 0-4.4.1-6.5.4-2 .4-4 .7-5.9 1.2zM87.9 58.7c5-4.7 9.2-10.3 12.2-16.4l.3-.5.6-.1c2.2-.5 4.5-1 6.8-1.3 2.2-.3 4.5-.4 6.8-.4s4.7.1 7 .4 4.6.7 6.9 1.3l1.5.4-.7 1.4c-4.2 8.9-11.1 16.2-19.6 21.4-8.4 5.1-18.4 8-28.8 8-1.6 0-3.2-.1-4.9-.2-1.7-.2-3.3-.4-4.9-.7l-4.3-.8 4.1-1.6c6.4-2.6 12.1-6.3 17-10.9zm-34 14c-1.6.2-3.3.2-4.9.2-10.4 0-20.3-2.9-28.7-8C11.8 59.8 4.9 52.4.7 43.5L0 42.1l1.5-.4c2.3-.6 4.6-1 6.9-1.3 2.4-.3 4.7-.4 7-.4s4.6.1 6.8.4c2.3.3 4.6.7 6.8 1.3l.6.1.3.5c3 6.1 7.1 11.7 12.2 16.4 4.9 4.6 10.6 8.3 17 10.8l4.1 1.6-4.3.8c-1.7.4-3.4.6-5 .8z"/></svg>