<svg version="1.0" id="Слой_1" xmlns="http://www.w3.org/2000/svg" xmlns:xlink="http://www.w3.org/1999/xlink" x="0px" y="0px"
	 viewBox="0 0 595.3 841.9" enable-background="new 0 0 595.3 841.9" xml:space="preserve">
<g>
	<path fill="#010101" d="M206.2,352.2c-6.7-12.8-13.3-25.9-18.7-39.5c-2.7-6.9-5.3-13.9-8.1-20.7c-0.6,0.1-1.2,0.2-1.8,0.3
		c-1.3,1.1-2.7,2.1-4,3.1c0,0.3,0,0.7,0.1,1c-1.1,1.3-1.9,2.8-2.8,4.4c-4.6,8.4-8.5,17.3-13.1,25.8c-9.1,17-18.4,33.9-28.1,50.5
		c-18.4,31.6-38.9,61.8-54.9,95.2c-0.8,4.1-1.8,8.2-3,12.3c4.7-2.6,9.7-4.7,14.8-6.5c1.9-1,3.7-2.1,5.5-3.1
		c15.2-6,27.4-15,37.9-28.1c5-4.7,9.8-9.7,14.4-14.9c7.4-8.5,13.8-17.6,18.9-27.8c4.1-7,7.8-14.4,10.7-22.2c2,5.9,3.8,11.9,5.9,17.7
		c4,11,6,24,13.2,32.7c5.8,11.3,13.3,21.2,21.4,30.4c2.2,3.8,4.6,7.4,7.3,10.7c4.2,5.1,7.2,10.9,12.2,15.1
		c5.7,4.9,12.3,10.1,17.1,16.1c2.9,3.5,6.5,7.8,10.6,9.1c2,1.8,4,3.6,6.1,5.2c0.9,0.3,1.6,0.8,2.3,1.6c0.8,0.5,1.5,1.1,2.3,1.6
		c0.7,0.4,1.3,0.5,1.8,0.3c0.1,0.4,0.3,0.7,0.4,1c2.9,0.7,5.7,1.6,8.5,2.4c0.7-0.1,1.4-0.3,2.1-0.5c-14.3-30.4-26.9-61.9-40.2-92.9
		C233.1,405,220,378.6,206.2,352.2z"/>
	<path fill="#010101" d="M531.2,396.4c-11.7-29.4-24.5-58.2-37.9-86.6c-12.8-27.1-28-52.9-40.4-80.1c-4-8.8-12.6-6.7-19.7-5.6
		c-13.7,2.2-27.4,5.3-41,8.5c-28.7,6.8-57.3,13.9-86,20.5c-22.5,5.2-44.9,10-67.1,16.6c-10.8,3.2-21.6,6.4-32.2,10.4
		c-5.8,2.2-11.5,5.6-17.3,8.3c2.9,7.1,5.5,14.3,8.5,21.4c5.7,13.5,12.2,26.5,18.9,39.3c13.8,26.3,26.7,52.8,38.5,80.4
		c13.1,30.9,25.8,62.3,40.2,92.5c5-2,10-4.2,14.8-6.2c14.2-5.6,28.3-11.7,42.4-17.5c27.6-11.4,55.4-22.4,83.4-32.4
		c26.7-9.5,53.4-18.8,80-28.4c4.4-1.6,21.4-1.4,23-8.5C541.8,419.1,534.7,405.1,531.2,396.4z"/>
</g>
</svg>
