<svg xmlns="http://www.w3.org/2000/svg" viewBox="0 0 18 15"><path fill="#010101" d="M7.1 7.1V.4c0-.2.1-.4.4-.4h10.1c.2 0 .4.2.4.4v14.2c0 .2-.2.4-.4.4H.3c-.2 0-.3-.1-.3-.3 0-.2.1-.3.3-.3h.3V7.9c0-.4.3-.7.7-.7l5.8-.1zm2.9 0l3.6-2h.4l3.1 1.7v-6H7.8v6.3H10zm-.3-3.7h.9v-.8h-.9v.8zm2.5 0h.8v-.8h-.9v.8zm-1.7 2.5V5h-.8v.9h.8zm4.1-2.5h.9v-.8h-.9v.8zm2.5 10.8V7.8L13.8 6l-3.3 1.8v6.4h6.6zM13 9.4h-.9v.9h.9v-.9zm1.6.8h.9v-.8h-.9v.8zM13 11.9h-.9v.9h.9v-.9zm1.6.8h.9v-.9h-.9v.9zM1.2 7.8v6.5h8.6V7.8H1.2zm3.1 3.5l1.5 1c.1.1.3 0 .4 0l2.4-2.6c.1-.1.1-.3 0-.5s-.3-.1-.5 0l-2.2 2.4-1.5-1c-.1-.1-.3 0-.4 0l-1.6 1.6c-.1.1-.1.3 0 .5 0 0 .1.1.2.1s.2 0 .2-.1l1.5-1.4z"/></svg>