<svg xmlns="http://www.w3.org/2000/svg" viewBox="0 0 19.8 14.8"><path d="M18.3 14.8H7.4c-.8 0-1.5-.7-1.5-1.5 0 0 0-1.2.9-2.3.6-.6 1.2-1.1 2.1-1.5 1.1-.4 2.4-.7 3.9-.7s2.8.2 3.9.7c.9.4 1.6.9 2.1 1.5.9 1.1.9 2.3.9 2.3.1.9-.6 1.5-1.4 1.5zM6.9 13.4c0 .2.2.4.5.4h10.9c.2 0 .4-.2.4-.4 0-.1 0-.9-.7-1.7-.9-1.2-2.7-1.8-5.2-1.8s-4.3.6-5.2 1.8c-.7.8-.7 1.6-.7 1.7zm6-5.5c-2.2 0-4-1.8-4-4s1.8-3.9 4-3.9 3.9 1.8 3.9 3.9c0 2.3-1.7 4-3.9 4zm0-6.9c-1.7 0-3 1.3-3 2.9 0 1.7 1.3 3 3 3 1.6 0 2.9-1.3 2.9-3 0-1.6-1.3-2.9-2.9-2.9zM4.4 14.8H1.5c-.8 0-1.5-.7-1.5-1.5 0 0 0-.9.7-1.8.4-.5.9-.9 1.5-1.2.8-.3 1.7-.5 2.8-.5h.5c.3.1.5.3.5.6s-.3.4-.5.4H5c-3.8 0-3.9 2.3-3.9 2.5 0 .2.2.4.5.4h2.9c.3 0 .5.2.5.5s-.3.6-.6.6zm.5-5.9C3.3 8.9 2 7.6 2 5.9s1.3-3 2.9-3c1.7 0 3 1.3 3 3s-1.3 3-3 3zm0-5c-1.1 0-2 .9-2 2s.9 2 2 2 2-.9 2-2-.8-2-2-2z" fill="#2B2A29"/></svg>