<svg xmlns="http://www.w3.org/2000/svg" viewBox="0 0 595 842"><g fill-rule="evenodd"><path d="M-2350.5 1932.4c-6.8 0-12.1 5.5-12.1 12.1 0 6.8 5.5 12.1 12.1 12.1s12.1-5.5 12.1-12.1c0-6.8-5.5-12.1-12.1-12.1zm0 22.4c-5.7 0-10.3-4.6-10.3-10.3 0-5.7 4.6-10.3 10.3-10.3 5.7 0 10.3 4.6 10.3 10.3 0 5.6-4.6 10.3-10.3 10.3zm-.7-30.4v5.3c0 .5.4.9.9.9s.9-.4.9-.9v-5.3c0-.5-.4-.9-.9-.9-.6 0-.9.3-.9.9zm14 5.3l-3.7 3.7c-.4.4-.4.9 0 1.2 0 .4.4.4.5.4.2 0 .5 0 .7-.2l3.7-3.7c.4-.4.4-.9 0-1.2-.3-.4-.8-.5-1.2-.2zm-27.9 0c-.4.4-.4.9 0 1.2l3.7 3.7c.2.4.4.4.5.4.2 0 .5 0 .7-.2.4-.4.4-.9 0-1.2l-3.7-3.9c-.3-.3-.8-.3-1.2 0zm14.8 27.6c-.5 0-.9.4-.9.9v5.3c0 .5.4.9.9.9s.9-.4.9-.9v-5.3c0-.6-.4-.9-.9-.9zm18.6-13.4h-5.3c-.5 0-.9.4-.9.9s.4.9.9.9h5.3c.5 0 .9-.4.9-.9s-.3-.9-.9-.9zm-32.8.9c0-.5-.4-.9-.9-.9h-5.3c-.5 0-.9.4-.9.9s.4.9.9.9h5.3c.5 0 .9-.4.9-.9z"/><path d="M-2361.4 1953.5l-3.7 3.7c-.4.4-.4.9 0 1.2.2.2.4.2.7.2.4 0 .5 0 .7-.2l3.6-3.7c.4-.4.4-.9 0-1.2-.4-.3-.9-.3-1.3 0zm21.6 0c-.4-.4-.9-.4-1.2 0-.4.4-.4.9 0 1.2l3.7 3.7c.2.2.4.2.7.2.4 0 .5 0 .7-.2.4-.4.4-.9 0-1.2l-3.9-3.7z"/></g></svg>