<svg xmlns="http://www.w3.org/2000/svg" viewBox="0 0 20 20"><path fill="#010101" d="M16.6 2.1H1.8C.9 2.1.3 2.8.3 3.6v10.2c0 .9.7 1.5 1.5 1.5h.1v.2c0 .9.7 1.5 1.5 1.5h15c.7-.1 1.4-.7 1.4-1.5V5.4c0-.9-.7-1.5-1.5-1.5h-.1v-.3c0-.8-.7-1.5-1.6-1.5zm-7.7 8c-1.3 0-2.3-1.1-2.3-2.3s1.1-2.3 2.3-2.3 2.3 1.1 2.3 2.3-1.1 2.3-2.3 2.3zm0-3.7c.8 0 1.4.6 1.4 1.4s-.6 1.4-1.4 1.4c-.8 0-1.4-.6-1.4-1.4s.6-1.4 1.4-1.4zm-7.1 8h-.1c-.3-.2-.5-.5-.5-.9V3.6c-.1-.3.2-.6.5-.6h14.9c.3 0 .6.3.6.6v.2H3.3c-.9 0-1.5.7-1.5 1.5v9.1zm1.5-9.6h14.8c.3 0 .6.3.6.6V15l-4.6-7c-.1-.1-.2-.2-.4-.2s-.3.1-.4.2l-4 4.9L7 10.8c-.1-.1-.2-.1-.3-.1-.1 0-.2.1-.3.2l-3.6 4.5V5.3c-.1-.3.2-.5.5-.5zm0 11.3l3.5-4.3 2.4 2.1c.1.1.2.1.3.1.1 0 .3-.1.3-.2l4-4.8 4.6 7.1h-3.2l1.6-.8-1.6.8H3.3z"/></svg>