<svg xmlns="http://www.w3.org/2000/svg" viewBox="0 0 595 842"><path fill-rule="evenodd" d="M-2210.3 1829h1.8c.8 0 1.4.6 1.4 1.4v2c0 .8-.6 1.4-1.4 1.4h-70.7c-.8 0-1.4-.6-1.4-1.4v-2c0-.8.6-1.4 1.4-1.4h1.8v-74.4c0-.8.6-1.4 1.4-1.4h64.2c.8 0 1.4.6 1.4 1.4v74.4h.1zm-1.9 0v-73.8h-30.6v73.8h12.6l-.6-4.4h-7.1c-.8 0-1.4-.6-1.4-1.4V1761c0-.8.6-1.4 1.4-1.4h21.6c.8 0 1.4.6 1.4 1.4v62.2c0 .8-.6 1.4-1.4 1.4h-4l-.6 4.4h8.7zm-29.8-33.5v7.3h2v-7.3h-2zm4.7-15.1v4.3l20.5-20.5v-2.7h-1.6l-18.9 18.9zm0-2.8l16.1-16.1h-16.1v16.1zm20.5 7.7V1767l-20.5 20.5v18.3l20.5-20.5zm-20.5 23.2v14.1h6.3l-.8-6h5.4v-3.9c-1.5-.4-2.6-1.8-2.6-3.4v-6.5l3.6 3 3.6-3v6.5c0 1.6-1.1 3-2.6 3.4v.8l.8-.5 1 1.7-1.8 1v.8h5.2l-.8 6h3.2v-34.6l-20.5 20.6zm13.5-1.5l-1.6 1.3-1.6-1.3c0 1.5-.3 3.9 1.6 3.9 1.9 0 1.6-2.4 1.6-3.9zm2.3 11.6h-8.1l1.4 10.3h5.4l1.3-10.3zm-53.8-63.4v73.8h30.6v-73.8h-30.6zm2.6 68c0 .8.6 1.4 1.4 1.4h21.6c.8 0 1.4-.6 1.4-1.4V1761c0-.8-.6-1.4-1.4-1.4h-21.6c-.8 0-1.4.6-1.4 1.4v62.2zm25.2-27.7v7.3h2v-7.3h-2zm-23.2-8.3v18.3l20.5-20.5v-18.3l-20.5 20.5zm0 35.4h20.5v-34.8l-20.5 20.5v14.3zm20.4-58.7v-2.4h-1.9l-18.6 18.6v4.3l20.5-20.5zm-4.6-2.4h-15.8v15.8l15.8-15.8zm45.9 70.4v-.9h-69.6v.9h69.6z"/></svg>