<svg xmlns="http://www.w3.org/2000/svg" viewBox="0 0 13 19.2"><path fill="#010101" d="M6.5 2.8c-2 0-3.6 1.6-3.6 3.6S4.5 10 6.5 10s3.6-1.6 3.6-3.6-1.6-3.6-3.6-3.6zm0 6.4C5 9.2 3.8 8 3.8 6.5S5 3.7 6.5 3.7 9.2 5 9.2 6.5 8 9.2 6.5 9.2z"/><path fill="#010101" d="M6.5 0C2.9 0 0 2.9 0 6.5c0 2 1.7 5.2 2.7 6.9.5 1 1.1 1.9 1.7 2.9.6.9 1.1 1.8 1.7 2.7.2.3.5.3.7 0 .6-.9 1.2-1.8 1.7-2.7 1.4-2.2 3.7-6 4.3-8.6.1-.4.2-.8.2-1.2C13 2.9 10.1 0 6.5 0zm3.1 12.9c-.8 1.4-1.7 2.9-2.5 4.2l-.5.8c-.5-.7-.9-1.4-1.4-2.1C4 13.9.9 8.8.9 6.5.9 3.4 3.4.8 6.6.8s5.7 2.5 5.7 5.7c-.1 1.7-1.8 4.9-2.7 6.4z"/></svg>