<svg xmlns="http://www.w3.org/2000/svg" viewBox="0 0 595 842"><path fill-rule="evenodd" d="M-2216.6 1917.2c.7 0 1.2-.5 1.2-1.2v-6.9h5c.7 0 1.2-.5 1.2-1.2v-18.5c0-3.5-2.5-6.6-6-7.3h-.2v-4.2c0-7.6-6.2-13.9-13.9-13.9h-29c-7.6 0-13.9 6.2-13.9 13.9v4.2h-.2c-3.5.7-6 3.8-6 7.3v18.5c0 .7.5 1.2 1.2 1.2h5v6.9c0 .7.5 1.2 1.2 1.2h7.9c.7 0 1.2-.5 1.2-1.2v-6.9h36.2v6.9c0 .7.5 1.2 1.2 1.2h7.9zm-6.7-2.4v-5.7h5.5v5.7h-5.5zm-46.5 0v-5.7h5.5v5.7h-5.5zm58.2-8.1h-64.4v-17.3c0-2.8 2.3-5 5-5h54.3c2.8 0 5 2.3 5 5v17.3h.1zm-13.2-25c-.7-3.4-3.7-5.9-7.2-5.9s-6.5 2.5-7.2 5.9v.2h-30.5v-4.1c0-6.3 5.2-11.5 11.5-11.5h29c6.3 0 11.5 5.2 11.5 11.5v4.1h-7l-.1-.2zm-11.9-.1c.7-2 2.6-3.4 4.7-3.4s4 1.4 4.7 3.4l.1.4h-9.7l.2-.4zm16.2 20.7c-2.8 0-5.1-2.3-5.1-5.1s2.3-5.1 5.1-5.1 5.1 2.3 5.1 5.1-2.3 5.1-5.1 5.1zm0-8c1.5 0 2.8 1.2 2.8 2.8 0 1.5-1.2 2.8-2.8 2.8-1.5 0-2.8-1.2-2.8-2.8 0-1.5 1.2-2.8 2.8-2.8zm-9.4 8h-27.8c-.7 0-1.2-.5-1.2-1.2s.5-1.2 1.2-1.2h27.8c.7 0 1.2.5 1.2 1.2 0 .6-.5 1.2-1.2 1.2zm-37.1 0c-2.8 0-5.1-2.3-5.1-5.1s2.3-5.1 5.1-5.1 5.1 2.3 5.1 5.1-2.3 5.1-5.1 5.1zm0-8c1.5 0 2.8 1.2 2.8 2.8 0 1.5-1.2 2.8-2.8 2.8-1.5 0-2.8-1.2-2.8-2.8 0-1.5 1.3-2.8 2.8-2.8zm37.1 0h-27.8c-.7 0-1.2-.5-1.2-1.2s.5-1.2 1.2-1.2h27.8c.7 0 1.2.5 1.2 1.2s-.5 1.2-1.2 1.2zm22.7-34.7c.5 0 .9-.3 1.1-.7.3-.6 0-1.3-.6-1.6l-36.6-15.5c-.1-.1-.3-.1-.4-.1-.2 0-.3 0-.5.1l-36.6 15.5c-.4.2-.7.6-.7 1.1 0 .2 0 .3.1.5.3.6 1 .9 1.6.6l36.1-15.3 36.1 15.3c.1 0 .2.1.4.1z"/></svg>