<svg xmlns="http://www.w3.org/2000/svg" viewBox="0 0 595 842"><path fill-rule="evenodd" d="M-2339 1880c-5.8 3-11.7 6-17.5 8.9-.5.3-.6.9-.4 1.3.2.3.5.5.9.5.2 0 .3 0 .5-.1 5.8-2.9 11.6-5.9 17.4-8.8.2-.1.4-.3.5-.5.1-.3.1-.5-.1-.7 0-.1-.1-.1-.1-.2-.2-.4-.8-.6-1.2-.4zm13.5 15c-2.9 7.8-5.7 15.6-8.6 23.4-.2.5.1 1.1.6 1.3.1 0 .2.1.3.1.4 0 .8-.3.9-.6 2.9-7.8 5.7-15.6 8.5-23.4.2-.5-.1-1-.5-1.2h-.1c-.2-.1-.5-.1-.7 0-.2 0-.4.1-.4.4zm11.8-24.3c1.8 1.8 2.6 3.9 2.4 6.5-.2 1.9-1 3.7-2.4 5.1l-4.2 4.2-.3.3c.7 3-1.2 2.9-4.2 2.3-2.4-.7-5.1-2.8-6.9-4.6-1.6-1.6-3.2-3.6-4.1-5.6-.1-.3-.2-.5-.3-.8-.4-1.5-.6-2.9.3-4.2.3-.2 1-.4 1.4-.4.1 0 .2 0 .4-.1l.3-.3 1-1 .8-.8c-.3-.3-.6-.5-.9-.8-.2-.2-.3-.4-.3-.7v-9.3c0-4.4 3.6-8 8-8h2.2v-11.2h-35.4c-.5 0-1-.4-1-1 0-.5.4-1 1-1h52.3c.5 0 1 .4 1 1 0 .5-.4 1-1 1h-14.9v11.2h2.2c4.4 0 8 3.6 8 8v14.7c0 .5-.4 1-1 1h-1v-15.7c0-3.3-2.7-6.1-6.1-6.1h-6.4c-3.3 0-6.1 2.7-6.1 6.1v8.3c.2 1.7 1.6 0 1.8 0l.3-.3c3.2-2.8 8.1-2.6 11.1.4.8.6 1.4 1.2 2 1.8zm-10.7 8.9c-1.5-1.5-4.1-3.6-6.2-4.1-.3-.1-.6-.2-.9-.2-.2-.1-.4 0-.5.1-.1.1-.2.3-.1.5.1.3.2.6.2.9.6 2.1 2.6 4.7 4.1 6.2 1.5 1.5 4.1 3.6 6.2 4.1.4.1 1.1.4 1.5.1.1-.1.2-.3.1-.5-.1-.3-.2-.6-.2-.9-.6-2.1-2.6-4.7-4.2-6.2zm9.3 1.3c1.2-1.2 1.8-2.7 1.8-4.4 0-1.7-.6-3.2-1.8-4.4l-1.8-1.8c-2.4-2.4-6.4-2.4-8.8 0l-2.4 2.4-1.1 1.1c.4.2.9.5 1.3.7 1.7.9 3.4 2.3 4.8 3.7 1.4 1.4 2.7 3.1 3.7 4.8.2.4.5.9.7 1.3l1.1-1.1c.9-.7 1.7-1.5 2.5-2.3zm-18.6 8.7c.4-.3.9-.3 1.3.1l.1.1c.3.4.3.9-.1 1.3-3.6 3.2-7.2 6.5-10.8 9.7-.4.4-1 .3-1.4-.1-.4-.4-.3-1 .1-1.4 3.6-3.2 7.2-6.5 10.8-9.7z"/></svg>