<svg xmlns="http://www.w3.org/2000/svg" viewBox="0 0 595 842"><g fill-rule="evenodd"><path d="M-2301.4 1959.9c-6.7-2.6-11-8.8-11-15.9s4.3-13.4 11-15.9c.3-.1.5-.4.5-.8 0-.3-.2-.6-.5-.8-2.2-.8-4.4-1.3-6.7-1.3-10.3 0-18.8 8.4-18.8 18.8 0 10.3 8.4 18.8 18.8 18.8 2.3 0 4.6-.4 6.7-1.3.3-.1.5-.4.5-.8.1-.4-.2-.7-.5-.8zm-6.7 1.1c-9.4 0-17.1-7.7-17.1-17.1 0-9.4 7.7-17.1 17.1-17.1 1.4 0 2.8.2 4.1.5-2.6 1.4-4.9 3.4-6.6 5.9-2.2 3.2-3.4 6.9-3.4 10.7 0 3.9 1.2 7.6 3.4 10.7 1.7 2.5 4 4.5 6.6 5.9-1.3.3-2.7.5-4.1.5z"/><path d="M-2289.9 1950l-3.2-2.6.4-4.1c0-.3-.1-.6-.4-.8-.3-.2-.6-.2-.9 0l-3.5 2.2-3.8-1.6c-.3-.1-.6-.1-.9.1-.2.2-.3.5-.3.8l1 4-2.7 3.1c-.2.2-.3.6-.1.9.1.3.4.5.7.5l4.2.3 2.1 3.6c.2.3.4.4.7.4h.1c.3 0 .6-.2.7-.5l1.5-3.9 4.1-.9c.3-.1.5-.3.6-.6 0-.3-.1-.7-.3-.9zm-5.2.9c-.3.1-.5.2-.6.5l-1.1 2.7-1.5-2.5c-.1-.2-.4-.4-.7-.4l-2.9-.2 1.9-2.2c.2-.2.2-.5.2-.8l-.7-2.8 2.7 1.1c.3.1.5.1.8-.1l2.5-1.6-.3 2.9c0 .3.1.5.3.7l2.3 1.9-2.9.8zm-5-14.4l2 .1 1 1.7c.1.2.3.3.6.3h.1c.3 0 .5-.2.6-.4l.7-1.8 1.9-.4c.3-.1.5-.3.5-.5.1-.3 0-.5-.2-.7l-1.5-1.3.2-2c0-.3-.1-.5-.3-.6s-.5-.1-.7 0l-1.7 1.1-1.8-.8c-.2-.1-.5-.1-.7.1-.2.2-.3.4-.2.7l.5 1.9-1.3 1.5c-.2.2-.2.5-.1.7-.1.2.1.4.4.4zm2.2-2.6l-.2-.9.9.4c.2.1.4.1.6-.1l.8-.5-.1.9c0 .2.1.4.2.6l.7.6-.9.2c-.2.1-.4.2-.5.4l-.3.9-.5-.8c-.1-.2-.3-.3-.5-.3l-.9-.1.6-.7c.1-.1.2-.4.1-.6z"/></g></svg>