<svg xmlns="http://www.w3.org/2000/svg" viewBox="0 0 20.5 17.6"><path fill="#2B2A29" d="M10.2 1.7l-.3.6-.6.1.5.5-.2.5.6-.3.6.3-.2-.6.5-.5-.6-.1-.3-.5zm4.7 6.7h4.4c.3 0 .6.3.6.6v7.7h.2c.3 0 .5.2.5.5s-.2.5-.5.5H.5c-.3 0-.5-.2-.5-.5s.2-.5.5-.5h.2v-5.8c0-.3.3-.6.6-.6h4.4c.3 0 .6.3.6.6v5.8h1.2V5.9c0-.3.3-.6.6-.6h4.6c.4 0 .6.3.6.6v10.8h1.2V8.9c-.1-.3.1-.5.4-.5zM1.6 11.2v5.4h3.5v-5.4H1.6zm6.8-4.8v10.3h3.8V6.4H8.4zm6.9 2.9v7.3h3.6V9.3h-3.6zm-12-3l-.3.6-.6.1.5.4-.1.7.6-.3.6.3-.2-.7.5-.4-.7-.1-.3-.6zm13.9-1.8l-.3.5-.6.1.5.4-.1.7.6-.3.6.3-.1-.7.5-.4-.9-.1-.2-.5zm-7-4.5l.8 1.6 1.7.3-1.3 1.2.3 1.7-1.5-.8-1.5.8.3-1.7-1.3-1.3 1.7-.3.8-1.5zM3.3 4.6l.8 1.5 1.7.3-1.2 1.2.3 1.7-1.6-.7-1.6.8.3-1.7L.8 6.4l1.7-.3.8-1.5zm13.9-1.8l.8 1.5 1.7.3-1.2 1.2.3 1.7-1.5-.8-1.6.8.3-1.7-1.3-1.2 1.8-.3.7-1.5z"/></svg>