<svg xmlns="http://www.w3.org/2000/svg" viewBox="0 0 18.8 19.8"><path fill="#2B2A29" d="M13.9 6h1v.9h-1zm0 1.9h1v1h-1zm0 2h1v1h-1zm0 2h1v.9h-1zm0 3.9h1v1h-1zm0-1.9h1v1h-1zM6 6h.9v.9H6zm0 1.9h.9v1H6zm0 2h.9v1H6zm0 2h.9v.9H6zm0 3.9h.9v1H6zm0-1.9h.9v1H6zM3.9 6H5v.9H3.9zm0 1.9H5v1H3.9zm0 2H5v1H3.9zm0 2H5v.9H3.9zm0 3.9H5v1H3.9zm0-1.9H5v1H3.9zm4-7.9h1v.9h-1zm0 1.9h1v1h-1zm0 2h1v1h-1zm0 2h1v.9h-1zm0 3.9h1v1h-1zm0-1.9h1v1h-1z"/><path fill="#2B2A29" d="M18.3 18.8h-.5V5.4c0-.8-.6-1.5-1.3-1.8l-4.7-1.5V.5c0-.2-.1-.3-.2-.4 0-.1-.2-.1-.4-.1L2.3 2.7C1.6 3 1 3.7 1 4.5v14.3H.5c-.3 0-.5.2-.5.5 0 .2.2.5.5.5h17.8c.2 0 .5-.2.5-.5s-.2-.5-.5-.5zM16.2 4.6c.3.1.6.5.6.8v13.4h-5V3.2l4.4 1.4zM2 4.5c0-.3.3-.7.6-.8l8.3-2.5v17.6H2V4.5z"/></svg>