<svg xmlns="http://www.w3.org/2000/svg" viewBox="0 0 595 842"><path fill-rule="evenodd" d="M-2051.6 1767.2h-2.5c-.5 0-1 .4-1 1 0 .5.4 1 1 1h2.5c.5 0 1-.4 1-1-.1-.6-.5-1-1-1z"/><path fill-rule="evenodd" d="M-2097 1775.6c1.1 1.5 2.9 2.4 4.8 2.4s3.7-.9 4.8-2.4l.2-.3.2.3c1.1 1.5 2.9 2.4 4.8 2.4s3.7-.9 4.8-2.4l.2-.3.2.3c.9 1.2 2.2 2 3.6 2.3l.2.1v11.8c0 .5.4 1 1 1s1-.4 1-1V1778l.3-.1c1.5-.3 2.7-1.1 3.6-2.3l.2-.3.2.3c1.1 1.5 2.9 2.4 4.8 2.4s3.7-.9 4.8-2.4l.2-.3.2.3c1.1 1.5 2.9 2.4 4.8 2.4s3.7-.9 4.8-2.4l.2-.3.2.3c.2.3.5.6.8.9 1.1 1 2.6 1.6 4.1 1.6h.6c3.1-.3 5.5-3.1 5.5-6.2v-1.5c0-1.7-1-3.2-2.5-3.8l-27.5-11.8c-2-.9-4.2-1.3-6.4-1.3s-4.4.4-6.4 1.3l-27.5 11.8c-1.5.7-2.5 2.2-2.5 3.8v1.5c0 3.1 2.3 5.9 5.5 6.2 1.7.2 3.4-.4 4.7-1.5.3-.3.5-.5.8-.9l.2-.3.5.2zm51.4-3.6c0-.5-.4-1-1-1-.5 0-1 .4-1 1 0 2.3-1.8 4.1-4.1 4.1s-4.1-1.8-4.1-4.1c0-.5-.4-1-1-1-.5 0-1 .4-1 1 0 2.3-1.8 4.1-4.1 4.1s-4.1-1.8-4.1-4.1c0-.5-.4-1-1-1-.5 0-1 .4-1 1 0 2.3-1.8 4.1-4.1 4.1s-4.1-1.8-4.1-4.1c0-.5-.4-1-1-1-.5 0-1 .4-1 1 0 2.3-1.8 4.1-4.1 4.1s-4.1-1.8-4.1-4.1c0-.5-.4-1-1-1-.5 0-1 .4-1 1 0 2.3-1.8 4.1-4.1 4.1s-4.1-1.8-4.1-4.1c0-.5-.4-1-1-1s-1 .4-1 1c0 1.1-.5 2.2-1.3 3-.9.8-2 1.2-3.1 1-2.1-.2-3.7-2.2-3.7-4.3v-1.5c0-.3.1-.7.2-1l.1-.2h46.8c.5 0 1-.4 1-1 0-.5-.4-1-1-1h-43.3l25-10.7c3.6-1.5 7.7-1.5 11.3 0l25 10.7h-5.3c-.5 0-1 .4-1 1 0 .5.4 1 1 1h8.8l.1.2c.1.3.2.6.2 1v1.5c0 2.1-1.5 4.1-3.7 4.3-1.2.1-2.3-.3-3.1-1-.5-.8-1-1.9-1-3z"/><path fill-rule="evenodd" d="M-2041.5 1824.1h-29.4v-15.3h.3c5.2.4 9.7 3.7 11.8 8.6.6 1.4 1.9 2.3 3.4 2.3.5 0 1-.1 1.4-.3.9-.4 1.6-1.1 2-2 .4-.9.4-1.9 0-2.8-.7-1.6-1.6-3.2-2.6-4.6v-.1c-2.4-3.5-3.1-7.9-1.8-12l.1-.4.3.2c1.7 1.1 4.7 2.6 6.6 1.4 1.3-.9 1.5-2.2 1.1-3.6-.4-1.3-1.3-2.7-2-3.9l-.1-.2c-1.1-1.8-1.4-3.8-1.2-6 0-.6-.1-1.1-.7-1.3-5.3-1.7-8.2 1.4-11.4 5-2 2.4-4.3 5.2-7.8 4.5-3.2-.6-8.1-1.2-11 .6l-.1.1-.1-.1c-2.1-1.1-4.4-1.6-6.7-.7-3.3 1.4-5.6 5.7-6.3 9-.1.3 0 .7.2.9.5.6 1.2 1.2 1.8 1.7 1 .8 2.5 1.8 3.8 1.4 1-.3 1.4-1.2 1.6-2.2.2-1.4 1-3.8 2.5-4.3.5-.2 1 0 1.4.4.8.7.1 2.4-.2 3.3-.8 1.8-2 3.5-3.1 5.1l-.9 1.2c-1.1 1.4-2 3-2.6 4.6-.4.9-.4 1.9 0 2.8.4.9 1.1 1.6 2 2 1.9.8 4.1-.1 4.8-2 2-4.8 6.4-8 11.5-8.6h.3v15.2h-29.4c-1.9 0-3.5 1.6-3.5 3.5v5.1c0 .5.4 1 1 1h65.8c.5 0 1-.4 1-1v-5.1c-.3-1.8-1.9-3.4-3.8-3.4zm-45-7.4c-.4.9-1.4 1.3-2.3.9-.4-.2-.8-.5-.9-.9-.2-.4-.2-.9 0-1.3.6-1.5 1.4-2.8 2.3-4.1l.1-.1c.3-.4.6-.9.9-1.3 1.7-2.4 6-8.2 3.1-10.9-.9-.8-2.1-1.2-3.3-.7-2.2.8-3.4 3.7-3.8 5.9 0 .1-.1.3-.1.4l-.1.2h-.2c-.8-.1-2.3-1.4-2.9-2l-.1-.1.1-.2c.3-.9.6-1.8 1-2.6.8-1.7 2.1-3.6 4-4.3 1.9-.8 4-.1 5.6 1 .4.3.9.2 1.2-.2.6-.5 1.7-.8 2.4-.9 2.4-.5 5.2-.1 7.6.3.5.1 1 .2 1.5.2 3.6 0 6-2.8 8.2-5.3 2.2-2.6 4.5-5.4 8.3-4.7h.2v.2c-.1 2.2.4 4.4 1.6 6.3l.1.2c.6 1 1.5 2.3 1.8 3.5.2.6.3 1.1-.3 1.4-1.3.8-4.7-1.4-5.7-2.2-.2-.2-.5-.3-.8-.2-.3.1-.5.3-.7.5-1 2-1.4 4.5-1.4 6.7 0 3.2 1 6.3 2.8 8.9 0 0 0 .1.1.1.9 1.3 1.7 2.7 2.3 4.1.2.4.2.9 0 1.3s-.5.8-.9.9c-.2.1-.4.1-.7.1-.7 0-1.3-.4-1.6-1.1-2.5-6-8.3-9.8-14.8-9.8-6.3 0-12.1 3.9-14.6 9.8zm46.5 15h-63.8v-4.1c0-.9.7-1.5 1.5-1.5h60.7c.9 0 1.5.7 1.5 1.5v4.1z"/></svg>