<svg xmlns="http://www.w3.org/2000/svg" viewBox="0 0 15.7 17.4"><path fill="#2B2A29" d="M1.4 2.8c-.3 0-.5.2-.5.5v2.4c0 .3.2.5.5.5h7.2c.7 0 1.3.6 1.3 1.3v1.7h.7c.5 0 .9.4.9.9 0 .4-.3.8-.7.9v4.4c.4.1.7.5.7.9 0 .5-.4.9-.9.9H8.3c-.5 0-.9-.4-.9-.9 0-.4.3-.8.7-.9V11c-.4-.1-.7-.5-.7-.9 0-.5.5-.9.9-.9H9V7.6c0-.3-.2-.5-.5-.5H1.4C.6 7.1 0 6.5 0 5.7V3.3c0-.7.6-1.4 1.4-1.4v-1c0-.5.4-.9 1-.9h12.4c.5 0 .9.4.9.9v3.4c0 .5-.4.9-.9.9H2.4c-.5 0-.9-.4-.9-.9V2.8zM9 11.2v4.4c.2 0 .4.2.4.4 0 .3-.2.4-.5.4h-.6l-.1.1.1.1h2.4c.1 0 .1-.1.1-.1s0-.1-.1-.1h-.2c-.3 0-.5-.1-.5-.4v-5.2c0-.3.2-.5.5-.5h.3c0-.1 0-.1-.1-.1H8.3s-.1 0-.1.1h.7c.3 0 .5.2.5.5 0 .2-.2.4-.4.4zm5.9-6.9V.9H2.3v3.4h12.6zM12 1.5c.2 0 .3.1.3.3 0 .2-.1.3-.3.3H4.6c-.2 0-.4-.1-.4-.4 0-.1.1-.3.3-.3H12zm2.1.2c0 .2-.1.3-.3.3h-.3c-.1 0-.3-.1-.3-.3 0-.1.1-.3.3-.3h.3c.2.1.3.2.3.3z"/></svg>