<svg version="1.2" baseProfile="tiny" xmlns="http://www.w3.org/2000/svg" viewBox="0 0 26.1 25.5"><path fill-rule="evenodd" d="M21.2 11.7V2.2c0-1-2.1-.6-4.3-.6 0-.7.2-1.6-.6-1.6H6.2c-.8 0-.6 1-.6 1.6-2 0-4.5-.4-4.5.6v22.1c-1.6 0-1 1.2-.4 1.2h18.2-.1c8.3.1 10.1-11.2 2.4-13.8zm-6.4 12.6h-3.1c0-2.2.4-4.8-.6-4.8s-.6 2.6-.6 4.8H6.8V1.2h8.9V12c-.6.3-1.2.7-1.6 1.1-1-.5-.9 1-.9 1-.9 1.2-1.5 2.7-1.5 4.3 0 2.5 1.2 4.7 3.1 5.9zm2.1-12.7V2.8H20v8.6h.1c-.4-.1-.7-.1-1.1-.1 0-.7.2-1.6-.6-1.6s-.6 1-.6 1.7c-.3 0-.6.1-.9.2zm2 .9c7.9 0 7.9 11.8 0 11.8s-7.9-11.8 0-11.8zM5.6 24.3H2.3V2.8h3.3v21.5zM18.4 7.7c-.8 0-.6-1.2-.6-2.3 0-.8 1.2-.8 1.2 0 0 1.1.2 2.3-.6 2.3zm-9.8 5.4c.8 0 .6 1.2.6 2.3 0 .8-1.2.8-1.2 0 0-1.1-.2-2.3.6-2.3zm0 4.9c.8 0 .6 1.2.6 2.3 0 .8-1.2.8-1.2 0 0-1.1-.2-2.3.6-2.3zm0-9.9c.8 0 .6 1.2.6 2.3 0 .8-1.2.8-1.2 0 0-1.1-.2-2.3.6-2.3zm0-4.8c.8 0 .6 1.2.6 2.3 0 .8-1.2.8-1.2 0 0-1.1-.2-2.3.6-2.3zm2.6 9.8c.8 0 .6 1.2.6 2.3 0 .8-1.2.8-1.2 0 0-1.1-.3-2.3.6-2.3zm0-5c.8 0 .6 1.2.6 2.3 0 .8-1.2.8-1.2 0 0-1.1-.3-2.3.6-2.3zm0-4.8c.8 0 .6 1.2.6 2.3 0 .8-1.2.8-1.2 0 0-1.1-.3-2.3.6-2.3zm2.5 7.7c-.8 0-.6-1.2-.6-2.3 0-.8 1.2-.8 1.2 0 .1 1.1.3 2.3-.6 2.3zm0-4.8c-.8 0-.6-1.2-.6-2.3 0-.8 1.2-.8 1.2 0 .1 1.1.3 2.3-.6 2.3zM4.1 17.5c-.8 0-.6-1.2-.6-2.3 0-.8 1.2-.8 1.2 0 0 1.1.3 2.3-.6 2.3zm0 5c-.8 0-.6-1.2-.6-2.3 0-.8 1.2-.8 1.2 0 0 1.1.3 2.3-.6 2.3zm0-9.9c-.8 0-.6-1.2-.6-2.3 0-.8 1.2-.8 1.2 0 0 1.1.3 2.3-.6 2.3zm0-4.9c-.8 0-.6-1.2-.6-2.3 0-.8 1.2-.8 1.2 0 0 1.1.3 2.3-.6 2.3z"/><path fill-rule="evenodd" d="M22.3 17.1l-.6-.6c-.1-.1-.1-.1-.2-.1s-.1 0-.2.1l-3.2 3.1-1.5-1.5c-.1-.1-.1-.1-.2-.1s-.1 0-.2.1l-.6.6c-.1.1-.1.1-.1.2s0 .1.1.2l2.3 2.3c.1.1.1.1.2.1s.1 0 .2-.1l4-3.9c.1-.1.1-.1.1-.2 0 0-.1-.1-.1-.2z"/></svg>