<svg xmlns="http://www.w3.org/2000/svg" viewBox="0 0 19.7 19.5"><g fill="#2B2A29"><path d="M19.2 18.5H19V9.7c0-.6-.5-1.1-1.1-1.1h-1.4V4.8c0-.6-.5-1.1-1.1-1.1h-3.9V1.1c0-.6-.4-1.1-1.1-1.1H1.8C1.2 0 .7.5.7 1.1v17.4H.5c-.3 0-.5.2-.5.5s.2.5.5.5h18.7c.3 0 .5-.2.5-.5s-.3-.5-.5-.5zm-8.6 0h-4v-3.7h-.9v3.7h-4V.9h8.9v17.6zm5 0h-4V4.6h4v13.9zm2.4 0h-1.5V17H18v1.5zm0-2.5h-1.5v-1.5H18V16zm0-2.4h-1.5v-1.5H18v1.5zm0-2.5h-1.5V9.6H18v1.5z"/><path d="M13.1 16h.9v.9h-.9zm0-2.4h.9v.9h-.9zm0-2.5h.9v.9h-.9zm0-2.5h.9v1h-.9zm0-2.4h.9v.9h-.9zm-7.4 6.1h.9v.9h-.9zM3.2 7.4h1v.9h-1zm2.5 0h.9v.9h-.9zm2.4 0H9v.9h-.9zm-4.9 7.4h1v.9h-1zm4.9 0H9v.9h-.9zm-4.9-2.5h1v.9h-1zm4.9 0H9v.9h-.9zM3.2 9.9h1v.9h-1zm2.5 0h.9v.9h-.9zm2.4 0H9v.9h-.9zM3.2 2.5h1v.9h-1zm2.5 0h.9v.9h-.9zm2.4 0H9v.9h-.9zM3.2 5h1v.9h-1zm2.5 0h.9v.9h-.9zm2.4 0H9v.9h-.9z"/></g></svg>