<svg xmlns="http://www.w3.org/2000/svg" viewBox="0 0 595 842"><path fill-rule="evenodd" d="M-2009.8 1777.4l-2.4-.9c-.5-.2-1.1.1-1.3.6-.2.5.1 1.1.6 1.3l2.4.9c.1 0 .2.1.3.1.4 0 .8-.3 1-.7.2-.6-.1-1.1-.6-1.3z"/><path fill-rule="evenodd" d="M-1944.7 1786.3c-.1-1.5-1.5-2.4-2.7-2.8l-65.6-23.9c-3.2-1.2-6.8.5-8 3.7l-5.8 15.9c-1.2 3.2.5 6.8 3.7 8l19.3 7v.2c-.3 2.1.2 4.2 1.5 5.8l.1.1-4.1 11.3c-.2.6-.8 1-1.5 1h-12.2v-4.2c0-2-1.6-3.6-3.6-3.6h-2.6c-.6 0-1 .5-1 1v20.8c0 .6.5 1 1 1h2.6c2 0 3.6-1.6 3.6-3.6v-4.2h12.2c3.7 0 7-2.3 8.3-5.8l4-11.1h.2c2.3-.3 4.2-1.6 5.4-3.6l.1-.2 22.6 8.2c.7.2 1.4.4 2.1.4 2.2 0 4.2-1.1 5.3-3l.1-.2 2.8 1c.3.1.5.1.8.1.3 0 .7-.1 1-.2.6-.3 1-.7 1.2-1.3l3.6-9.8c.4-1 0-2.2-1-2.8l-.5-.3 4.6-2.2c1.2-.2 2.6-1.2 2.5-2.7zm-77.3 37.9c0 .9-.7 1.6-1.6 1.6h-1.6V1807h1.6c.9 0 1.6.7 1.6 1.6v15.6zm20.6-10.7c-1 2.7-3.5 4.5-6.4 4.5h-12.2v-3.2h12.2c1.5 0 2.9-1 3.4-2.4l3.8-10.6.3.2c.4.3.9.5 1.3.6.3.1.7.2 1 .3l.3.1-3.7 10.5zm5.3-12.4c-.1 0-.1 0 0 0-.8 0-1.4-.1-2.1-.3-.7-.3-1.4-.7-2-1.2l-.1-.1c-1-1.1-1.6-2.6-1.5-4.1v-.4l10.1 3.7-.2.3c-1 1.2-2.6 2-4.2 2.1zm43.9-7.5l-3.7 10.3-3-1.1 3.5-9.6.9-.4 2.3.8zm4.2-6.1l-10.6 4.9c-2.4 1.1-6.4 1.3-8.8.4l-37.6-13.6c-.5-.2-1.1.1-1.3.6-.2.5.1 1.1.6 1.3l37.6 13.6c1.4.5 3 .7 4.5.7 1.7 0 3.5-.2 5.1-.8l.6-.2-3.2 8.7c-.8 2.2-3.2 3.3-5.4 2.5l-55.9-20.3c-2.2-.8-3.3-3.2-2.5-5.4l2.4-6.6.3.5c.7 1.1 1.8 2 3.1 2.4l1.2.4c.5.2 1.1-.1 1.3-.6.2-.5-.1-1.1-.6-1.3l-1.2-.4c-2.2-.8-3.3-3.2-2.5-5.4l1.8-4.9c.8-2.2 3.2-3.3 5.4-2.5l65.6 23.9c.4.1 1.1.5 1.4.9l.1.1-.1.1c-.2.4-.9.8-1.3 1z"/></svg>