<svg version="1.2" baseProfile="tiny" xmlns="http://www.w3.org/2000/svg" viewBox="0 0 26.7 26.2"><path fill-rule="evenodd" d="M18.9 13.2c0-.7.4-1.4 1-1.7.9-.5 1.5-1.4 1.5-2.5V8h2.7c.2 0 .5-.1.6-.4.1-.2.1-.5-.1-.7l-2.5-3.3c-.1-.2-.3-.3-.5-.3H9.3L7 .3C6.9.1 6.7 0 6.5 0H4c-.4 0-.7.3-.7.6v2.7H.6c-.3 0-.6.3-.6.7v3.3c0 .4.3.7.6.7h2.7v17.6h-.1c-.4 0-.6.3-.6.6 0 .4.3.6.6.6h6.7c.4 0 .6-.3.6-.6 0-.4-.3-.6-.6-.6h-.2V8h10.4v1c0 .5-.3 1.1-.7 1.3-1.1.5-1.8 1.6-1.8 2.8 0 1.7 1.4 3.1 3.2 3.1 1.7 0 3.2-1.4 3.2-3.1 0-.4-.3-.6-.6-.6-.4 0-.6.3-.6.6 0 1-.8 1.9-1.9 1.9-1.2 0-2-.8-2-1.8zM16 6.7l-1.5-2.1h2.6l1.5 2.1H16zM4.6 1.3h1.5l1.5 2.1h-3V1.3zm3.8 3.3v2.1H4.6V4.6h3.8zM1.3 6.7V4.6h2.1v2.1H1.3zm3.3 9.6h3.7V20H4.6v-3.7zM8.4 15H4.6v-3.7h3.7V15h.1zM4.6 25.6v-4.2h3.7v4.2H4.6zM8.4 10H4.6V8h3.7v2h.1zm1.3-5.4h3.2l1.5 2.1H9.7V4.6zm10.5 2.1l-1.5-2.1h2.6l1.5 2.1h-2.6zm-7.4 15.6h3v-3.4h10.9v7.9H12.8v-4.5zm4.1-2.2h5.2v2.2h-5.2v-2.2zm2.3 5.6H14v-2.2h5.2v2.2zm6.3 0h-5.2v-2.2h5.2v2.2zm0-3.4h-2.2v-2.2h2.2v2.2z"/></svg>