<svg xmlns="http://www.w3.org/2000/svg" viewBox="0 0 595 842"><path fill-rule="evenodd" d="M-2140.9 1821.3c-.5-.8-1.2-1.5-1.9-2.2l-.1-.1v-4.4h.1c9.1-.7 16.1-8.3 16.1-17.4 0-6.8-2-14.7-4.9-20.8-2.2-4.7-6.5-11.9-12.5-11.9-3.2 0-5.9 2-7.9 4.4l-.1.2-.1-.2c-.2-.4-.3-.7-.5-1.1-2.7-5.7-8-14.6-15.3-14.6-7.3 0-12.6 8.8-15.3 14.6-3.5 7.6-6 17.3-6 25.6 0 11.2 8.8 20.6 20 21.2h.1v6.9h-.2c-.8-.2-1.6-.3-2.5-.3-6.2 0-11.2 5-11.2 11.2 0 .6.5 1.1 1.1 1.1h50.4c.6 0 1.1-.5 1.1-1.1 0-5.9-4.7-10.9-10.6-11.2l.2.1zm-9.3-5c-2.5 0-5 .9-7 2.5l-.1.1v.1h-.1c-.5-.1-1.1-.1-1.6-.1-2.7 0-5.3.8-7.5 2.2l-.2.1v-6.5h.1c4.1-.2 8-1.6 11.3-4l.1-.1.1.1c2.8 2.4 6.3 3.8 10 4h.1v2.9l-.2-.1c-1.6-.8-3.3-1.2-5-1.2zm.6-11.8l4.6 4.6v3.4h-.2c-3-.2-5.8-1.3-8.2-3.2l-.1-.1.1-.1c1.4-1.3 2.6-2.8 3.7-4.4l.1-.2zm5.6-37.6c4.9 0 8.8 6.8 10.5 10.6 2.7 5.8 4.7 13.5 4.7 19.9 0 7.8-6 14.4-13.8 15.1h-.2v-7.2l6.6-6.6c.4-.4.4-1.1 0-1.6-.4-.4-1.1-.4-1.6 0l-5 5v-3.6c0-.6-.5-1.1-1.1-1.1-.6 0-1.1.5-1.1 1.1v7.4l-3.1-3.1c-.1-.1-.2-.2-.3-.2l-.1-.1.1-.1c1.3-2.8 1.9-5.8 1.9-8.9 0-7.2-1.8-15.2-4.4-21.9v-.2c1.6-2 4.1-4.5 6.9-4.5zm-42.9 26.6c0-7.9 2.5-17.5 5.8-24.7 2.2-4.8 7.1-13.3 13.2-13.3 6.2 0 11 8.5 13.2 13.3 3.3 7.2 5.8 16.8 5.8 24.7 0 5.6-2.5 10.9-6.8 14.6-.2.1-.3.2-.4.3 0 .1-.1.1-.1.2-3 2.3-6.6 3.7-10.4 3.9h-.2v-11l7.2-7.2c.4-.4.4-1.1 0-1.6-.4-.4-1.1-.4-1.6 0l-5.7 5.7v-14.9c0-.6-.5-1.1-1.1-1.1-.6 0-1.1.5-1.1 1.1v8.6l-3.1-3.1c-.4-.4-1.1-.4-1.6 0-.4.4-.4 1.1 0 1.6l4.7 4.7v9.4l-6.9-6.9c-.4-.4-1.1-.4-1.6 0-.4.4-.4 1.1 0 1.6l8.2 8.2.2.2h.1v4.8h-.2c-9.8-.7-17.6-9.1-17.6-19.1zm6.4 37.8c.6-4.4 4.4-7.7 8.9-7.7 1.2 0 2.5.3 3.6.8.4.2.9.1 1.2-.2 2.1-2 4.9-3.1 7.8-3.1 5.8 0 10.8 4.4 11.4 10.2v.2h-32.9v-.2zm35.1 0c-.5-5.2-3.9-9.7-8.8-11.6l-.3-.1.3-.1c1.2-.6 2.6-.9 4-.9 3.2 0 6.2 1.7 7.8 4.5.2.3.6.6 1 .6h.1c4.4 0 8.2 3.3 8.8 7.7v.2h-12.9v-.3z"/></svg>