<svg xmlns="http://www.w3.org/2000/svg" viewBox="0 0 595 842"><path fill-rule="evenodd" d="M-2159.4 1890.8l2.1-.3v-.6c0-1.9-.8-4-2.1-5.4-1.5-1.5-3.6-2.1-5.7-2.1-2 0-4 .5-5.4 2-1.3 1.4-2.1 3.6-2 5.5v8.6c0 1-.7 1.7-1.7 1.7h-13.5c-1.5 0-2.5-1.1-2.3-2.5v-27.2c0-1-.6-1.9-1.6-2.2-1-.3-1.3-1.4-.4-2.1l26.1-20.4c.3-.2.7-.4 1-.4.4 0 .9.3 1.2.5l26.1 20.4.1.1c.7.8.4 1.7-.6 2-1 .3-1.6 1.2-1.6 2.2v1.8l2.1-.3v-.4c0-.7.6-1.3 1.3-1.3h2.9c.7 0 1.4-.3 1.6-.9.2-.7-.1-1.3-.7-1.7l-5.4-4.2c-.5-.4-.7-.9-.7-1.5v-9.7c0-1.3-1-2.3-2.3-2.3h-6.2c-1.1 0-2.3.9-2.3 2.1 0 1.1-1 1.6-1.9 1l-12-9.3c-.5-.4-1.1-.5-1.6-.5-.6 0-1.2.2-1.6.5l-30.8 24c-.4.3-.7.7-.7 1.3v.1c0 .1 0 .3.1.4.2.7.9.9 1.6.9h2.6c.9 0 1.6.8 1.6 1.7v28.1c0 1.3 1 2.3 2.3 2.3h17.1c1.3 0 2.3-1 2.3-2.3v-10.2c-.1-1.3.6-3.1 1.5-4 1-1.1 2.5-1.4 3.9-1.4 3.3 0 5.7 2 5.8 5.4-.2.1-.2.3-.2.6zm2.9 22.6c.5.1 1 .1 1.5.1h21c.6 0 1.1.5 1.1 1.1 0 .6-.5 1.1-1.1 1.1h-21c-.7 0-1.3-.1-2-.2-5.4-1.2-9-6.3-8.4-11.8.3-2.4 1.4-4.5 3.3-6 1.8-1.5 4.2-2.2 6.6-1.9 4 .4 6.9 4.1 6.5 8.1-.4 3.3-3.4 5.8-6.7 5.4-1.4-.2-2.6-.8-3.4-1.9-.8-1.1-1.2-2.4-1.1-3.8.1-1.1.7-2.2 1.6-2.9.9-.7 2-1 3.2-.9.6.1 1 .6 1 1.2-.1.6-.6 1-1.2 1-.6-.1-1.1.1-1.6.5-.4.4-.7.9-.8 1.4-.1.8.1 1.5.6 2.2.5.6 1.2 1 2 1.1 2.1.2 4.1-1.3 4.3-3.5.3-2.8-1.8-5.4-4.6-5.7-1.8-.2-3.6.3-5 1.4a6.62 6.62 0 0 0-2.5 4.5c-.6 4.4 2.3 8.5 6.7 9.5zm19.9-12c.7.1 1.4.2 2.1.2h15.9c.6 0 1.1.5 1.1 1.1 0 .6-.5 1.1-1.1 1.1h-15.9c-.9 0-1.8-.1-2.6-.3-7.2-1.6-12-8.4-11.2-15.7.4-3.1 1.9-5.9 4.4-7.9 2.4-2 5.6-2.9 8.7-2.5 5.3.6 9.1 5.4 8.5 10.7-.5 4.3-4.5 7.5-8.8 7-3.6-.4-6.2-3.7-5.8-7.3.3-3 3.1-5.2 6.1-4.8.6.1 1 .6 1 1.2-.1.6-.6 1-1.2 1-1.8-.2-3.4 1.1-3.6 2.9-.3 2.4 1.5 4.6 3.9 4.9 3.1.4 6-2 6.4-5.1.5-4.1-2.5-7.8-6.6-8.3-2.5-.3-5.1.5-7.1 2-2 1.6-3.3 3.9-3.6 6.5-.9 6.1 3.2 11.9 9.4 13.3zm-10.8-48.2c0-.6.5-1.1 1.1-1.1h4.5c.6 0 1.1.4 1.1 1.1v5.9c0 .8-.8 1.4-1.6.9l-4.5-3.4c-.4-.3-.6-.7-.6-1.2v-2.2z"/></svg>