<svg style="display:none"><symbol viewBox="0 0 64 64" id="angle-frame"><path fill-rule="evenodd" stroke="#000" stroke-width=".216" stroke-miterlimit="22.926" d="M17.1 0H0v64h1V34h1v30h1V34h1v30h1V34h1v30h1V34h27V7h30V6H34V5h30V4H34V3h30V2H34V1h30V0H17.1zM32 1h1v1h-1V1zm0 2h1v1h-1V3zm-2-2h1v4h2v1h-3V1zm0 6h3v1h-3V7zm-2-6h1v5h-1V1zm0 6h1v1h-1V7zm-1 1h-1V7h1v1zm-1-7h1v1h-1V1zm0 2h1v3h-1V4 3zm1 6v7l-2.4-2.4-2.5 2.5-.8-.8 4.7-4.7V9h1zm-.6 8l-1.7 1.7L23 17l1.7-1.7 1.7 1.7zm-9.3 9.3l-1.8-1.7 1.8-1.7 1.7 1.7-1.7 1.7zm0-5.1l-.9-.8.9-.8.8.8-.8.8zm-1.8-3.4l.8.8-.8.8-.8-.8.8-.8zm-1.7 0l-.9-.8.8-.8.8.8-.7.8zm.8-2.5l.8-.8.8.8-.8.8-.8-.8zm2.7-.9l-.9-.8.9-.8.8.8-.8.8zM25 8h-1.6l-4.7 4.7-.8-.8 2.5-2.5L18.1 7h7c-.1.3-.1.7-.1 1zm-7.9-.3l1.7 1.7-1.7 1.7-1.8-1.7 1.8-1.7zm1.6 8.4l-.8-.8.8-.8.8.8-.8.8zm.9 2.6l-.8.8-.8-.8.8-.8.8.8zm.8-2.6l.8.8-.8.8-.8-.7.8-.9zm0-1.7l-.8-.8L24.2 9h.8c0 1.1.2.6-1.2 2.1l-3.4 3.3zM23 1h2v1h-2V1zm-2 0h1v1h-1V1zm-7 0h6v1h-6V1zm-2 0h1v1h-1V1zM9 1h2v1H9V1zm0 2h16v1H9V3zm0 2h16v1H9V5zm0 2h7l-2.4 2.4 2.5 2.5-.8.8L10.5 8H9V7zm.8 2l4.6 4.6-.8.8L9 9.8V9h.8zM7 1h1v1H7V1zm0 4V3h1v3H7V5zm0 2h1v1H7V7zm1 2v1.6l4.7 4.7-.8.8-2.5-2.5L7 16V9h1zm3.1 8l-1.7 1.7L7.7 17l1.7-1.7 1.7 1.7zM5 1h1v5H5V1zm0 6h1v1H5V7zM1 1h1v1H1V1zm0 2h1v1H1V3zm0 2h2V1h1v5H1V5zm0 2h3v1H1V7zm0 5v-1h1v2H1v-1zm0 5v-3h1v6H1v-3zm1 4v2H1v-2h1zm0 12H1v-1h1v1zm0-2H1v-1h1v1zm2 2H3v-4H1v-1h3v5zm0-6H1v-1h3v1zm0-2H1v-1h2V10H1V9h3v16zm2 8H5v-5h1v5zm0-6H5v-1h1v1zm0-2H5V9h1v16zm1 1h1v1H7v-1zm1 7H7v-1h1v1zm0-2H7v-3h1v3zm0-6H7v-7l2.4 2.4 2.5-2.5 4.2 4.2-2.5 2.5L16 27H9v-1h1.6l4.7-4.7-.8-.8L9.8 25H9v-.9l4.6-4.6-.8-.8L8 23.4V25zm3 8H9v-1h2v1zm2 0h-1v-1h1v1zm7 0h-6.1v-1H20v1zm2 0h-1v-1h1v1zm3 0h-2v-1h2v1zm0-2H9v-1h16v1zm0-2H9v-1h16v1zm0-2h-7l2.4-2.4-2.5-2.5.8-.8 4.8 4.8H25v.9zm-.8-2l-4.6-4.6.8-.8 4.6 4.6v.9c-.2-.1-.5-.1-.8-.1zm2.8 8h-1v-1h1v1zm0-4v2h-1v-3h1v1zm0-2h-1v-1h1v1zm-1-2v-1.6l-4.7-4.7.8-.8 2.5 2.5L27 18v7h-1zm3 8h-1v-5h1v5zm0-6h-1v-1h1v1zm0-2h-1V9h1v16zm4 8h-1v-1h1v1zm0-2h-1v-1h1v1zm0-2h-2v4h-1v-5h3v1zm0-2h-3v-1h3v1zm0-2h-3V9h3v1h-2v14h2v1zm0-14v2h-1v-2h1zm0 11v1h-1v-2h1v1zm0-5v3h-1v-6h1v3z"/></symbol><symbol viewBox="0 0 16 8" id="arrow_lan"><path d="M16 .6c0-.1-.1-.3-.2-.4-.2-.2-.6-.2-.8 0L8 6.7 1 .2C.8 0 .4 0 .2.2 0 .4 0 .8.1.9l7.4 6.9c.2.2.6.2.8 0L15.7.9c.2-.1.3-.2.3-.3z"/></symbol><symbol viewBox="0 0 22.1 21.7" id="search"><path d="M9 17.9c-2.4 0-4.7-.9-6.4-2.6-3.5-3.5-3.5-9.2 0-12.7C4.3.9 6.6 0 9 0s4.7.9 6.4 2.6c3.5 3.5 3.5 9.2 0 12.7-1.7 1.7-4 2.6-6.4 2.6zM9 1.4c-2 0-3.9.8-5.3 2.2-2.9 2.9-2.9 7.7 0 10.6C5.1 15.6 7 16.4 9 16.4s3.9-.8 5.3-2.2c2.9-2.9 2.9-7.7 0-10.6C12.9 2.2 11 1.4 9 1.4z"/><path d="M21.2 21.7c-.2 0-.4-.1-.5-.2l-6.2-6.2c-.3-.3-.3-.8 0-1.1.3-.3.8-.3 1.1 0l6.2 6.2c.3.3.3.8 0 1.1-.2.2-.4.2-.6.2z"/></symbol></svg>