<svg style="display:none"><symbol viewBox="0 0 20 20" id="call"><path d="M15.9 20c-1.8 0-3.6-.5-5.6-1.5-1.8-.9-3.5-2.2-5.1-3.8s-2.9-3.3-3.7-5.1C.5 7.7 0 5.8 0 4c0-1.1 1-2.2 1.5-2.7C2.2.7 3.2 0 4 0c.4 0 .8.2 1.4.7.4.4.9 1 1.4 1.6.3.4 1.7 2.3 1.7 3.2 0 .7-.8 1.3-1.7 1.9-.4.2-.7.4-1 .6-.3.2-.3.4-.3.4 1 2.4 3.8 5.3 6.2 6.2 0 0 .1-.1.4-.3.2-.2.4-.6.7-1 .5-.9 1-1.7 1.8-1.7.9 0 2.8 1.4 3.2 1.7.6.4 1.2 1 1.5 1.4.5.6.7 1 .7 1.4 0 .7-.7 1.8-1.3 2.4-.6.4-1.7 1.5-2.8 1.5zM4 1c-.3 0-1 .3-1.8 1C1.5 2.7 1 3.5 1 4c0 6.7 8.2 15 14.9 15 .5 0 1.2-.4 1.9-1.2.7-.8 1-1.5 1-1.8 0-.2-.6-1-2-2-1.2-1-2.2-1.5-2.5-1.5l-.4.4c-.2.2-.4.6-.6.9-.6.9-1.1 1.8-1.8 1.8-.1 0-.2 0-.4-.1-2.6-1-5.7-4.1-6.8-6.7 0-.4 0-.9.6-1.4.3-.3.8-.6 1.2-.8.3-.2.7-.4 1-.6.3-.2.3-.4.4-.4 0-.2-.5-1.3-1.5-2.5C4.9 1.6 4.1 1 4 1zm9.2 5.9h5c.2 0 .4-.2.4-.4s-.2-.4-.4-.4h-4l4.4-4.4c.1-.1.1-.4 0-.7-.1-.1-.4-.1-.7 0l-4.4 4.4v-4c0-.2-.2-.4-.4-.4-.1-.1-.2 0-.2 0-.1.1-.1.2-.1.3v5c0 .4.2.6.4.6z"/></symbol><symbol viewBox="0 0 18 15" id="commerc"><path d="M7.1 7.1V.4c0-.2.1-.4.4-.4h10.1c.2 0 .4.2.4.4v14.2c0 .2-.2.4-.4.4H.3c-.2 0-.3-.1-.3-.3 0-.2.1-.3.3-.3h.3V7.9c0-.4.3-.7.7-.7l5.8-.1zm2.9 0l3.6-2h.4l3.1 1.7v-6H7.8v6.3H10zm-.3-3.7h.9v-.8h-.9v.8zm2.5 0h.8v-.8h-.9v.8zm-1.7 2.5V5h-.8v.9h.8zm4.1-2.5h.9v-.8h-.9v.8zm2.5 10.8V7.8L13.8 6l-3.3 1.8v6.4h6.6zM13 9.4h-.9v.9h.9v-.9zm1.6.8h.9v-.8h-.9v.8zM13 11.9h-.9v.9h.9v-.9zm1.6.8h.9v-.9h-.9v.9zM1.2 7.8v6.5h8.6V7.8H1.2zm3.1 3.5l1.5 1c.1.1.3 0 .4 0l2.4-2.6c.1-.1.1-.3 0-.5s-.3-.1-.5 0l-2.2 2.4-1.5-1c-.1-.1-.3 0-.4 0l-1.6 1.6c-.1.1-.1.3 0 .5 0 0 .1.1.2.1s.2 0 .2-.1l1.5-1.4z"/></symbol><symbol viewBox="0 0 19.8 14.8" id="concept"><path d="M18.3 14.8H7.4c-.8 0-1.5-.7-1.5-1.5 0 0 0-1.2.9-2.3.6-.6 1.2-1.1 2.1-1.5 1.1-.4 2.4-.7 3.9-.7s2.8.2 3.9.7c.9.4 1.6.9 2.1 1.5.9 1.1.9 2.3.9 2.3.1.9-.6 1.5-1.4 1.5zM6.9 13.4c0 .2.2.4.5.4h10.9c.2 0 .4-.2.4-.4 0-.1 0-.9-.7-1.7-.9-1.2-2.7-1.8-5.2-1.8s-4.3.6-5.2 1.8c-.7.8-.7 1.6-.7 1.7zm6-5.5c-2.2 0-4-1.8-4-4s1.8-3.9 4-3.9 3.9 1.8 3.9 3.9c0 2.3-1.7 4-3.9 4zm0-6.9c-1.7 0-3 1.3-3 2.9 0 1.7 1.3 3 3 3 1.6 0 2.9-1.3 2.9-3 0-1.6-1.3-2.9-2.9-2.9zM4.4 14.8H1.5c-.8 0-1.5-.7-1.5-1.5 0 0 0-.9.7-1.8.4-.5.9-.9 1.5-1.2.8-.3 1.7-.5 2.8-.5h.5c.3.1.5.3.5.6s-.3.4-.5.4H5c-3.8 0-3.9 2.3-3.9 2.5 0 .2.2.4.5.4h2.9c.3 0 .5.2.5.5s-.3.6-.6.6zm.5-5.9C3.3 8.9 2 7.6 2 5.9s1.3-3 2.9-3c1.7 0 3 1.3 3 3s-1.3 3-3 3zm0-5c-1.1 0-2 .9-2 2s.9 2 2 2 2-.9 2-2-.8-2-2-2z"/></symbol><symbol viewBox="0 0 18.8 11.9" id="contacts"><path d="M17.3 0H1.5C.7 0 0 .7 0 1.5v8.9c0 .8.7 1.5 1.5 1.5h15.8c.8 0 1.5-.7 1.5-1.5V1.5c0-.8-.7-1.5-1.5-1.5zm0 1h.1L9.9 6c-.2.1-.8.1-1.1 0L1.4 1h15.9zm0 9.9H1.5c-.3 0-.5-.2-.5-.5V1.9l7.3 4.9c.3.2.7.3 1.1.3.4 0 .8-.1 1.1-.3l7.3-4.9v8.4c0 .4-.2.6-.5.6z"/></symbol><symbol viewBox="-273 381 65 32" id="data_1"><path d="M-214 381h-53c-3.3 0-6 2.7-6 6v15c0 3.3 2.7 6 6 6h50.9l8.1 5v-26c0-3.3-2.7-6-6-6z"/></symbol><symbol viewBox="-273 381 65 32" id="data_2"><path d="M-267 381h53c3.3 0 6 2.7 6 6v15c0 3.3-2.7 6-6 6h-50.9l-8.1 5v-26c0-3.3 2.7-6 6-6z"/></symbol><symbol viewBox="0 0 595 842" id="day"><g fill-rule="evenodd"><path d="M-2350.5 1932.4c-6.8 0-12.1 5.5-12.1 12.1 0 6.8 5.5 12.1 12.1 12.1s12.1-5.5 12.1-12.1c0-6.8-5.5-12.1-12.1-12.1zm0 22.4c-5.7 0-10.3-4.6-10.3-10.3 0-5.7 4.6-10.3 10.3-10.3 5.7 0 10.3 4.6 10.3 10.3 0 5.6-4.6 10.3-10.3 10.3zm-.7-30.4v5.3c0 .5.4.9.9.9s.9-.4.9-.9v-5.3c0-.5-.4-.9-.9-.9-.6 0-.9.3-.9.9zm14 5.3l-3.7 3.7c-.4.4-.4.9 0 1.2 0 .4.4.4.5.4.2 0 .5 0 .7-.2l3.7-3.7c.4-.4.4-.9 0-1.2-.3-.4-.8-.5-1.2-.2zm-27.9 0c-.4.4-.4.9 0 1.2l3.7 3.7c.2.4.4.4.5.4.2 0 .5 0 .7-.2.4-.4.4-.9 0-1.2l-3.7-3.9c-.3-.3-.8-.3-1.2 0zm14.8 27.6c-.5 0-.9.4-.9.9v5.3c0 .5.4.9.9.9s.9-.4.9-.9v-5.3c0-.6-.4-.9-.9-.9zm18.6-13.4h-5.3c-.5 0-.9.4-.9.9s.4.9.9.9h5.3c.5 0 .9-.4.9-.9s-.3-.9-.9-.9zm-32.8.9c0-.5-.4-.9-.9-.9h-5.3c-.5 0-.9.4-.9.9s.4.9.9.9h5.3c.5 0 .9-.4.9-.9z"/><path d="M-2361.4 1953.5l-3.7 3.7c-.4.4-.4.9 0 1.2.2.2.4.2.7.2.4 0 .5 0 .7-.2l3.6-3.7c.4-.4.4-.9 0-1.2-.4-.3-.9-.3-1.3 0zm21.6 0c-.4-.4-.9-.4-1.2 0-.4.4-.4.9 0 1.2l3.7 3.7c.2.2.4.2.7.2.4 0 .5 0 .7-.2.4-.4.4-.9 0-1.2l-3.9-3.7z"/></g></symbol><symbol viewBox="0 0 595 842" id="exploitation"><path fill-rule="evenodd" d="M-1867.6 1789.4h-3.9v-.1c0-2-1.6-3.6-3.6-3.6h-.1v-2.6c0-1.3-1.1-2.3-2.3-2.3h-2.5c-1.3 0-2.3 1.1-2.3 2.3v6.4h-5.1c-.6 0-1.1.5-1.1 1.1v14.9c0 2 1.6 3.6 3.6 3.6h14.9c2 0 3.6-1.6 3.6-3.6v-14.9c-.1-.7-.6-1.2-1.2-1.2zm-6.1 0h-1.5v-1.5h.1c.8 0 1.4.6 1.4 1.4v.1zm-6.5-6.5h2.8v6.5h-2.8v-6.5zm11.5 22.5c0 .8-.6 1.4-1.4 1.4h-14.9c-.8 0-1.4-.6-1.4-1.4v-13.8h12.7v5.1c0 .6.5 1.1 1.1 1.1.6 0 1.1-.5 1.1-1.1v-5.1h2.8v13.8zm-53.7-8.8c.3 0 .6-.1.8-.3.2-.2.3-.5.3-.8 0-.3-.1-.6-.3-.8-.2-.2-.5-.3-.8-.3-.3 0-.6.1-.8.3-.2.2-.3.5-.3.8 0 .3.1.6.3.8.2.2.5.3.8.3z"/><path fill-rule="evenodd" d="M-1914.9 1786.9h-14.9c-2 0-3.6 1.6-3.6 3.6v14.9c0 2 1.6 3.6 3.6 3.6h14.9c2 0 3.6-1.6 3.6-3.6v-14.9c0-2-1.6-3.6-3.6-3.6zm-15 2.2h14.9c.8 0 1.4.6 1.4 1.4v4.2l-8.9 3.3-8.9-3.3v-4.2c.1-.8.8-1.4 1.5-1.4zm15 17.7h-14.9c-.8 0-1.4-.6-1.4-1.4v-8.4l8.5 3.2c.1 0 .3.1.4.1s.3 0 .4-.1l8.5-3.2v8.4c-.1.8-.8 1.4-1.5 1.4z"/><path fill-rule="evenodd" d="M-1861.2 1765.8l-17.8-3.6v-.1c0-.2 0-.5-.1-.7l-2.5-5c-.4-.9-1.3-1.6-2.2-1.8-.9-.3-2-.1-2.8.4l-13.3 7-13.3-7c-.8-.5-1.9-.6-2.8-.4-1 .3-1.8.9-2.2 1.8l-2.5 5c-.1.2-.1.5-.1.7v.1l-17.8 3.6c-.6.1-1 .7-.9 1.3.1.5.6.9 1.1.9h.2l18.7-3.7c.1 0 .1 0 .2-.1h.1l9.9 11c.2.2.5.4.8.4.3 0 .6-.2.8-.4l1.8-2.3v.4c0 1 .4 1.9 1.2 2.6h.1l-4.5 47.4c0 .3.1.7.3.9l8.4 8.4c.2.2.5.3.8.3.3 0 .6-.1.8-.3l8.4-8.4c.2-.2.4-.6.3-.9l-3.6-36.4v-.3l-.7-7.1v-.1l-.3-3.4h.1c.7-.7 1.1-1.6 1.2-2.6v-.4l1.8 2.3c.2.3.5.4.8.4.3 0 .6-.1.8-.4l9.9-11h.1c.1 0 .1 0 .2.1l18.7 3.7h.2c.5 0 1-.4 1.1-.9-.4-.7-.8-1.3-1.4-1.4zm-31.5 57l-1 1-12.3-12.3.3-2.8 12.8 12.8.1.1.1 1.2zm-4.1 4.2l-9.7-9.7.3-2.8 11 11-1.6 1.5zm2.3-22.6l-9.9-9.9.3-2.8 9.3 9.3.3 3.4zm-10.9 1.5s-.1 0 0 0l.2-2.9 11.7 11.7.3 3.4-12.2-12.2zm.5-5.7l.2-2.9 10.1 10.1c.1.1.2.2.3.2h.1l.4 3.6-11.1-11zm1.3-11.1l-.2-.2h-.1l.3-2.9 8.1 8.1.3 3.4-8.4-8.4zm.4-5.9l-.1-.1.3-2.9 6.8 6.8.3 3.4-7.3-7.2zm5.7-8.7h-1.7l-4.6-4.6 1.5-2 5.8 5.8h.1l.1.1-.1.1c-.3.4-.7.6-1.1.6zm-6.4-1.6l1.6 1.6-.4-.1c-.6-.1-1-.6-1.1-1.1l-.1-.4zm-4.9-.3l-9.8-10.9 2.2-4.4c.2-.4.5-.6.9-.7.4-.1.8-.1 1.1.2h.1l12.7 6.7-7.2 9.1zm6.3 4.1h2.4l3.2 3.2.4 3.8-6.2-6.2.1-.8h.1zm2.6 53.3l-7.2-7.2.3-2.7 8.4 8.4-1.5 1.5zm3.8-59.1l-4.8-4.8.9-1.2 4 5.1v.1c-.1.1-.1.3-.1.4v.4zm4.9 1.7l-7.1-9.1 12.7-6.7h.1c.3-.2.7-.3 1.1-.2.4.1.7.4.9.7l2.2 4.4-9.9 10.9z"/></symbol><symbol viewBox="1578.6 364.3 23.4 42.5" id="flexslider-arrow-l"><path d="M1582.9 385.6l19.1-19.1-2.1-2.2-21.2 21.3 21.2 21.2 2.1-2.1z"/></symbol><symbol viewBox="1578.6 364.3 23.4 42.5" id="flexslider-arrow-r"><path d="M1597.8 385.5l-19.1 19.1 2.1 2.2 21.2-21.3-21.2-21.2-2.1 2.1z"/></symbol><symbol viewBox="0 0 1903 2893" id="flexslider-icon-r"><path d="M951.8 1435.5l-19.1 19.1 2.1 2.2 21.2-21.3-21.2-21.2-2.1 2.1z"/></symbol><symbol viewBox="0 0 23.5 42.6" id="flexslider-icon"><path d="M4.3 21.3L23.4 2.2 21.3.1.1 21.3l21.2 21.2 2.1-2.1z"/></symbol><symbol viewBox="0 0 20 20" id="gallery"><path d="M16.6 2.1H1.8C.9 2.1.3 2.8.3 3.6v10.2c0 .9.7 1.5 1.5 1.5h.1v.2c0 .9.7 1.5 1.5 1.5h15c.7-.1 1.4-.7 1.4-1.5V5.4c0-.9-.7-1.5-1.5-1.5h-.1v-.3c0-.8-.7-1.5-1.6-1.5zm-7.7 8c-1.3 0-2.3-1.1-2.3-2.3s1.1-2.3 2.3-2.3 2.3 1.1 2.3 2.3-1.1 2.3-2.3 2.3zm0-3.7c.8 0 1.4.6 1.4 1.4s-.6 1.4-1.4 1.4c-.8 0-1.4-.6-1.4-1.4s.6-1.4 1.4-1.4zm-7.1 8h-.1c-.3-.2-.5-.5-.5-.9V3.6c-.1-.3.2-.6.5-.6h14.9c.3 0 .6.3.6.6v.2H3.3c-.9 0-1.5.7-1.5 1.5v9.1zm1.5-9.6h14.8c.3 0 .6.3.6.6V15l-4.6-7c-.1-.1-.2-.2-.4-.2s-.3.1-.4.2l-4 4.9L7 10.8c-.1-.1-.2-.1-.3-.1-.1 0-.2.1-.3.2l-3.6 4.5V5.3c-.1-.3.2-.5.5-.5zm0 11.3l3.5-4.3 2.4 2.1c.1.1.2.1.3.1.1 0 .3-.1.3-.2l4-4.8 4.6 7.1h-3.2l1.6-.8-1.6.8H3.3z"/></symbol><symbol viewBox="0 0 595 842" id="glass"><path fill-rule="evenodd" d="M-2210.3 1829h1.8c.8 0 1.4.6 1.4 1.4v2c0 .8-.6 1.4-1.4 1.4h-70.7c-.8 0-1.4-.6-1.4-1.4v-2c0-.8.6-1.4 1.4-1.4h1.8v-74.4c0-.8.6-1.4 1.4-1.4h64.2c.8 0 1.4.6 1.4 1.4v74.4h.1zm-1.9 0v-73.8h-30.6v73.8h12.6l-.6-4.4h-7.1c-.8 0-1.4-.6-1.4-1.4V1761c0-.8.6-1.4 1.4-1.4h21.6c.8 0 1.4.6 1.4 1.4v62.2c0 .8-.6 1.4-1.4 1.4h-4l-.6 4.4h8.7zm-29.8-33.5v7.3h2v-7.3h-2zm4.7-15.1v4.3l20.5-20.5v-2.7h-1.6l-18.9 18.9zm0-2.8l16.1-16.1h-16.1v16.1zm20.5 7.7V1767l-20.5 20.5v18.3l20.5-20.5zm-20.5 23.2v14.1h6.3l-.8-6h5.4v-3.9c-1.5-.4-2.6-1.8-2.6-3.4v-6.5l3.6 3 3.6-3v6.5c0 1.6-1.1 3-2.6 3.4v.8l.8-.5 1 1.7-1.8 1v.8h5.2l-.8 6h3.2v-34.6l-20.5 20.6zm13.5-1.5l-1.6 1.3-1.6-1.3c0 1.5-.3 3.9 1.6 3.9 1.9 0 1.6-2.4 1.6-3.9zm2.3 11.6h-8.1l1.4 10.3h5.4l1.3-10.3zm-53.8-63.4v73.8h30.6v-73.8h-30.6zm2.6 68c0 .8.6 1.4 1.4 1.4h21.6c.8 0 1.4-.6 1.4-1.4V1761c0-.8-.6-1.4-1.4-1.4h-21.6c-.8 0-1.4.6-1.4 1.4v62.2zm25.2-27.7v7.3h2v-7.3h-2zm-23.2-8.3v18.3l20.5-20.5v-18.3l-20.5 20.5zm0 35.4h20.5v-34.8l-20.5 20.5v14.3zm20.4-58.7v-2.4h-1.9l-18.6 18.6v4.3l20.5-20.5zm-4.6-2.4h-15.8v15.8l15.8-15.8zm45.9 70.4v-.9h-69.6v.9h69.6z"/></symbol><symbol viewBox="0 0 13 19.2" id="gmap"><path d="M6.5 2.8c-2 0-3.6 1.6-3.6 3.6S4.5 10 6.5 10s3.6-1.6 3.6-3.6-1.6-3.6-3.6-3.6zm0 6.4C5 9.2 3.8 8 3.8 6.5S5 3.7 6.5 3.7 9.2 5 9.2 6.5 8 9.2 6.5 9.2z"/><path d="M6.5 0C2.9 0 0 2.9 0 6.5c0 2 1.7 5.2 2.7 6.9.5 1 1.1 1.9 1.7 2.9.6.9 1.1 1.8 1.7 2.7.2.3.5.3.7 0 .6-.9 1.2-1.8 1.7-2.7 1.4-2.2 3.7-6 4.3-8.6.1-.4.2-.8.2-1.2C13 2.9 10.1 0 6.5 0zm3.1 12.9c-.8 1.4-1.7 2.9-2.5 4.2l-.5.8c-.5-.7-.9-1.4-1.4-2.1C4 13.9.9 8.8.9 6.5.9 3.4 3.4.8 6.6.8s5.7 2.5 5.7 5.7c-.1 1.7-1.8 4.9-2.7 6.4z"/></symbol><symbol viewBox="0 0 20 20" id="info"><path d="M10 0c5.5 0 10 4.5 10 10s-4.5 10-10 10S0 15.5 0 10 4.5 0 10 0zm0 7.4c-.3 0-.5.2-.5.6v7c0 .3.2.5.5.5s.5-.2.5-.5V8c0-.4-.2-.6-.5-.6zm0-3.3c-.5 0-.9.5-.9.9 0 .5.4.9.9.9s.9-.4.9-.9c0-.4-.4-.9-.9-.9zM10 19c4.9 0 9-4 9-9s-4.1-9-9-9-9 4-9 9 4.1 9 9 9z"/></symbol><symbol viewBox="0 0 595 842" id="infrastructure"><path fill-rule="evenodd" d="M-2216.6 1917.2c.7 0 1.2-.5 1.2-1.2v-6.9h5c.7 0 1.2-.5 1.2-1.2v-18.5c0-3.5-2.5-6.6-6-7.3h-.2v-4.2c0-7.6-6.2-13.9-13.9-13.9h-29c-7.6 0-13.9 6.2-13.9 13.9v4.2h-.2c-3.5.7-6 3.8-6 7.3v18.5c0 .7.5 1.2 1.2 1.2h5v6.9c0 .7.5 1.2 1.2 1.2h7.9c.7 0 1.2-.5 1.2-1.2v-6.9h36.2v6.9c0 .7.5 1.2 1.2 1.2h7.9zm-6.7-2.4v-5.7h5.5v5.7h-5.5zm-46.5 0v-5.7h5.5v5.7h-5.5zm58.2-8.1h-64.4v-17.3c0-2.8 2.3-5 5-5h54.3c2.8 0 5 2.3 5 5v17.3h.1zm-13.2-25c-.7-3.4-3.7-5.9-7.2-5.9s-6.5 2.5-7.2 5.9v.2h-30.5v-4.1c0-6.3 5.2-11.5 11.5-11.5h29c6.3 0 11.5 5.2 11.5 11.5v4.1h-7l-.1-.2zm-11.9-.1c.7-2 2.6-3.4 4.7-3.4s4 1.4 4.7 3.4l.1.4h-9.7l.2-.4zm16.2 20.7c-2.8 0-5.1-2.3-5.1-5.1s2.3-5.1 5.1-5.1 5.1 2.3 5.1 5.1-2.3 5.1-5.1 5.1zm0-8c1.5 0 2.8 1.2 2.8 2.8 0 1.5-1.2 2.8-2.8 2.8-1.5 0-2.8-1.2-2.8-2.8 0-1.5 1.2-2.8 2.8-2.8zm-9.4 8h-27.8c-.7 0-1.2-.5-1.2-1.2s.5-1.2 1.2-1.2h27.8c.7 0 1.2.5 1.2 1.2 0 .6-.5 1.2-1.2 1.2zm-37.1 0c-2.8 0-5.1-2.3-5.1-5.1s2.3-5.1 5.1-5.1 5.1 2.3 5.1 5.1-2.3 5.1-5.1 5.1zm0-8c1.5 0 2.8 1.2 2.8 2.8 0 1.5-1.2 2.8-2.8 2.8-1.5 0-2.8-1.2-2.8-2.8 0-1.5 1.3-2.8 2.8-2.8zm37.1 0h-27.8c-.7 0-1.2-.5-1.2-1.2s.5-1.2 1.2-1.2h27.8c.7 0 1.2.5 1.2 1.2s-.5 1.2-1.2 1.2zm22.7-34.7c.5 0 .9-.3 1.1-.7.3-.6 0-1.3-.6-1.6l-36.6-15.5c-.1-.1-.3-.1-.4-.1-.2 0-.3 0-.5.1l-36.6 15.5c-.4.2-.7.6-.7 1.1 0 .2 0 .3.1.5.3.6 1 .9 1.6.6l36.1-15.3 36.1 15.3c.1 0 .2.1.4.1z"/></symbol><symbol viewBox="0 0 595 842" id="lighting"><path fill-rule="evenodd" d="M-2339 1880c-5.8 3-11.7 6-17.5 8.9-.5.3-.6.9-.4 1.3.2.3.5.5.9.5.2 0 .3 0 .5-.1 5.8-2.9 11.6-5.9 17.4-8.8.2-.1.4-.3.5-.5.1-.3.1-.5-.1-.7 0-.1-.1-.1-.1-.2-.2-.4-.8-.6-1.2-.4zm13.5 15c-2.9 7.8-5.7 15.6-8.6 23.4-.2.5.1 1.1.6 1.3.1 0 .2.1.3.1.4 0 .8-.3.9-.6 2.9-7.8 5.7-15.6 8.5-23.4.2-.5-.1-1-.5-1.2h-.1c-.2-.1-.5-.1-.7 0-.2 0-.4.1-.4.4zm11.8-24.3c1.8 1.8 2.6 3.9 2.4 6.5-.2 1.9-1 3.7-2.4 5.1l-4.2 4.2-.3.3c.7 3-1.2 2.9-4.2 2.3-2.4-.7-5.1-2.8-6.9-4.6-1.6-1.6-3.2-3.6-4.1-5.6-.1-.3-.2-.5-.3-.8-.4-1.5-.6-2.9.3-4.2.3-.2 1-.4 1.4-.4.1 0 .2 0 .4-.1l.3-.3 1-1 .8-.8c-.3-.3-.6-.5-.9-.8-.2-.2-.3-.4-.3-.7v-9.3c0-4.4 3.6-8 8-8h2.2v-11.2h-35.4c-.5 0-1-.4-1-1 0-.5.4-1 1-1h52.3c.5 0 1 .4 1 1 0 .5-.4 1-1 1h-14.9v11.2h2.2c4.4 0 8 3.6 8 8v14.7c0 .5-.4 1-1 1h-1v-15.7c0-3.3-2.7-6.1-6.1-6.1h-6.4c-3.3 0-6.1 2.7-6.1 6.1v8.3c.2 1.7 1.6 0 1.8 0l.3-.3c3.2-2.8 8.1-2.6 11.1.4.8.6 1.4 1.2 2 1.8zm-10.7 8.9c-1.5-1.5-4.1-3.6-6.2-4.1-.3-.1-.6-.2-.9-.2-.2-.1-.4 0-.5.1-.1.1-.2.3-.1.5.1.3.2.6.2.9.6 2.1 2.6 4.7 4.1 6.2 1.5 1.5 4.1 3.6 6.2 4.1.4.1 1.1.4 1.5.1.1-.1.2-.3.1-.5-.1-.3-.2-.6-.2-.9-.6-2.1-2.6-4.7-4.2-6.2zm9.3 1.3c1.2-1.2 1.8-2.7 1.8-4.4 0-1.7-.6-3.2-1.8-4.4l-1.8-1.8c-2.4-2.4-6.4-2.4-8.8 0l-2.4 2.4-1.1 1.1c.4.2.9.5 1.3.7 1.7.9 3.4 2.3 4.8 3.7 1.4 1.4 2.7 3.1 3.7 4.8.2.4.5.9.7 1.3l1.1-1.1c.9-.7 1.7-1.5 2.5-2.3zm-18.6 8.7c.4-.3.9-.3 1.3.1l.1.1c.3.4.3.9-.1 1.3-3.6 3.2-7.2 6.5-10.8 9.7-.4.4-1 .3-1.4-.1-.4-.4-.3-1 .1-1.4 3.6-3.2 7.2-6.5 10.8-9.7z"/></symbol><symbol viewBox="0 0 595 842" id="night"><g fill-rule="evenodd"><path d="M-2301.4 1959.9c-6.7-2.6-11-8.8-11-15.9s4.3-13.4 11-15.9c.3-.1.5-.4.5-.8 0-.3-.2-.6-.5-.8-2.2-.8-4.4-1.3-6.7-1.3-10.3 0-18.8 8.4-18.8 18.8 0 10.3 8.4 18.8 18.8 18.8 2.3 0 4.6-.4 6.7-1.3.3-.1.5-.4.5-.8.1-.4-.2-.7-.5-.8zm-6.7 1.1c-9.4 0-17.1-7.7-17.1-17.1 0-9.4 7.7-17.1 17.1-17.1 1.4 0 2.8.2 4.1.5-2.6 1.4-4.9 3.4-6.6 5.9-2.2 3.2-3.4 6.9-3.4 10.7 0 3.9 1.2 7.6 3.4 10.7 1.7 2.5 4 4.5 6.6 5.9-1.3.3-2.7.5-4.1.5z"/><path d="M-2289.9 1950l-3.2-2.6.4-4.1c0-.3-.1-.6-.4-.8-.3-.2-.6-.2-.9 0l-3.5 2.2-3.8-1.6c-.3-.1-.6-.1-.9.1-.2.2-.3.5-.3.8l1 4-2.7 3.1c-.2.2-.3.6-.1.9.1.3.4.5.7.5l4.2.3 2.1 3.6c.2.3.4.4.7.4h.1c.3 0 .6-.2.7-.5l1.5-3.9 4.1-.9c.3-.1.5-.3.6-.6 0-.3-.1-.7-.3-.9zm-5.2.9c-.3.1-.5.2-.6.5l-1.1 2.7-1.5-2.5c-.1-.2-.4-.4-.7-.4l-2.9-.2 1.9-2.2c.2-.2.2-.5.2-.8l-.7-2.8 2.7 1.1c.3.1.5.1.8-.1l2.5-1.6-.3 2.9c0 .3.1.5.3.7l2.3 1.9-2.9.8zm-5-14.4l2 .1 1 1.7c.1.2.3.3.6.3h.1c.3 0 .5-.2.6-.4l.7-1.8 1.9-.4c.3-.1.5-.3.5-.5.1-.3 0-.5-.2-.7l-1.5-1.3.2-2c0-.3-.1-.5-.3-.6s-.5-.1-.7 0l-1.7 1.1-1.8-.8c-.2-.1-.5-.1-.7.1-.2.2-.3.4-.2.7l.5 1.9-1.3 1.5c-.2.2-.2.5-.1.7-.1.2.1.4.4.4zm2.2-2.6l-.2-.9.9.4c.2.1.4.1.6-.1l.8-.5-.1.9c0 .2.1.4.2.6l.7.6-.9.2c-.2.1-.4.2-.5.4l-.3.9-.5-.8c-.1-.2-.3-.3-.5-.3l-.9-.1.6-.7c.1-.1.2-.4.1-.6z"/></g></symbol><symbol viewBox="0 0 24 29" id="onmap"><path fill-rule="evenodd" d="M18.5 19.5l-.4 1.3.6.2c1.1.3 3.9 1.4 3.9 2.8 0 1.2-2 2.2-3 2.5-2.4.9-5.1 1.2-7.7 1.2-2.5 0-5.4-.3-7.8-1.2-.9-.4-2.9-1.3-2.9-2.5 0-1.4 2.7-2.5 3.8-2.8l.6-.2-.4-1.3-.6.2C3 20.3 0 21.6 0 23.9c0 1.9 2.2 3.2 3.8 3.8 2.5 1 5.5 1.3 8.2 1.3 3 0 12-.9 12-5.2 0-2.3-3-3.6-4.9-4.2l-.6-.1zM12 24.4l-.6-.8C9.3 20.4 4 11.9 4 8.2 4 3.7 7.6 0 12 0s8 3.7 8 8.2c0 3.7-5.3 12.2-7.5 15.4l-.5.8zm3.2-16.5c0-1.8-1.4-3.2-3.2-3.2-1.7 0-3.2 1.4-3.2 3.2 0 1.8 1.4 3.2 3.2 3.2 1.8 0 3.2-1.4 3.2-3.2zm-1.2 0c0-1.1-.9-2-1.9-2-1.1 0-1.9.9-1.9 2s.9 2 1.9 2c1 0 1.9-.9 1.9-2zm-2-6.5c3.7 0 6.7 3.1 6.7 6.8 0 3-4.5 10.4-6.2 13l-.5.8-.5-.8c-1.7-2.7-6.2-10-6.2-13 0-3.8 3-6.8 6.7-6.8z"/></symbol><symbol viewBox="0 0 20.5 17.6" id="our_business"><path d="M10.2 1.7l-.3.6-.6.1.5.5-.2.5.6-.3.6.3-.2-.6.5-.5-.6-.1-.3-.5zm4.7 6.7h4.4c.3 0 .6.3.6.6v7.7h.2c.3 0 .5.2.5.5s-.2.5-.5.5H.5c-.3 0-.5-.2-.5-.5s.2-.5.5-.5h.2v-5.8c0-.3.3-.6.6-.6h4.4c.3 0 .6.3.6.6v5.8h1.2V5.9c0-.3.3-.6.6-.6h4.6c.4 0 .6.3.6.6v10.8h1.2V8.9c-.1-.3.1-.5.4-.5zM1.6 11.2v5.4h3.5v-5.4H1.6zm6.8-4.8v10.3h3.8V6.4H8.4zm6.9 2.9v7.3h3.6V9.3h-3.6zm-12-3l-.3.6-.6.1.5.4-.1.7.6-.3.6.3-.2-.7.5-.4-.7-.1-.3-.6zm13.9-1.8l-.3.5-.6.1.5.4-.1.7.6-.3.6.3-.1-.7.5-.4-.9-.1-.2-.5zm-7-4.5l.8 1.6 1.7.3-1.3 1.2.3 1.7-1.5-.8-1.5.8.3-1.7-1.3-1.3 1.7-.3.8-1.5zM3.3 4.6l.8 1.5 1.7.3-1.2 1.2.3 1.7-1.6-.7-1.6.8.3-1.7L.8 6.4l1.7-.3.8-1.5zm13.9-1.8l.8 1.5 1.7.3-1.2 1.2.3 1.7-1.5-.8-1.6.8.3-1.7-1.3-1.2 1.8-.3.7-1.5z"/></symbol><symbol viewBox="0 0 18.8 19.8" id="placement"><path d="M13.9 6h1v.9h-1zm0 1.9h1v1h-1zm0 2h1v1h-1zm0 2h1v.9h-1zm0 3.9h1v1h-1zm0-1.9h1v1h-1zM6 6h.9v.9H6zm0 1.9h.9v1H6zm0 2h.9v1H6zm0 2h.9v.9H6zm0 3.9h.9v1H6zm0-1.9h.9v1H6zM3.9 6H5v.9H3.9zm0 1.9H5v1H3.9zm0 2H5v1H3.9zm0 2H5v.9H3.9zm0 3.9H5v1H3.9zm0-1.9H5v1H3.9zm4-7.9h1v.9h-1zm0 1.9h1v1h-1zm0 2h1v1h-1zm0 2h1v.9h-1zm0 3.9h1v1h-1zm0-1.9h1v1h-1z"/><path d="M18.3 18.8h-.5V5.4c0-.8-.6-1.5-1.3-1.8l-4.7-1.5V.5c0-.2-.1-.3-.2-.4 0-.1-.2-.1-.4-.1L2.3 2.7C1.6 3 1 3.7 1 4.5v14.3H.5c-.3 0-.5.2-.5.5 0 .2.2.5.5.5h17.8c.2 0 .5-.2.5-.5s-.2-.5-.5-.5zM16.2 4.6c.3.1.6.5.6.8v13.4h-5V3.2l4.4 1.4zM2 4.5c0-.3.3-.7.6-.8l8.3-2.5v17.6H2V4.5z"/></symbol><symbol viewBox="0 0 22 11.8" id="plan-arrow-d"><path d="M11 11.8c-.3 0-.5-.1-.7-.3L.3 1.7C-.1 1.3-.1.7.3.3s1-.4 1.4 0L11 9.4 20.3.3c.4-.4 1-.4 1.4 0s.4 1 0 1.4l-10 9.8c-.2.2-.4.3-.7.3z"/></symbol><symbol viewBox="0 0 21.9 18" id="plan-arrow"><path d="M1 10h17.6l-6.2 6.3c-.4.4-.4 1 0 1.4s1 .4 1.4 0l7.8-8s.2-.2.2-.3c0-.1.1-.2.1-.4 0-.1 0-.2-.1-.4 0-.1-.2-.3-.2-.3l-7.8-8c-.4-.4-1-.4-1.4 0-.2.2-.3.5-.3.7s.1.5.3.7L18.6 8H1c-.6 0-1 .4-1 1s.4 1 1 1z"/></symbol><symbol viewBox="0 0 595 842" id="playgrounds"><path fill-rule="evenodd" d="M-2051.6 1767.2h-2.5c-.5 0-1 .4-1 1 0 .5.4 1 1 1h2.5c.5 0 1-.4 1-1-.1-.6-.5-1-1-1z"/><path fill-rule="evenodd" d="M-2097 1775.6c1.1 1.5 2.9 2.4 4.8 2.4s3.7-.9 4.8-2.4l.2-.3.2.3c1.1 1.5 2.9 2.4 4.8 2.4s3.7-.9 4.8-2.4l.2-.3.2.3c.9 1.2 2.2 2 3.6 2.3l.2.1v11.8c0 .5.4 1 1 1s1-.4 1-1V1778l.3-.1c1.5-.3 2.7-1.1 3.6-2.3l.2-.3.2.3c1.1 1.5 2.9 2.4 4.8 2.4s3.7-.9 4.8-2.4l.2-.3.2.3c1.1 1.5 2.9 2.4 4.8 2.4s3.7-.9 4.8-2.4l.2-.3.2.3c.2.3.5.6.8.9 1.1 1 2.6 1.6 4.1 1.6h.6c3.1-.3 5.5-3.1 5.5-6.2v-1.5c0-1.7-1-3.2-2.5-3.8l-27.5-11.8c-2-.9-4.2-1.3-6.4-1.3s-4.4.4-6.4 1.3l-27.5 11.8c-1.5.7-2.5 2.2-2.5 3.8v1.5c0 3.1 2.3 5.9 5.5 6.2 1.7.2 3.4-.4 4.7-1.5.3-.3.5-.5.8-.9l.2-.3.5.2zm51.4-3.6c0-.5-.4-1-1-1-.5 0-1 .4-1 1 0 2.3-1.8 4.1-4.1 4.1s-4.1-1.8-4.1-4.1c0-.5-.4-1-1-1-.5 0-1 .4-1 1 0 2.3-1.8 4.1-4.1 4.1s-4.1-1.8-4.1-4.1c0-.5-.4-1-1-1-.5 0-1 .4-1 1 0 2.3-1.8 4.1-4.1 4.1s-4.1-1.8-4.1-4.1c0-.5-.4-1-1-1-.5 0-1 .4-1 1 0 2.3-1.8 4.1-4.1 4.1s-4.1-1.8-4.1-4.1c0-.5-.4-1-1-1-.5 0-1 .4-1 1 0 2.3-1.8 4.1-4.1 4.1s-4.1-1.8-4.1-4.1c0-.5-.4-1-1-1s-1 .4-1 1c0 1.1-.5 2.2-1.3 3-.9.8-2 1.2-3.1 1-2.1-.2-3.7-2.2-3.7-4.3v-1.5c0-.3.1-.7.2-1l.1-.2h46.8c.5 0 1-.4 1-1 0-.5-.4-1-1-1h-43.3l25-10.7c3.6-1.5 7.7-1.5 11.3 0l25 10.7h-5.3c-.5 0-1 .4-1 1 0 .5.4 1 1 1h8.8l.1.2c.1.3.2.6.2 1v1.5c0 2.1-1.5 4.1-3.7 4.3-1.2.1-2.3-.3-3.1-1-.5-.8-1-1.9-1-3z"/><path fill-rule="evenodd" d="M-2041.5 1824.1h-29.4v-15.3h.3c5.2.4 9.7 3.7 11.8 8.6.6 1.4 1.9 2.3 3.4 2.3.5 0 1-.1 1.4-.3.9-.4 1.6-1.1 2-2 .4-.9.4-1.9 0-2.8-.7-1.6-1.6-3.2-2.6-4.6v-.1c-2.4-3.5-3.1-7.9-1.8-12l.1-.4.3.2c1.7 1.1 4.7 2.6 6.6 1.4 1.3-.9 1.5-2.2 1.1-3.6-.4-1.3-1.3-2.7-2-3.9l-.1-.2c-1.1-1.8-1.4-3.8-1.2-6 0-.6-.1-1.1-.7-1.3-5.3-1.7-8.2 1.4-11.4 5-2 2.4-4.3 5.2-7.8 4.5-3.2-.6-8.1-1.2-11 .6l-.1.1-.1-.1c-2.1-1.1-4.4-1.6-6.7-.7-3.3 1.4-5.6 5.7-6.3 9-.1.3 0 .7.2.9.5.6 1.2 1.2 1.8 1.7 1 .8 2.5 1.8 3.8 1.4 1-.3 1.4-1.2 1.6-2.2.2-1.4 1-3.8 2.5-4.3.5-.2 1 0 1.4.4.8.7.1 2.4-.2 3.3-.8 1.8-2 3.5-3.1 5.1l-.9 1.2c-1.1 1.4-2 3-2.6 4.6-.4.9-.4 1.9 0 2.8.4.9 1.1 1.6 2 2 1.9.8 4.1-.1 4.8-2 2-4.8 6.4-8 11.5-8.6h.3v15.2h-29.4c-1.9 0-3.5 1.6-3.5 3.5v5.1c0 .5.4 1 1 1h65.8c.5 0 1-.4 1-1v-5.1c-.3-1.8-1.9-3.4-3.8-3.4zm-45-7.4c-.4.9-1.4 1.3-2.3.9-.4-.2-.8-.5-.9-.9-.2-.4-.2-.9 0-1.3.6-1.5 1.4-2.8 2.3-4.1l.1-.1c.3-.4.6-.9.9-1.3 1.7-2.4 6-8.2 3.1-10.9-.9-.8-2.1-1.2-3.3-.7-2.2.8-3.4 3.7-3.8 5.9 0 .1-.1.3-.1.4l-.1.2h-.2c-.8-.1-2.3-1.4-2.9-2l-.1-.1.1-.2c.3-.9.6-1.8 1-2.6.8-1.7 2.1-3.6 4-4.3 1.9-.8 4-.1 5.6 1 .4.3.9.2 1.2-.2.6-.5 1.7-.8 2.4-.9 2.4-.5 5.2-.1 7.6.3.5.1 1 .2 1.5.2 3.6 0 6-2.8 8.2-5.3 2.2-2.6 4.5-5.4 8.3-4.7h.2v.2c-.1 2.2.4 4.4 1.6 6.3l.1.2c.6 1 1.5 2.3 1.8 3.5.2.6.3 1.1-.3 1.4-1.3.8-4.7-1.4-5.7-2.2-.2-.2-.5-.3-.8-.2-.3.1-.5.3-.7.5-1 2-1.4 4.5-1.4 6.7 0 3.2 1 6.3 2.8 8.9 0 0 0 .1.1.1.9 1.3 1.7 2.7 2.3 4.1.2.4.2.9 0 1.3s-.5.8-.9.9c-.2.1-.4.1-.7.1-.7 0-1.3-.4-1.6-1.1-2.5-6-8.3-9.8-14.8-9.8-6.3 0-12.1 3.9-14.6 9.8zm46.5 15h-63.8v-4.1c0-.9.7-1.5 1.5-1.5h60.7c.9 0 1.5.7 1.5 1.5v4.1z"/></symbol><symbol viewBox="0 0 15.7 17.4" id="repairs"><path d="M1.4 2.8c-.3 0-.5.2-.5.5v2.4c0 .3.2.5.5.5h7.2c.7 0 1.3.6 1.3 1.3v1.7h.7c.5 0 .9.4.9.9 0 .4-.3.8-.7.9v4.4c.4.1.7.5.7.9 0 .5-.4.9-.9.9H8.3c-.5 0-.9-.4-.9-.9 0-.4.3-.8.7-.9V11c-.4-.1-.7-.5-.7-.9 0-.5.5-.9.9-.9H9V7.6c0-.3-.2-.5-.5-.5H1.4C.6 7.1 0 6.5 0 5.7V3.3c0-.7.6-1.4 1.4-1.4v-1c0-.5.4-.9 1-.9h12.4c.5 0 .9.4.9.9v3.4c0 .5-.4.9-.9.9H2.4c-.5 0-.9-.4-.9-.9V2.8zM9 11.2v4.4c.2 0 .4.2.4.4 0 .3-.2.4-.5.4h-.6l-.1.1.1.1h2.4c.1 0 .1-.1.1-.1s0-.1-.1-.1h-.2c-.3 0-.5-.1-.5-.4v-5.2c0-.3.2-.5.5-.5h.3c0-.1 0-.1-.1-.1H8.3s-.1 0-.1.1h.7c.3 0 .5.2.5.5 0 .2-.2.4-.4.4zm5.9-6.9V.9H2.3v3.4h12.6zM12 1.5c.2 0 .3.1.3.3 0 .2-.1.3-.3.3H4.6c-.2 0-.4-.1-.4-.4 0-.1.1-.3.3-.3H12zm2.1.2c0 .2-.1.3-.3.3h-.3c-.1 0-.3-.1-.3-.3 0-.1.1-.3.3-.3h.3c.2.1.3.2.3.3z"/></symbol><symbol viewBox="0 0 26.1 25.5" id="sdan"><path fill-rule="evenodd" d="M21.2 11.7V2.2c0-1-2.1-.6-4.3-.6 0-.7.2-1.6-.6-1.6H6.2c-.8 0-.6 1-.6 1.6-2 0-4.5-.4-4.5.6v22.1c-1.6 0-1 1.2-.4 1.2h18.2-.1c8.3.1 10.1-11.2 2.4-13.8zm-6.4 12.6h-3.1c0-2.2.4-4.8-.6-4.8s-.6 2.6-.6 4.8H6.8V1.2h8.9V12c-.6.3-1.2.7-1.6 1.1-1-.5-.9 1-.9 1-.9 1.2-1.5 2.7-1.5 4.3 0 2.5 1.2 4.7 3.1 5.9zm2.1-12.7V2.8H20v8.6h.1c-.4-.1-.7-.1-1.1-.1 0-.7.2-1.6-.6-1.6s-.6 1-.6 1.7c-.3 0-.6.1-.9.2zm2 .9c7.9 0 7.9 11.8 0 11.8s-7.9-11.8 0-11.8zM5.6 24.3H2.3V2.8h3.3v21.5zM18.4 7.7c-.8 0-.6-1.2-.6-2.3 0-.8 1.2-.8 1.2 0 0 1.1.2 2.3-.6 2.3zm-9.8 5.4c.8 0 .6 1.2.6 2.3 0 .8-1.2.8-1.2 0 0-1.1-.2-2.3.6-2.3zm0 4.9c.8 0 .6 1.2.6 2.3 0 .8-1.2.8-1.2 0 0-1.1-.2-2.3.6-2.3zm0-9.9c.8 0 .6 1.2.6 2.3 0 .8-1.2.8-1.2 0 0-1.1-.2-2.3.6-2.3zm0-4.8c.8 0 .6 1.2.6 2.3 0 .8-1.2.8-1.2 0 0-1.1-.2-2.3.6-2.3zm2.6 9.8c.8 0 .6 1.2.6 2.3 0 .8-1.2.8-1.2 0 0-1.1-.3-2.3.6-2.3zm0-5c.8 0 .6 1.2.6 2.3 0 .8-1.2.8-1.2 0 0-1.1-.3-2.3.6-2.3zm0-4.8c.8 0 .6 1.2.6 2.3 0 .8-1.2.8-1.2 0 0-1.1-.3-2.3.6-2.3zm2.5 7.7c-.8 0-.6-1.2-.6-2.3 0-.8 1.2-.8 1.2 0 .1 1.1.3 2.3-.6 2.3zm0-4.8c-.8 0-.6-1.2-.6-2.3 0-.8 1.2-.8 1.2 0 .1 1.1.3 2.3-.6 2.3zM4.1 17.5c-.8 0-.6-1.2-.6-2.3 0-.8 1.2-.8 1.2 0 0 1.1.3 2.3-.6 2.3zm0 5c-.8 0-.6-1.2-.6-2.3 0-.8 1.2-.8 1.2 0 0 1.1.3 2.3-.6 2.3zm0-9.9c-.8 0-.6-1.2-.6-2.3 0-.8 1.2-.8 1.2 0 0 1.1.3 2.3-.6 2.3zm0-4.9c-.8 0-.6-1.2-.6-2.3 0-.8 1.2-.8 1.2 0 0 1.1.3 2.3-.6 2.3z"/><path fill-rule="evenodd" d="M22.3 17.1l-.6-.6c-.1-.1-.1-.1-.2-.1s-.1 0-.2.1l-3.2 3.1-1.5-1.5c-.1-.1-.1-.1-.2-.1s-.1 0-.2.1l-.6.6c-.1.1-.1.1-.1.2s0 .1.1.2l2.3 2.3c.1.1.1.1.2.1s.1 0 .2-.1l4-3.9c.1-.1.1-.1.1-.2 0 0-.1-.1-.1-.2z"/></symbol><symbol viewBox="0 0 18.8 19.8" id="search"><path d="M18.6 19l-5.8-6.4c1.3-1.4 2-3.2 2-5.1s-.8-3.9-2.2-5.3S9.4 0 7.4 0C5.5 0 3.6.8 2.2 2.2S0 5.5 0 7.4c0 2 .8 3.8 2.2 5.2s3.3 2.2 5.2 2.2c1.7 0 3.3-.5 4.6-1.6l5.9 6.4c.1.1.2.2.4.2.1 0 .2-.1.3-.1.2-.3.2-.6 0-.7zM1 7.4C1 3.9 3.9 1 7.4 1c3.6 0 6.4 2.9 6.4 6.4 0 3.6-2.9 6.4-6.4 6.4C3.9 13.8 1 11 1 7.4z"/></symbol><symbol viewBox="0 0 19.7 19.5" id="second_placement"><g><path d="M19.2 18.5H19V9.7c0-.6-.5-1.1-1.1-1.1h-1.4V4.8c0-.6-.5-1.1-1.1-1.1h-3.9V1.1c0-.6-.4-1.1-1.1-1.1H1.8C1.2 0 .7.5.7 1.1v17.4H.5c-.3 0-.5.2-.5.5s.2.5.5.5h18.7c.3 0 .5-.2.5-.5s-.3-.5-.5-.5zm-8.6 0h-4v-3.7h-.9v3.7h-4V.9h8.9v17.6zm5 0h-4V4.6h4v13.9zm2.4 0h-1.5V17H18v1.5zm0-2.5h-1.5v-1.5H18V16zm0-2.4h-1.5v-1.5H18v1.5zm0-2.5h-1.5V9.6H18v1.5z"/><path d="M13.1 16h.9v.9h-.9zm0-2.4h.9v.9h-.9zm0-2.5h.9v.9h-.9zm0-2.5h.9v1h-.9zm0-2.4h.9v.9h-.9zm-7.4 6.1h.9v.9h-.9zM3.2 7.4h1v.9h-1zm2.5 0h.9v.9h-.9zm2.4 0H9v.9h-.9zm-4.9 7.4h1v.9h-1zm4.9 0H9v.9h-.9zm-4.9-2.5h1v.9h-1zm4.9 0H9v.9h-.9zM3.2 9.9h1v.9h-1zm2.5 0h.9v.9h-.9zm2.4 0H9v.9h-.9zM3.2 2.5h1v.9h-1zm2.5 0h.9v.9h-.9zm2.4 0H9v.9h-.9zM3.2 5h1v.9h-1zm2.5 0h.9v.9h-.9zm2.4 0H9v.9h-.9z"/></g></symbol><symbol viewBox="0 0 595 842" id="security"><path fill-rule="evenodd" d="M-2009.8 1777.4l-2.4-.9c-.5-.2-1.1.1-1.3.6-.2.5.1 1.1.6 1.3l2.4.9c.1 0 .2.1.3.1.4 0 .8-.3 1-.7.2-.6-.1-1.1-.6-1.3z"/><path fill-rule="evenodd" d="M-1944.7 1786.3c-.1-1.5-1.5-2.4-2.7-2.8l-65.6-23.9c-3.2-1.2-6.8.5-8 3.7l-5.8 15.9c-1.2 3.2.5 6.8 3.7 8l19.3 7v.2c-.3 2.1.2 4.2 1.5 5.8l.1.1-4.1 11.3c-.2.6-.8 1-1.5 1h-12.2v-4.2c0-2-1.6-3.6-3.6-3.6h-2.6c-.6 0-1 .5-1 1v20.8c0 .6.5 1 1 1h2.6c2 0 3.6-1.6 3.6-3.6v-4.2h12.2c3.7 0 7-2.3 8.3-5.8l4-11.1h.2c2.3-.3 4.2-1.6 5.4-3.6l.1-.2 22.6 8.2c.7.2 1.4.4 2.1.4 2.2 0 4.2-1.1 5.3-3l.1-.2 2.8 1c.3.1.5.1.8.1.3 0 .7-.1 1-.2.6-.3 1-.7 1.2-1.3l3.6-9.8c.4-1 0-2.2-1-2.8l-.5-.3 4.6-2.2c1.2-.2 2.6-1.2 2.5-2.7zm-77.3 37.9c0 .9-.7 1.6-1.6 1.6h-1.6V1807h1.6c.9 0 1.6.7 1.6 1.6v15.6zm20.6-10.7c-1 2.7-3.5 4.5-6.4 4.5h-12.2v-3.2h12.2c1.5 0 2.9-1 3.4-2.4l3.8-10.6.3.2c.4.3.9.5 1.3.6.3.1.7.2 1 .3l.3.1-3.7 10.5zm5.3-12.4c-.1 0-.1 0 0 0-.8 0-1.4-.1-2.1-.3-.7-.3-1.4-.7-2-1.2l-.1-.1c-1-1.1-1.6-2.6-1.5-4.1v-.4l10.1 3.7-.2.3c-1 1.2-2.6 2-4.2 2.1zm43.9-7.5l-3.7 10.3-3-1.1 3.5-9.6.9-.4 2.3.8zm4.2-6.1l-10.6 4.9c-2.4 1.1-6.4 1.3-8.8.4l-37.6-13.6c-.5-.2-1.1.1-1.3.6-.2.5.1 1.1.6 1.3l37.6 13.6c1.4.5 3 .7 4.5.7 1.7 0 3.5-.2 5.1-.8l.6-.2-3.2 8.7c-.8 2.2-3.2 3.3-5.4 2.5l-55.9-20.3c-2.2-.8-3.3-3.2-2.5-5.4l2.4-6.6.3.5c.7 1.1 1.8 2 3.1 2.4l1.2.4c.5.2 1.1-.1 1.3-.6.2-.5-.1-1.1-.6-1.3l-1.2-.4c-2.2-.8-3.3-3.2-2.5-5.4l1.8-4.9c.8-2.2 3.2-3.3 5.4-2.5l65.6 23.9c.4.1 1.1.5 1.4.9l.1.1-.1.1c-.2.4-.9.8-1.3 1z"/></symbol><symbol viewBox="0 0 26.7 26.2" id="stroyka"><path fill-rule="evenodd" d="M18.9 13.2c0-.7.4-1.4 1-1.7.9-.5 1.5-1.4 1.5-2.5V8h2.7c.2 0 .5-.1.6-.4.1-.2.1-.5-.1-.7l-2.5-3.3c-.1-.2-.3-.3-.5-.3H9.3L7 .3C6.9.1 6.7 0 6.5 0H4c-.4 0-.7.3-.7.6v2.7H.6c-.3 0-.6.3-.6.7v3.3c0 .4.3.7.6.7h2.7v17.6h-.1c-.4 0-.6.3-.6.6 0 .4.3.6.6.6h6.7c.4 0 .6-.3.6-.6 0-.4-.3-.6-.6-.6h-.2V8h10.4v1c0 .5-.3 1.1-.7 1.3-1.1.5-1.8 1.6-1.8 2.8 0 1.7 1.4 3.1 3.2 3.1 1.7 0 3.2-1.4 3.2-3.1 0-.4-.3-.6-.6-.6-.4 0-.6.3-.6.6 0 1-.8 1.9-1.9 1.9-1.2 0-2-.8-2-1.8zM16 6.7l-1.5-2.1h2.6l1.5 2.1H16zM4.6 1.3h1.5l1.5 2.1h-3V1.3zm3.8 3.3v2.1H4.6V4.6h3.8zM1.3 6.7V4.6h2.1v2.1H1.3zm3.3 9.6h3.7V20H4.6v-3.7zM8.4 15H4.6v-3.7h3.7V15h.1zM4.6 25.6v-4.2h3.7v4.2H4.6zM8.4 10H4.6V8h3.7v2h.1zm1.3-5.4h3.2l1.5 2.1H9.7V4.6zm10.5 2.1l-1.5-2.1h2.6l1.5 2.1h-2.6zm-7.4 15.6h3v-3.4h10.9v7.9H12.8v-4.5zm4.1-2.2h5.2v2.2h-5.2v-2.2zm2.3 5.6H14v-2.2h5.2v2.2zm6.3 0h-5.2v-2.2h5.2v2.2zm0-3.4h-2.2v-2.2h2.2v2.2z"/></symbol><symbol viewBox="0 0 595 842" id="territory"><path fill-rule="evenodd" d="M-2140.9 1821.3c-.5-.8-1.2-1.5-1.9-2.2l-.1-.1v-4.4h.1c9.1-.7 16.1-8.3 16.1-17.4 0-6.8-2-14.7-4.9-20.8-2.2-4.7-6.5-11.9-12.5-11.9-3.2 0-5.9 2-7.9 4.4l-.1.2-.1-.2c-.2-.4-.3-.7-.5-1.1-2.7-5.7-8-14.6-15.3-14.6-7.3 0-12.6 8.8-15.3 14.6-3.5 7.6-6 17.3-6 25.6 0 11.2 8.8 20.6 20 21.2h.1v6.9h-.2c-.8-.2-1.6-.3-2.5-.3-6.2 0-11.2 5-11.2 11.2 0 .6.5 1.1 1.1 1.1h50.4c.6 0 1.1-.5 1.1-1.1 0-5.9-4.7-10.9-10.6-11.2l.2.1zm-9.3-5c-2.5 0-5 .9-7 2.5l-.1.1v.1h-.1c-.5-.1-1.1-.1-1.6-.1-2.7 0-5.3.8-7.5 2.2l-.2.1v-6.5h.1c4.1-.2 8-1.6 11.3-4l.1-.1.1.1c2.8 2.4 6.3 3.8 10 4h.1v2.9l-.2-.1c-1.6-.8-3.3-1.2-5-1.2zm.6-11.8l4.6 4.6v3.4h-.2c-3-.2-5.8-1.3-8.2-3.2l-.1-.1.1-.1c1.4-1.3 2.6-2.8 3.7-4.4l.1-.2zm5.6-37.6c4.9 0 8.8 6.8 10.5 10.6 2.7 5.8 4.7 13.5 4.7 19.9 0 7.8-6 14.4-13.8 15.1h-.2v-7.2l6.6-6.6c.4-.4.4-1.1 0-1.6-.4-.4-1.1-.4-1.6 0l-5 5v-3.6c0-.6-.5-1.1-1.1-1.1-.6 0-1.1.5-1.1 1.1v7.4l-3.1-3.1c-.1-.1-.2-.2-.3-.2l-.1-.1.1-.1c1.3-2.8 1.9-5.8 1.9-8.9 0-7.2-1.8-15.2-4.4-21.9v-.2c1.6-2 4.1-4.5 6.9-4.5zm-42.9 26.6c0-7.9 2.5-17.5 5.8-24.7 2.2-4.8 7.1-13.3 13.2-13.3 6.2 0 11 8.5 13.2 13.3 3.3 7.2 5.8 16.8 5.8 24.7 0 5.6-2.5 10.9-6.8 14.6-.2.1-.3.2-.4.3 0 .1-.1.1-.1.2-3 2.3-6.6 3.7-10.4 3.9h-.2v-11l7.2-7.2c.4-.4.4-1.1 0-1.6-.4-.4-1.1-.4-1.6 0l-5.7 5.7v-14.9c0-.6-.5-1.1-1.1-1.1-.6 0-1.1.5-1.1 1.1v8.6l-3.1-3.1c-.4-.4-1.1-.4-1.6 0-.4.4-.4 1.1 0 1.6l4.7 4.7v9.4l-6.9-6.9c-.4-.4-1.1-.4-1.6 0-.4.4-.4 1.1 0 1.6l8.2 8.2.2.2h.1v4.8h-.2c-9.8-.7-17.6-9.1-17.6-19.1zm6.4 37.8c.6-4.4 4.4-7.7 8.9-7.7 1.2 0 2.5.3 3.6.8.4.2.9.1 1.2-.2 2.1-2 4.9-3.1 7.8-3.1 5.8 0 10.8 4.4 11.4 10.2v.2h-32.9v-.2zm35.1 0c-.5-5.2-3.9-9.7-8.8-11.6l-.3-.1.3-.1c1.2-.6 2.6-.9 4-.9 3.2 0 6.2 1.7 7.8 4.5.2.3.6.6 1 .6h.1c4.4 0 8.2 3.3 8.8 7.7v.2h-12.9v-.3z"/></symbol><symbol viewBox="0 0 595 842" id="ventilated"><path fill-rule="evenodd" d="M-2159.4 1890.8l2.1-.3v-.6c0-1.9-.8-4-2.1-5.4-1.5-1.5-3.6-2.1-5.7-2.1-2 0-4 .5-5.4 2-1.3 1.4-2.1 3.6-2 5.5v8.6c0 1-.7 1.7-1.7 1.7h-13.5c-1.5 0-2.5-1.1-2.3-2.5v-27.2c0-1-.6-1.9-1.6-2.2-1-.3-1.3-1.4-.4-2.1l26.1-20.4c.3-.2.7-.4 1-.4.4 0 .9.3 1.2.5l26.1 20.4.1.1c.7.8.4 1.7-.6 2-1 .3-1.6 1.2-1.6 2.2v1.8l2.1-.3v-.4c0-.7.6-1.3 1.3-1.3h2.9c.7 0 1.4-.3 1.6-.9.2-.7-.1-1.3-.7-1.7l-5.4-4.2c-.5-.4-.7-.9-.7-1.5v-9.7c0-1.3-1-2.3-2.3-2.3h-6.2c-1.1 0-2.3.9-2.3 2.1 0 1.1-1 1.6-1.9 1l-12-9.3c-.5-.4-1.1-.5-1.6-.5-.6 0-1.2.2-1.6.5l-30.8 24c-.4.3-.7.7-.7 1.3v.1c0 .1 0 .3.1.4.2.7.9.9 1.6.9h2.6c.9 0 1.6.8 1.6 1.7v28.1c0 1.3 1 2.3 2.3 2.3h17.1c1.3 0 2.3-1 2.3-2.3v-10.2c-.1-1.3.6-3.1 1.5-4 1-1.1 2.5-1.4 3.9-1.4 3.3 0 5.7 2 5.8 5.4-.2.1-.2.3-.2.6zm2.9 22.6c.5.1 1 .1 1.5.1h21c.6 0 1.1.5 1.1 1.1 0 .6-.5 1.1-1.1 1.1h-21c-.7 0-1.3-.1-2-.2-5.4-1.2-9-6.3-8.4-11.8.3-2.4 1.4-4.5 3.3-6 1.8-1.5 4.2-2.2 6.6-1.9 4 .4 6.9 4.1 6.5 8.1-.4 3.3-3.4 5.8-6.7 5.4-1.4-.2-2.6-.8-3.4-1.9-.8-1.1-1.2-2.4-1.1-3.8.1-1.1.7-2.2 1.6-2.9.9-.7 2-1 3.2-.9.6.1 1 .6 1 1.2-.1.6-.6 1-1.2 1-.6-.1-1.1.1-1.6.5-.4.4-.7.9-.8 1.4-.1.8.1 1.5.6 2.2.5.6 1.2 1 2 1.1 2.1.2 4.1-1.3 4.3-3.5.3-2.8-1.8-5.4-4.6-5.7-1.8-.2-3.6.3-5 1.4a6.62 6.62 0 0 0-2.5 4.5c-.6 4.4 2.3 8.5 6.7 9.5zm19.9-12c.7.1 1.4.2 2.1.2h15.9c.6 0 1.1.5 1.1 1.1 0 .6-.5 1.1-1.1 1.1h-15.9c-.9 0-1.8-.1-2.6-.3-7.2-1.6-12-8.4-11.2-15.7.4-3.1 1.9-5.9 4.4-7.9 2.4-2 5.6-2.9 8.7-2.5 5.3.6 9.1 5.4 8.5 10.7-.5 4.3-4.5 7.5-8.8 7-3.6-.4-6.2-3.7-5.8-7.3.3-3 3.1-5.2 6.1-4.8.6.1 1 .6 1 1.2-.1.6-.6 1-1.2 1-1.8-.2-3.4 1.1-3.6 2.9-.3 2.4 1.5 4.6 3.9 4.9 3.1.4 6-2 6.4-5.1.5-4.1-2.5-7.8-6.6-8.3-2.5-.3-5.1.5-7.1 2-2 1.6-3.3 3.9-3.6 6.5-.9 6.1 3.2 11.9 9.4 13.3zm-10.8-48.2c0-.6.5-1.1 1.1-1.1h4.5c.6 0 1.1.4 1.1 1.1v5.9c0 .8-.8 1.4-1.6.9l-4.5-3.4c-.4-.3-.6-.7-.6-1.2v-2.2z"/></symbol></svg>