<svg style="display:none"><symbol viewBox="0 0 64 64" id="angle-frame"><path fill-rule="evenodd" stroke="#000" stroke-width=".216" stroke-miterlimit="22.926" d="M17.1 0H0v64h1V34h1v30h1V34h1v30h1V34h1v30h1V34h27V7h30V6H34V5h30V4H34V3h30V2H34V1h30V0H17.1zM32 1h1v1h-1V1zm0 2h1v1h-1V3zm-2-2h1v4h2v1h-3V1zm0 6h3v1h-3V7zm-2-6h1v5h-1V1zm0 6h1v1h-1V7zm-1 1h-1V7h1v1zm-1-7h1v1h-1V1zm0 2h1v3h-1V3zm1 6v7l-2.4-2.4-2.5 2.5-.8-.8 4.7-4.7V9h1zm-.6 8l-1.7 1.7L23 17l1.7-1.7 1.7 1.7zm-9.3 9.3l-1.8-1.7 1.8-1.7 1.7 1.7-1.7 1.7zm0-5.1l-.9-.8.9-.8.8.8-.8.8zm-1.8-3.4l.8.8-.8.8-.8-.8.8-.8zm-1.7 0l-.9-.8.8-.8.8.8-.7.8zm.8-2.5l.8-.8.8.8-.8.8-.8-.8zm2.7-.9l-.9-.8.9-.8.8.8-.8.8zM25 8h-1.6l-4.7 4.7-.8-.8 2.5-2.5L18.1 7h7c-.1.3-.1.7-.1 1zm-7.9-.3l1.7 1.7-1.7 1.7-1.8-1.7 1.8-1.7zm1.6 8.4l-.8-.8.8-.8.8.8-.8.8zm.9 2.6l-.8.8-.8-.8.8-.8.8.8zm.8-2.6l.8.8-.8.8-.8-.7.8-.9zm0-1.7l-.8-.8L24.2 9h.8c0 1.1.2.6-1.2 2.1l-3.4 3.3zM23 1h2v1h-2V1zm-2 0h1v1h-1V1zm-7 0h6v1h-6V1zm-2 0h1v1h-1V1zM9 1h2v1H9V1zm0 2h16v1H9V3zm0 2h16v1H9V5zm0 2h7l-2.4 2.4 2.5 2.5-.8.8L10.5 8H9V7zm.8 2l4.6 4.6-.8.8L9 9.8V9h.8zM7 1h1v1H7V1zm0 4V3h1v3H7V5zm0 2h1v1H7V7zm1 2v1.6l4.7 4.7-.8.8-2.5-2.5L7 16V9h1zm3.1 8l-1.7 1.7L7.7 17l1.7-1.7 1.7 1.7zM5 1h1v5H5V1zm0 6h1v1H5V7zM1 1h1v1H1V1zm0 2h1v1H1V3zm0 2h2V1h1v5H1V5zm0 2h3v1H1V7zm0 5v-1h1v2H1v-1zm0 5v-3h1v6H1v-3zm1 4v2H1v-2h1zm0 12H1v-1h1v1zm0-2H1v-1h1v1zm2 2H3v-4H1v-1h3v5zm0-6H1v-1h3v1zm0-2H1v-1h2V10H1V9h3v16zm2 8H5v-5h1v5zm0-6H5v-1h1v1zm0-2H5V9h1v16zm1 1h1v1H7v-1zm1 7H7v-1h1v1zm0-2H7v-3h1v3zm0-6H7v-7l2.4 2.4 2.5-2.5 4.2 4.2-2.5 2.5L16 27H9v-1h1.6l4.7-4.7-.8-.8L9.8 25H9v-.9l4.6-4.6-.8-.8L8 23.4V25zm3 8H9v-1h2v1zm2 0h-1v-1h1v1zm7 0h-6.1v-1H20v1zm2 0h-1v-1h1v1zm3 0h-2v-1h2v1zm0-2H9v-1h16v1zm0-2H9v-1h16v1zm0-2h-7l2.4-2.4-2.5-2.5.8-.8 4.8 4.8H25v.9zm-.8-2l-4.6-4.6.8-.8 4.6 4.6v.9c-.2-.1-.5-.1-.8-.1zm2.8 8h-1v-1h1v1zm0-4v2h-1v-3h1v1zm0-2h-1v-1h1v1zm-1-2v-1.6l-4.7-4.7.8-.8 2.5 2.5L27 18v7h-1zm3 8h-1v-5h1v5zm0-6h-1v-1h1v1zm0-2h-1V9h1v16zm4 8h-1v-1h1v1zm0-2h-1v-1h1v1zm0-2h-2v4h-1v-5h3v1zm0-2h-3v-1h3v1zm0-2h-3V9h3v1h-2v14h2v1zm0-14v2h-1v-2h1zm0 11v1h-1v-2h1v1zm0-5v3h-1v-6h1v3z"/></symbol><symbol viewBox="0 0 26 50.2" id="arrow-carousel"><path d="M24.7 50.2c.3 0 .7-.1.9-.4.5-.5.5-1.3 0-1.9L3.1 25.1 25.6 2.3c.5-.5.5-1.3 0-1.9-.5-.5-1.3-.5-1.8 0L.4 24.1c-.5.5-.5 1.3 0 1.9l23.4 23.7c.2.4.6.5.9.5z"/></symbol><symbol viewBox="0 0 16 8" id="arrow-lang"><path d="M16 .6c0-.1-.1-.3-.2-.4-.2-.2-.6-.2-.8 0L8 6.7 1 .2C.8 0 .4 0 .2.2 0 .4 0 .8.1.9l7.4 6.9c.2.2.6.2.8 0L15.7.9c.2-.1.3-.2.3-.3z"/></symbol><symbol viewBox="0 0 92.8 107.2" id="fitnes"><path d="M14.1 99.1c1 4.1 4.7 7 8.9 7 5.1 0 9.2-4.2 9.2-9.3v-8.2h28.3v8.2c0 5.1 4.1 9.3 9.2 9.3 4.2 0 7.9-2.9 8.9-7l.2-.9.9.3c.8.2 1.6.3 2.5.3 5.1 0 9.2-4.2 9.2-9.3V72.8c0-5.1-4.1-9.3-9.2-9.3-.8 0-1.7.1-2.5.3l-.9.3-.2-.9c-1-4.1-4.7-7-8.9-7-5.1 0-9.2 4.2-9.2 9.3v8.2H32.2v-8.2c0-5.1-4.1-9.3-9.2-9.3-4.2 0-7.9 2.9-8.9 7l-.2.9-.9-.3c-.8-.2-1.6-.3-2.5-.3-5.1 0-9.2 4.2-9.2 9.3v16.7c0 5.1 4.1 9.3 9.2 9.3.8 0 1.7-.1 2.5-.3l.9-.3.2.9zm-.8-3.9c-.9.5-1.9.7-2.8.7-3.5 0-6.4-2.9-6.4-6.4V72.8c0-3.5 2.9-6.4 6.4-6.4 1 0 2 .2 2.8.7l.5.3V95l-.5.2zm16.1 1.6c0 3.5-2.9 6.4-6.4 6.4s-6.4-2.9-6.4-6.4V65.4c0-3.5 2.9-6.4 6.4-6.4s6.4 2.9 6.4 6.4v31.4zm31-11H32.1v-9.2h28.3v9.2zM76 65.5v31.4c0 3.5-2.9 6.4-6.4 6.4s-6.4-2.9-6.4-6.4V65.5c0-3.5 2.9-6.4 6.4-6.4s6.4 2.8 6.4 6.4zm12.5 24c0 3.5-2.9 6.4-6.4 6.4-1 0-2-.2-2.8-.7l-.5-.3V67.3l.5-.3c.9-.5 1.9-.7 2.9-.7 3.5 0 6.4 2.9 6.4 6.4v16.8h-.1zM71.6 65.6c0-.8-.6-1.4-1.4-1.4-.8 0-1.4.6-1.4 1.4v.9c0 .8.6 1.4 1.4 1.4.8 0 1.4-.6 1.4-1.4v-.9zM33.1 35.1c0-.8-.6-1.4-1.4-1.4h-4.2c-.8 0-1.4.6-1.4 1.4s.6 1.4 1.4 1.4h4.2c.8.1 1.4-.6 1.4-1.4zm0 7.6c0-.8-.6-1.4-1.4-1.4h-4.2c-.8 0-1.4.6-1.4 1.4s.6 1.4 1.4 1.4h4.2c.7 0 1.4-.7 1.4-1.4zm-19 9.3c.8 0 1.4-.6 1.4-1.4v-5.7l.4-.3c2.8-1.7 4.6-4.7 4.6-8s-1.8-6.3-4.6-8l-.4-.3v-.7c0-3.5 2.9-6.4 6.4-6.4h15.5c3.1 0 5.7 2.2 6.3 5.3l.1.5-.3.3c-2.9 2.8-5.5 7.9-5.5 12 0 3.6 1.7 7 5.2 8.1l.6.2v18.1c0 .8.6 1.4 1.4 1.4.8 0 1.4-.6 1.4-1.4V47.6l.6-.2c3.6-1.1 5.2-4.5 5.2-8.1 0-4.1-2.7-9.3-5.7-12.1l-.2-.2v-.3c-.4-3.8-3.2-7-6.8-8l-.7-.2v-7.8c0-.8-.6-1.4-1.4-1.4h-2.1V2.5c0-.8-.6-1.4-1.4-1.4h-8.9c-.8 0-1.4.6-1.4 1.4v6.8h-2.1c-.8 0-1.4.6-1.4 1.4v7.8l-.7.2c-4 1-6.9 4.7-6.9 9v1.6c0 .6.4 1.1.9 1.3 2.5.9 4.1 3.4 4.1 6 0 2.7-1.6 5.1-4.1 6-.5.2-.9.7-.9 1.3v6.7c-.1.8.6 1.4 1.4 1.4zm31.7-21.6c1.9 2.3 3.8 6 3.8 9 0 1.5-.4 3-1.3 4.1-.8.9-1.9 1.4-3.1 1.4-1.2 0-2.3-.5-3.1-1.4-1-1.1-1.3-2.6-1.3-4.1 0-3 1.9-6.7 3.8-9l.7-.8.5.8zM26.5 3.9h6.1v5.3h-6.1V3.9zM23 12.1h13.1v6.3H23v-6.3z"/></symbol><symbol viewBox="0 0 1161 356" id="frame-box"><path fill-rule="evenodd" d="M17.1 0H0v356h1161V0H17.1zM1 34h1v288H1V34zm2 0h1v30.1h1V34h1v30.1h1V34h27V7h30.1V6H34V5h30.1V4H34V3h1093v1h-30.1v1h30.1v1h-30.1v1h30.1v26.9h26.9v30.2h1V33.9h1v30.2h1V33.9h1V322h-1v-30.2h-1V322h-1v-30.2h-1V322H1127v27h-30.1v1h30.1v1h-30.1v1h30.1v1H34v-1h30.1v-1H34v-1h30.1v-1H34v-27H7v-30.1H6V322H5v-30.1H4V322H3V34zm1156-.1h1V322h-1V33.9zM34 354v1h1093v-1H34zm1126-29.9v-1h-1v1h1zm-2 0v-1h-1v1h1zm2 2v-1h-4v-2h-1v3h5zm-6 0v-3h-1v3h1zm6 2v-1h-5v1h5zm-6 0v-1h-1v1h1zm-1 1v1h1v-1h-1zm7 1v-1h-1v1h1zm-2 0v-1h-3v1h3zm-6-1h-7l2.4 2.4-2.5 2.5.8.8 4.7-4.7h1.6v-1zm-8 .6l-1.7 1.7 1.7 1.7 1.7-1.7-1.7-1.7zm-9.3 9.3l1.7 1.7 1.7-1.7-1.7-1.7-1.7 1.7zm5.1 0l.8.8.8-.8-.8-.8-.8.8zm3.4 1.7l-.8-.8-.8.8.8.8.8-.8zm0 1.7l.8.8.8-.8-.8-.8-.8.8zm2.5-.8l.8-.8-.8-.8-.8.8.8.8zm.8-2.6l.8.8.8-.8-.8-.8-.8.8zm6.5-7.9v1.6l-4.7 4.7.8.8 2.5-2.5 2.4 2.4v-7h-1zm.3 7.9l-1.7-1.7-1.7 1.7 1.7 1.7 1.7-1.7zm-8.4-1.7l.8.8.8-.8-.8-.8-.8.8zm-2.6-.8l-.8.8.8.8.8-.8-.8-.8zm2.6-.9l-.8-.8-.8.8.8.8.8-.8zm1.6 0l.8.8 4.6-4.6v-.8c-1.1 0-.6-.2-2.1 1.2l-3.3 3.4zm13.5-2.5v-2h-1v2h1zm0 1.9v-1h-1v1h1zm0 7v-6h-1v6h1zm0 2v-1h-1v1h1zm0 3v-2h-1v2h1zm-2 0v-15.9h-1V347h1zm-2 0v-15.9h-1v16c.3-.1.7-.1 1-.1zm-2 0v-7l-2.4 2.4-2.5-2.5-.8.8 4.7 4.7v1.6h1zm-2-.8l-4.6-4.6-.8.8 4.6 4.6h.9c-.1-.3-.1-.6-.1-.8zm8 2.8v-1h-1v1h1zm-4 0h2v-1h-3v1h1zm-2 0v-1h-1v1h1zm-2-1h-1.6l-4.7-4.7-.8.8 2.5 2.5-2.4 2.4h7v-1zm-8-3.1l-1.7 1.7 1.7 1.7 1.7-1.7-1.7-1.7zm16 6.1v-1h-5v1h5zm-6 0v-1h-1v1h1zm6 4v-1h-1v1h1zm-2 0v-1h-1v1h1zm-2 0v-2h4v-1h-5v3h1zm-2 0v-3h-1v3h1zm-5 0h1v-1h-2v1h1zm-5 0h3v-1h-6v1h3zm-4-1h-2v1h2v-1zm-12 0v1h1v-1h-1zm2 0v1h1v-1h-1zm-2-2v1h4v2h1v-3h-5zm6 0v3h1v-3h-1zm2 0v3h1v-2h14v2h1v-3h-16zm-8-2v1h5v-1h-5zm6 0v1h1v-1h-1zm2 0v1h16v-1h-16zm-1-1v-1h-1v1h1zm-7-1v1h1v-1h-1zm2 0v1h3v-1h-3zm6 0v1h7l-2.4-2.4 2.5-2.5-4.2-4.2-2.5 2.5-2.4-2.4v7h1v-1.6l4.7-4.7.8.8-4.6 4.6v.8h.9l4.6-4.6.8.8-4.7 4.7c-.2.2-1.2.2-1.5.2zm-8-3v2h1v-2h-1zm0-2v1h1v-1h-1zm0-7v6h1v-6h-1zm0-1.9v1h1v-1h-1zm0-3v2h1v-2h-1zm2 0V347h1v-15.9h-1zm2 0V347h1v-15.9h-1zm2 0v7l2.4-2.4 2.5 2.5.8-.8-4.8-4.8v-1.5h-.9zm2 .8l4.6 4.6.8-.8-4.6-4.6h-.9c.1.2.1.5.1.8zm-8-2.8v1h1v-1h-1zm4 0h-2v1h3v-1h-1zm2 0v1h1v-1h-1zm2 1h1.6l4.7 4.7.8-.8-2.5-2.5 2.4-2.4h-7v1zm-8-3v1h5v-1h-5zm6 0v1h1v-1h-1zm2 0v1h16v-1h-16zm-8-4v1h1v-1h-1zm2 0v1h1v-1h-1zm2 0v2h-4v1h5v-3h-1zm2 0v3h1v-3h-1zm2 0v3h16v-3h-1v2h-14v-2h-1zm14 0h-2v1h2v-1zm-11 0h-1v1h2v-1h-1zm5 0h-3v1h6v-1h-3zM32 355h1v-1h-1v1zm0-2h1v-1h-1v1zm-2 2h1v-4h2v-1h-3v5zm0-6h3v-1h-3v1zm-2 6h1v-5h-1v5zm0-6h1v-1h-1v1zm-1-1h-1v1h1v-1zm-1 7h1v-1h-1v1zm0-2h1v-3h-1v3zm1-6v-7l-2.4 2.4-2.5-2.5-.8.8 4.7 4.7v1.6h1zm-.6-8l-1.7-1.7L23 339l1.7 1.7 1.7-1.7zm-9.3-9.3l-1.8 1.7 1.8 1.7 1.7-1.7-1.7-1.7zm0 5.1l-.9.8.9.8.8-.8-.8-.8zm-1.8 3.4l.8-.8-.8-.8-.8.8.8.8zm-1.7 0l-.8.8.8.8.8-.8-.8-.8zm.8 2.5l.8.8.8-.8-.8-.8-.8.8zm2.7.9l-.9.8.9.8.8-.8-.8-.8zM25 348h-1.6l-4.7-4.7-.8.8 2.5 2.5L18 349h7v-1zm-7.9.3l1.7-1.7-1.7-1.7-1.8 1.7 1.8 1.7zm1.6-8.4l-.8.8.8.8.8-.8-.8-.8zm.9-2.6l-.8-.8-.8.8.8.8.8-.8zm.8 2.6l.8-.8-.8-.8-.8.8.8.8zm0 1.7l-.8.8 4.6 4.6h.8c0-1.1.2-.6-1.2-2.1l-3.4-3.3zM23 355h2v-1h-2v1zm-2 0h1v-1h-1v1zm-7 0h6.1v-1H14v1zm-2 0h1v-1h-1v1zm-3 0h2v-1H9v1zm0-2h16v-1H9v1zm0-2h16v-1H9v1zm0-2h7l-2.4-2.4 2.5-2.5-.8-.8-4.7 4.7H9v1zm.8-2l4.6-4.6-.8-.8-4.6 4.6v.9c.3-.1.6-.1.8-.1zM7 355h1v-1H7v1zm0-4v2h1v-3H7v1zm0-2h1v-1H7v1zm1-2v-1.6l4.7-4.7-.8-.8-2.5 2.5L7 340v7h1zm3.1-8l-1.7-1.7-1.7 1.7 1.7 1.7 1.7-1.7zM5 355h1v-5H5v5zm0-6h1v-1H5v1zm-4 6h1v-1H1v1zm0-2h1v-1H1v1zm0-2h2v4h1v-5H1v1zm0-2h3v-1H1v1zm0-5v1h1v-2H1v1zm0-5v3h1v-6H1v3zm1-4v-2H1v2h1zm0-12H1v1h1v-1zm0 2H1v1h1v-1zm2-2H3v4H1v1h3v-5zm0 6H1v1h3v-1zm0 2H1v1h2v14H1v1h3v-16zm2-8H5v5h1v-5zm0 6H5v1h1v-1zm0 2H5v16h1v-16zm1-1h1v-1H7v1zm1-7H7v1h1v-1zm0 2H7v3h1v-3zm0 6H7v7l2.4-2.4 2.5 2.5 4.2-4.2-2.5-2.5L16 329H9v1h1.6l4.7 4.7-.8.8-4.7-4.5H9v.9l4.6 4.6-.8.8-4.8-4.7V331zm3-8H9v1h2v-1zm2 0h-1v1h1v-1zm7 0h-6.1v1H20v-1zm2 0h-1v1h1v-1zm3 0h-2v1h2v-1zm0 2H9v1h16v-1zm0 2H9v1h16v-1zm0 2h-7l2.4 2.4-2.5 2.5.8.8 4.8-4.8H25v-.9zm-.8 2l-4.6 4.6.8.8 4.6-4.6v-.9c-.2.1-.5.1-.8.1zm2.8-8h-1v1h1v-1zm0 4v-2h-1v3h1v-1zm0 2h-1v1h1v-1zm-1 2v1.6l-4.7 4.7.8.8 2.5-2.5L27 338v-7h-1zm3-8h-1v5h1v-5zm0 6h-1v1h1v-1zm0 2h-1v16h1v-16zm4-8h-1v1h1v-1zm0 2h-1v1h1v-1zm0 2h-2v-4h-1v5h3v-1zm0 2h-3v1h3v-1zm0 2h-3v16h3v-1h-2v-14h2v-1zm0 14v-2h-1v2h1zm0-11v-1h-1v2h1v-1zm0 5v-3h-1v6h1v-3zM34 2V1h1093v1H34zm1126 29.9v1h-1v-1h1zm-2 0v1h-1v-1h1zm2-2v1h-4v2h-1v-3h5zm-6 0v3h-1v-3h1zm6-2v1h-5v-1h5zm-6 0v1h-1v-1h1zm-1-1v-1h1v1h-1zm7-1v1h-1v-1h1zm-2 0v1h-3v-1h3zm-6 1h-7l2.4-2.4-2.5-2.5.8-.8 4.7 4.7h1.6v1zm-8-.6l-1.7-1.7 1.7-1.7 1.7 1.7-1.7 1.7zm-9.3-9.3l1.7-1.7 1.7 1.7-1.7 1.7-1.7-1.7zm5.1 0l.8-.8.8.8-.8.8-.8-.8zm3.4-1.7l-.8.8-.8-.8.8-.8.8.8zm0-1.7l.8-.8.8.8-.8.8-.8-.8zm2.5.8l.8.8-.8.8-.8-.8.8-.8zm.8 2.6l.8-.8.8.8-.8.8-.8-.8zm6.5 7.9v-1.6l-4.7-4.7.8-.8 2.5 2.5 2.4-2.4v7h-1zm.3-7.9l-1.7 1.7-1.7-1.7 1.7-1.7 1.7 1.7zm-8.4 1.7l.8-.8.8.8-.8.8-.8-.8zm-2.6.8l-.8-.8.8-.8.8.8-.8.8zm2.6.8l-.8.8-.8-.8.8-.8.8.8zm1.6 0l.8-.8 4.6 4.6v.8c-1.1 0-.6.2-2.1-1.2l-3.3-3.4zm13.5 2.6v2h-1v-2h1zm0-2v1h-1v-1h1zm0-6.9v6h-1v-6h1zm0-2v1h-1v-1h1zm0-3v2h-1V9h1zm-2 0v15.9h-1V9h1zm-2 0v15.9h-1V9h1zm-2 0v7l-2.4-2.4-2.5 2.5-.8-.8 4.7-4.7V9h1zm-2 .8l-4.6 4.6-.8-.8 4.6-4.6h.9c-.1.3-.1.6-.1.8zm8-2.8v1h-1V7h1zm-4 0h2v1h-3V7h1zm-2 0v1h-1V7h1zm-2 1h-1.6l-4.7 4.7-.8-.8 2.5-2.5L1145 7h7v1zm-8 3.1l-1.7-1.7 1.7-1.7 1.7 1.7-1.7 1.7zm16-6.1v1h-5V5h5zm-6 0v1h-1V5h1zm6-4v1h-1V1h1zm-2 0v1h-1V1h1zm-2 0v2h4v1h-5V1h1zm-2 0v3h-1V1h1zm-5 0h1v1h-2V1h1zm-5 0h3v1h-6V1h3zm-4 1h-2V1h2v1zm-12 0V1h1v1h-1zm2 0V1h1v1h-1zm-2 2V3h4V1h1v3h-5zm6 0V1h1v3h-1zm2 0V1h1v2h14V1h1v3h-16zm-8 2V5h5v1h-5zm6 0V5h1v1h-1zm2 0V5h16v1h-16zm-1 1v1h-1V7h1zm-7 1V7h1v1h-1zm2 0V7h3v1h-3zm6 0V7h7l-2.4 2.4 2.5 2.5-4.2 4.2-2.5-2.5-2.4 2.4V9h1v1.6l4.7 4.7.8-.8-4.6-4.6v-.8h.9l4.6 4.6.8-.8-4.7-4.7c-.2-.2-1.2-.2-1.5-.2zm-8 3V9h1v2h-1zm0 2v-1h1v1h-1zm0 7v-6h1v6h-1zm0 1.9v-1h1v1h-1zm0 3v-2h1v2h-1zm2 0V9h1v15.9h-1zm2 0V9h1v15.9h-1zm2 0v-7l2.4 2.4 2.5-2.5.8.8-4.8 4.8v1.5h-.9zm2-.8l4.6-4.6.8.8-4.6 4.6h-.9c.1-.2.1-.5.1-.8zm-8 2.8v-1h1v1h-1zm4 0h-2v-1h3v1h-1zm2 0v-1h1v1h-1zm2-1h1.6l4.7-4.7.8.8-2.5 2.5 2.4 2.4h-7v-1zm-8 3v-1h5v1h-5zm6 0v-1h1v1h-1zm2 0v-1h16v1h-16zm-8 4v-1h1v1h-1zm2 0v-1h1v1h-1zm2 0v-2h-4v-1h5v3h-1zm2 0v-3h1v3h-1zm2 0v-3h16v3h-1v-2h-14v2h-1zm14 0h-2v-1h2v1zm-11 0h-1v-1h2v1h-1zm5 0h-3v-1h6v1h-3zM32 1h1v1h-1V1zm0 2h1v1h-1V3zm-2-2h1v4h2v1h-3V1zm0 6h3v1h-3V7zm-2-6h1v5h-1V1zm0 6h1v1h-1V7zm-1 1h-1V7h1v1zm-1-7h1v1h-1V1zm0 2h1v3h-1V3zm1 6v7l-2.4-2.4-2.5 2.5-.8-.8 4.7-4.7V9h1zm-.6 8l-1.7 1.7L23 17l1.7-1.7 1.7 1.7zm-9.3 9.3l-1.8-1.7 1.8-1.7 1.7 1.7-1.7 1.7zm0-5.1l-.9-.8.9-.8.8.8-.8.8zm-1.8-3.4l.8.8-.8.8-.8-.8.8-.8zm-1.7 0l-.9-.8.8-.8.8.8-.7.8zm.8-2.5l.8-.8.8.8-.8.8-.8-.8zm2.7-.9l-.9-.8.9-.8.8.8-.8.8zM25 8h-1.6l-4.7 4.7-.8-.8 2.5-2.5L18.1 7h7c-.1.3-.1.7-.1 1zm-7.9-.3l1.7 1.7-1.7 1.7-1.8-1.7 1.8-1.7zm1.6 8.4l-.8-.8.8-.8.8.8-.8.8zm.9 2.6l-.8.8-.8-.8.8-.8.8.8zm.8-2.6l.8.8-.8.8-.8-.7.8-.9zm0-1.7l-.8-.8L24.2 9h.8c0 1.1.2.6-1.2 2.1l-3.4 3.3zM23 1h2v1h-2V1zm-2 0h1v1h-1V1zm-7 0h6v1h-6V1zm-2 0h1v1h-1V1zM9 1h2v1H9V1zm0 2h16v1H9V3zm0 2h16v1H9V5zm0 2h7l-2.4 2.4 2.5 2.5-.8.8L10.5 8H9V7zm.8 2l4.6 4.6-.8.8L9 9.8V9h.8zM7 1h1v1H7V1zm0 4V3h1v3H7V5zm0 2h1v1H7V7zm1 2v1.6l4.7 4.7-.8.8-2.5-2.5L7 16V9h1zm3.1 8l-1.7 1.7L7.7 17l1.7-1.7 1.7 1.7zM5 1h1v5H5V1zm0 6h1v1H5V7zM1 1h1v1H1V1zm0 2h1v1H1V3zm0 2h2V1h1v5H1V5zm0 2h3v1H1V7zm0 5v-1h1v2H1v-1zm0 5v-3h1v6H1v-3zm1 4v2H1v-2h1zm0 12H1v-1h1v1zm0-2H1v-1h1v1zm2 2H3v-4H1v-1h3v5zm0-6H1v-1h3v1zm0-2H1v-1h2V10H1V9h3v16zm2 8H5v-5h1v5zm0-6H5v-1h1v1zm0-2H5V9h1v16zm1 1h1v1H7v-1zm1 7H7v-1h1v1zm0-2H7v-3h1v3zm0-6H7v-7l2.4 2.4 2.5-2.5 4.2 4.2-2.5 2.5L16 27H9v-1h1.6l4.7-4.7-.8-.8L9.8 25H9v-.9l4.6-4.6-.8-.8L8 23.4V25zm3 8H9v-1h2v1zm2 0h-1v-1h1v1zm7 0h-6.1v-1H20v1zm2 0h-1v-1h1v1zm3 0h-2v-1h2v1zm0-2H9v-1h16v1zm0-2H9v-1h16v1zm0-2h-7l2.4-2.4-2.5-2.5.8-.8 4.8 4.8H25v.9zm-.8-2l-4.6-4.6.8-.8 4.6 4.6v.9c-.2-.1-.5-.1-.8-.1zm2.8 8h-1v-1h1v1zm0-4v2h-1v-3h1v1zm0-2h-1v-1h1v1zm-1-2v-1.6l-4.7-4.7.8-.8 2.5 2.5L27 18v7h-1zm3 8h-1v-5h1v5zm0-6h-1v-1h1v1zm0-2h-1V9h1v16zm4 8h-1v-1h1v1zm0-2h-1v-1h1v1zm0-2h-2v4h-1v-5h3v1zm0-2h-3v-1h3v1zm0-2h-3V9h3v1h-2v14h2v1zm0-14v2h-1v-2h1zm0 11v1h-1v-2h1v1zm0-5v3h-1v-6h1v3z"/></symbol><symbol viewBox="-6 253.3 607.3 190.1" id="frame-box2"><path d="M585 274.2h3.1v-.5H585zm-2.6-4.1h.5l2.4-2.4-.4-.4-2.4 2.4c0 .1 0 .3-.1.4zm1.1 4.1h1v-.5h-1zm1.36-7.789l-.424-.424.424-.424.425.424zm-2.248.501l-.849-.849.849-.848.848.848zm3.096-1.407l-.424-.424.424-.424.425.424zm1.692 2.695l-.4.4 1.3 1.3-1.2 1.2h3.6v-.5h-.8l-2.5-2.4zm1.2 5.5h1v.5h-1zm-6.1-2.1v.5h8.2v-.5h-4.1z"/><path d="M582.5 274.2h.5v-1h7.2v1h.5v-1.5h-8.2zm3.21-7.719l.423.424-.424.425-.424-.425zm4.89 3.619v-.4l-2.4-2.4-.4.4 1.7 1.7c.8.8.6.7 1.1.7zm-3.169-4.546l-.424-.425.424-.424.424.424zm.819.812l-.425-.425.425-.424.424.424zm-.815.978l-.424-.424.424-.424.424.424zm-.845-3.447l.424.424-.424.424-.424-.424zm-.444 3.827l.425-.424.424.424-.424.424zm4.554-6.324v-.5h-3.6l1.2 1.2-1.3 1.3.4.4 2.4-2.4h.9zm.5 12.8h.5v-1.5h-.5v1.5zm-4.652-5.186l.848.848-.848.849-.849-.849z"/><path d="M582.5 270.6v.5h3.6l-1.2-1.2 1.3-1.3-.4-.4-2.4 2.4h-.9zm8.2-10.2v-.5h-8.2v.5h4.1zm-2.6-2.6H585v.6h3.1zm-2.5 6.1l.5-.5-1.3-1.3 1.2-1.2h-3.6v.5c.2 0 .7 0 .8.1l2.4 2.4z"/><path d="M590.7 257.8h-.5v1.1H583v-1.1h-.5v1.6h8.2z"/><path d="M583.5 257.8h1v.5h-1zm1.7 6.5l-2.3-2.3h-.5v.4l2.4 2.4.4-.5zm-1.3 1.3l.4-.4-2.4-2.4v-.9h-.5v3.6l1.2-1.2 1.3 1.3zm-2.5-4.7h.5v.5h-.5zm.5-3.1h-.5v1.5h.5v-1.5zm-.5 2.1h.5v.5h-.5zm9.8 0h.5v.5h-.5zm-2 6.6l-.4.4 2.4 2.4v.8h.5v-3.6l-1.2 1.2-1.3-1.2z"/><path d="M590.45 265.117l.848.848-.849.849-.848-.849zm-.85-7.317h-1v.6h1zm1.6 12.8h.5v.5h-.5zm.5-12.8h-.5v1.5h.5v-1.5z"/><path d="M589.2 265.6l1.3-1.3 1.2 1.2v-3.6h-.5v.8l-2.4 2.4.4.5zm2 6h.5v.5h-.5zm-3.3-7.3l.4.4 2.4-2.4c0-.1 0-.3.1-.4h-.5l-2.4 2.4zm3.3-3.4h.5v.5h-.5zm-4.625 2.186l-.849-.849.849-.848.848.848zM1.5 259.9h-1v.5H2v-2.6h-.5v2.1zm1.1 14.4h.5v-2.6h-.5v2.6zM.5 261.4H2v-.5H.5v.5zm0 1.1h1v7.1h-1v.5h1.6v-8.2H.5zm0 8.7H2v-.5H.5v.5zm2.1-.5h.5v.5h-.5zm0-10.3h.5v-2.6h-.5v2.6zm590.6 13.3h.5v.5h-.5zM2.6 260.9h.5v.5h-.5zm0 9.2h.5v-8.2h-.5z"/><path d="M.5 268.1H1v1H.5zm0-10.3H1v.5H.5zm0 1.1H1v.5H.5zM1 263H.5v1H1zm593.3 10.7h.5v.5h-.5zm-593.8 0H1v.5H.5zm0-1H1v.5H.5zm.5-8.2H.5v3.1H1z"/><path d="M.5 272.2h1v2.1H2v-2.6H.5v.5zm593.8-4.6h.5v-3.1h-.5v3.1zm0 3.5h.5v-.5h-.5v.5zm.5.5h-2.6v.5h2.6v-.5zm-1.1-1h-1.5v.5h1.5v-.5zm-.5-.5h.5v-8.2h-.5v8.2zm.5-8.7v-.5h-1.5v.5h1.5zm1.1-1.5h-2.6v.5h2.6v-.5zm-14.9 2h-.5v8.2h.5v-8.2zm12.8 11.3h2.1v-.5h-2.6v1.5h.5v-1zm-12.3-3.1h.5v-8.2h-.5v8.2zm-1 3.6h.5v.5h-.5zm13.3-11.8h-.5v8.2h.5v-8.2zm1.6 6.1h.5v.5h-.5zm-14.9-6.6h1.5v-.5h-1.5v.5zm14.9 2.1h.5v.5h-.5zm0 6.6h.5v-1h-.5v1zm0-12.3h.5v.5h-.5zm.5 1.1h-2.1v-1h-.5v1.5h2.6v-.5zm-.5 4.1h.5v-1h-.5v1z"/><path d="M593.2 257.8h.5v.5h-.5zm1.1 3.6h.5v-.5h-.5v.5zm-14.9 9.2v.5h1.5v-.5h-1.5zm-566.1.1h.5v.5h-.5zm-.646-5.582l.849.848-.849.849-.848-.849zM12.2 263c.7-.8.6-.5.6-1.1h-.4l-2.4 2.4.4.4 1.8-1.7zm1.1 9.7v.5h.5v-1.5h-.5v1zm0 1.6h.5v-.5h-.5v.5z"/><path d="M11.3 266.5l-.4.4 2.4 2.4v.8h.5v-3.6l-1.2 1.2-1.3-1.2zm5.1 1.1h.5v-3.1h-.5zm0-4.6h.5v1h-.5zm0-5.2h.5v.5h-.5zm0 15.9h.5v.5h-.5zm0-1h.5v.5h-.5zm0-3.6h.5v-1h-.5zm-4.6 5.2h1v-.5h-1v.5zm-4.7 0h3.1v-.5H7.1v.5zm3.7-.6h.5v.5h-.5zm-6.2.6h1v-.5h-1v.5zm1.6-.6h.5v.5h-.5zm-1.6-1.5h8.2v-.5H4.6v.5zm5.4-4.4l2.4 2.4c.2 0 .3 0 .4.1v-.5l-2.4-2.4-.4.4zm-.4.5l-.4.4 1.3 1.3-1.2 1.2h3.6v-.5h-.8l-2.5-2.4zm-3.5-1.8l-1.3 1.3-1.2-1.2v3.6h.5v-.8l2.4-2.4-.4-.5zm4.4-.1l.4-.4-.4-.4-.5.4zm-5.9 6.8h8.2v-.5H4.6v.5zm9.2-15.4h-.5v.5h.5v-.5zm-3.3 4.4l-1.3 1.3.4.4 2.4-2.4h.8c0-.2 0-.4.1-.5H9.3l1.2 1.2zm3.3-3.3h-.5v1.5h.5v-1.5zm-1-1.1h-1v.5h1v-.5zm.5 3.1h.5v.5h-.5zm-2 4.7l1.3-1.3 1.2 1.2v-3.6h-.5v.8l-2.4 2.4.4.5zm570.6 3.7l2.5-2.5-.4-.4-1.3 1.3-1.2-1.2v3.6h.5c-.1-.2-.1-.6-.1-.8zM10.8 257.8h.5v.5h-.5zm-3.6.6h3.1v-.5H7.2v.5zm7.7 3.5h-.5v8.2h.5zm2 8.8h-1.5v.5h1.5v-.5z"/><path d="M15.9 272.2h1v-.5h-1.5v2.6h.5v-2.1zm1-2.6h-1v-7.1h1v-.6h-1.5v8.2h1.5zm0-8.7h-1.5v.5h1.5v-.5zm0-1h-1v-2.1h-.5v2.6h1.5v-.5z"/><path d="M16.4 258.9h.5v.5h-.5zm-2 11.8h.5v.5h-.5zm.5 1h-.5v2.6h.5v-2.6zm0-13.9h-.5v2.6h.5v-2.6zm-.5 3.1h.5v.5h-.5zm566.5 10.7h-2.6v.5h2.6v-.5zm-2-1h-.5v.5h.5v-.5zm1.5 3.6h.5v-1.5h-2.6v.5h2.1v1zm-1.5-5.1h-.5v1h.5v-1zm-.5 4.6h.5v.5h-.5zm0-5.7h.5v.5h-.5zm-565.6-9.1H4.6v.5h8.2v-.5zm565-1.1H17.4v.5h560.4v-.5zm-572.2 0h-1v.5h1v-.5zm573.3 6.7h-.5v3.1h.5v-3.1zM6.2 257.8h.5v.5h-.5zm575.2 13.8h.5v.5h-.5zm-2-13.8h.5v.5h-.5zm2.5 14.9h-.5v1.5h.5v-1.5zm-3.5-14.9h.5v.5h-.5zm3 12.8h.5v.5h-.5zM12.8 260.4v-.5H4.6v.5h8.2zm565.6 3.1h.5v.5h-.5zm.5-2.6h-.5v.5h.5v-.5zm0 1h-.5v1h.5v-1zm2-2h-2.6v.5h2.6v-.5z"/><path d="M580.9 257.8h-.5v1h-2.1v.5h2.6v-1.5zM8.8 267.4l-.5.4.5.4.4-.4zm-4.7-8v-.5h-.5v1.5h.5v-1zm4.7 1.9l-1 .9 1 .8.8-.8z"/><path d="M7.8 263.8l.4-.4-1.2-1.2 1.2-1.2H4.6v.5h.8l2.4 2.3zm-.4.5L5 261.9h-.4v.4l2.4 2.4.4-.4zm-3.8-3.4h.5v.5h-.5zm.5-3.1h-.5v.5h.5v-.5zm-.5 12.9h.5v.5h-.5zm0 2.5h.5v-1.5h-.5v1.5zm1.198-6.255l-.848-.848.848-.849.849.849z"/><path d="M6.1 265.6l.4-.4-2.4-2.4v-.8h-.5v3.6l1.2-1.2 1.3 1.2zm-2.5 8.7h.5v-.5h-.5v.5zm6.008-8.737l-.424-.424.424-.424.425.424zM4.6 270.1H5l2.4-2.3.1.1-.6-.6-2.3 2.3v.5zm3.218-4.533l-.425-.424.425-.424.424.424zM7.3 266l-.4-.4-.4.4.5.5zm1-1.7l.5.4.4-.4-.4-.4zm1.807 2.607l-.424.424-.425-.424.425-.425zm-1.897-.021l-.425.424-.424-.424.424-.424zM4.6 271.2h3.6L7 269.9l1.3-1.3-.4-.4-2.4 2.4h-.9v.6z"/><path d="M9.6 269.9l-.8-.8-1 .8 1 .9z"/><path d="M0 257.3v91.6h.5v-74.1H1v74.1h.5v-74.1H2v15.4h.5v-15.4H3v15.4h.5v-15.4h13.8V261h15.4v-.5H17.4v-.5h15.4v-.5H17.4v-.5h560.4v.5h-15.4v.5h15.4v.5h-15.4v.5h15.4v13.8h13.8v15.5h.5v-15.5h.5v15.5h.5v-15.5h.5V349h.6v-74.2h.5V349h.5v-91.6H0zm.5.5H1v.5H.5v-.5zm0 1.1H1v.5H.5v-.5zm0 4.6v-.5H1v1H.5v-.5zm0 2.5v-1.5H1v3.1H.5V266zm0 2.1H1v1H.5v-1zm.5 6.2H.5v-.5H1v.5zm0-1.1H.5v-.5H1v.5zm1.1 1.1h-.6v-2.1h-1v-.5H2c.1.9.1 1.7.1 2.6zm0-3.1H.6v-.5h1.5v.5zm0-1.1H.5v-.5h1v-7.2h-1v-.5H2v8.2zm0-8.7H.6v-.5h1.5v.5zm0-1H.6v-.5h1v-2.1h.5v2.6zm1 13.9h-.5v-2.6h.5v2.6zm0-3.1h-.5v-.5h.5v.5zm0-5.2v4.1h-.5v-8.2h.5v4.1zm0-4.6h-.5v-.5h.5v.5zm0-1h-.5v-2.6h.5v2.6zm590.6 13.8h-.5v-.5h.5v.5zm1.1 0h-.5v-.5h.5v.5zm0-3.1h-.5v-.5h.5v.5zm0-1h-.5v-1h.5v1zm0-1.5h-.5v-.6h.5v.6zm0-1h-.5v-3.1h.5v3.1zm0-3.6h-.5v-.5h.5v.5zm0-1h-.5v-1h.5v1zm0-1.6h-.5v-.5h.5v.5zm-.5-3.6h.5v.5h-.5v-.5zm-1.1 0h.5v.5h-.5v-.5zm-1 0h.5v1h2.1v.5h-2.6v-1.5zm0 2.1h2.6v.5h-2.6v-.5zm0 1h1.5v.5h-1.5v-.5zm1.5 1v8.2h-.5v-8.2h.5zm-1.5 4.1v-4.1h.5v8.2h-.5V266zm0 4.6h1.5v.5h-1.5v-.5zm0 1h2.6v.5h-2.6v-.5zm0 1.1h2.6v.5h-2.1v1h-.5v-1.5zm-12.3 1.5h-.5v-.5h.5v.5zm1-3.1h-1.5v-.5h1.5v.5zm-1.5-1v-8.2h.5v8.2h-.5zm1.5 0h-.5v-8.2h.5v8.2zm0-8.7h-1.5v-.5h1.5v.5zm7.4 5.9l2.4 2.4v.4c-.6 0-.3.1-1.1-.6l-1.7-1.7.4-.5zm-.9 0l-.4-.4.4-.4.4.4-.4.4zm.9-.8l-.4-.4.4-.4.4.4-.4.4zm-.9-1l-.4-.4.4-.4.4.4-.4.4zm-1.7 2.7l.4.4-1.3 1.3 1.2 1.2h-3.6v-.5h.8l2.5-2.4zm-.4-1.3l.4-.4.4.4-.4.4-.4-.4zm.4 3l.9-.9.9.9-.9.9-.9-.9zm.5-2.2l.4-.4.4.4-.4.4-.4-.4zm0-3.4l.4-.4.4.4-.4.4-.4-.4zm1.2-.5l-.4-.4 1.3-1.3-1.2-1.2h3.6v.5h-.8l-2.5 2.4zm0-1.6l-.9.9-.9-.9.9-.9.9.9zm-1.7 3.4l-.4-.4.4-.4.4.4-.4.4zm-.5.4l-.4.4-.4-.4.4-.4.4.4zm-.4 1.3l.4.4-2.4 2.4h-.5c.1-.1.1-.3.1-.4l2.4-2.4zm-.3 6.9h-1v-.5h1v.5zm3.6 0H585v-.5h3.1v.5zm1.5 0h-1v-.5h1v.5zm1.1 0h-.5v-1H583v1h-.5v-1.5h8.2v1.5zm0-2.1h-8.2v-.5h8.2v.5zm0-1h-3.6l1.2-1.2-1.3-1.3.4-.4 2.4 2.4h.8c.1.2.1.4.1.5zm1 3.1h-.5v-1.5h.5v1.5zm0-2.1h-.5v-.5h.5v.5zm0-1h-.5v-.5h.5v.5zm0-1h-.5v-.8l-2.4-2.4.4-.4 1.3 1.3 1.2-1.2v3.5zm-2.1-4.1l.9-.9.9.9-.9.9-.9-.9zm1.6-8.2h.5v1.5h-.5v-1.5zm0 2.1h.5v.5h-.5v-.5zm0 1h.5v.5h-.5v-.5zm0 1h.5v3.6l-1.2-1.2-1.3 1.3-.4-.4 2.4-2.4v-.9zm-.5.5l-2.4 2.4-.4-.4 2.4-2.4h.5c-.1.1-.1.3-.1.4zm-2.1-4.6h1v.5h-1v-.5zm-3.6 0h3v.5h-3v-.5zm-1.5 0h1v.5h-1v-.5zm-1 0h.5v1h7.2v-1h.5v1.5h-8.2v-1.5zm0 2.1h8.2v.5h-8.2v-.5zm0 1h3.6l-1.2 1.2 1.3 1.3-.5.5-2.4-2.4c-.1-.1-.6-.1-.8-.1v-.5zm-.1 1.1h.5l2.3 2.3-.4.4-2.4-2.4v-.3zm-1-4.2h.5v1.5h-.5v-1.5zm0 2.1h.5v.5h-.5v-.5zm0 1h.5v.5h-.5v-.5zm0 1h.5v.9l2.4 2.4-.4.4-1.3-1.3-1.2 1.2v-3.6zm2.1 4.1l-.9.9-.9-.9.9-.9.9.9zm-2.1.5l1.2 1.2 1.3-1.3.4.4-2.5 2.5v.8h-.5c.1-.6.1-2.6.1-3.6zm0 4.1h.5v.5h-.5v-.5zm0 1h.5v.5h-.5v-.5zm0 1.1h.5v1.5h-.5v-1.5zm-2-14.9h.5v.5h-.5v-.5zm-1 0h.5v.5h-.5v-.5zm0 1.1h2.1v-1h.5v1.5h-2.6v-.5zm0 1h2.6v.5h-2.6v-.5zm0 1h.5v.5h-.5v-.5zm0 1h.5v1h-.5v-1zm0 1.6h.5v.5h-.5v-.5zm0 1h.5v3.1h-.5v-3.1zm0 3.5h.5v.5h-.5v-.5zm0 1.1h.5v1h-.5v-1zm0 1.5h.5v.5h-.5v-.5zm0 1h2.6v.5h-2.6v-.5zm0 1.1h2.6v1.5h-.5v-1h-2.1v-.5zm0 1h.5v.5h-.5v-.5zm-561-15.9h560.4v.5H17.4v-.5zm-11.2 0h.5v.5h-.5v-.5zm-1.6 0h1v.5h-1v-.5zm0 1.1h8.2v.5H4.6v-.5zm0 1h8.2v.5H4.6v-.5zm5 5.7l-.4-.4.4-.4.4.4-.4.4zm.4 1.3l-.4.4-.4-.4.4-.4.4.4zm-1.2-2.2l-.5-.4.5-.4.4.4-.4.4zM6.5 266l.4-.4.4.4-.3.5-.5-.5zm1.1 2l-.1-.1-2.5 2.2h-.4v-.5l2.3-2.3.7.7zm.2-2.4l-.4-.4.4-.4.4.4-.4.4zm.5 1.3l-.4.4-.4-.4.4-.4.4.4zm-2.9 3.8l2.5-2.4.4.4-1.3 1.2 1.2 1.2H4.6v-.5c.2.1.6.1.8.1zm2.4-.8l.9-.9.9.9-.9.9-.9-.9zm.5-2.1l.5-.4.4.4-.4.4-.5-.4zm.5-4.8l-.9-.9.9-.9.9.9-.9.9zm-4.2-2.1h3.6L7 262.2l1.3 1.3-.4.4-2.5-2.4h-.8v-.6zm0 1H5l2.4 2.4-.4.4-2.4-2.4v-.4zm-1-4.1h.5v.5h-.5v-.5zm0 2.1v-1h.5v1.5h-.5v-.5zm0 1h.5v.5h-.5v-.5zm0 1h.5v.8l2.4 2.4-.4.4-1.3-1.3-1.2 1.2v-3.5zm2.1 4.1l-.9.9-.9-.9.9-.9.9.9zm-1.6 8.3h-.5v-.5h.5v.5zm0-1.6v.5h-.5v-1.5h.5v1zm0-1.5h-.5v-.5h.5v.5zm0-1.1h-.5v-3.6l1.2 1.2 1.3-1.3.4.4-2.4 2.4v.9zm1.5 4.2h-1v-.5h1v.5zm1.1 0h-.5v-.5h.5v.5zm3.6 0H7.2v-.5h3.1v.5zm1 0h-.5v-.5h.5v.5zm1.5 0h-1v-.5h1v.5zm0-1.1H4.6v-.5h8.2v.5zm0-1H4.6v-.5h8.2v.5zm0-1H9.2l1.2-1.2-1.3-1.3.4-.4 2.5 2.5h.8v.4zm0-1c-.1-.1-.3-.1-.4-.1l-2.4-2.4.4-.4 2.4 2.4v.5zm-2.3-4.6l.4.4-.4.4-.5-.4.5-.4zm-.5-1.3l2.4-2.4h.4c0 .6.1.3-.6 1.1l-1.7 1.7-.5-.4zm3.8 10h-.5v-.5h.5v.5zm0-2.1v1h-.5v-1.5h.5v.5zm0-1h-.5v-.5h.5v.5zm0-1.1h-.5v-.8l-2.4-2.4.4-.4 1.3 1.3 1.2-1.2v3.5zm-2-4.1l.9-.9.9.9-.9.9-.9-.9zm5.1 8.3h-.5v-.5h.5v.5zm0-1.1h-.5v-.5h.5v.5zm0-4.6v.5h-.5v-1h.5v.5zm0-2.6v1.5h-.5v-3.1h.5v1.6zm0-2h-.5v-1h.5v1zm-.5-6.2h.5v.5h-.5v-.5zm0 1.1h.5v.5h-.5v-.5zm-1-1.1h.5v2.1h1v.5h-1.5v-2.6zm0 3.1h1.5v.5h-1.5v-.5zm0 1h1.5v.5h-1v7.2h1v.5h-1.5v-8.2zm0 8.8h1.5v.5h-1.5v-.5zm0 1h1.5v.5h-1v2.1h-.5v-2.6zm-1-13.9h.5v2.6h-.5v-2.6zm0 3.1h.5v.5h-.5v-.5zm0 5.1v-4.1h.5v8.2h-.5V266zm0 4.7h.5v.5h-.5v-.5zm0 1h.5v2.6h-.5v-2.6zm-1.1-13.9h.5v.5h-.5v-.5zm0 1.6v-.5h.5v1.5h-.5v-1zm0 1.5h.5v.5h-.5v-.5zm0 1h.5v3.6l-1.2-1.2-1.3 1.3-.4-.4 2.4-2.4v-.9zm-.5-.5H12l-2.4 2.4-.4-.4 1.3-1.3-1.2-1.2h3.6c-.1.2-.1.4-.1.5zm-1-3.6h1v.5h-1v-.5zm-1 0h.5v.5h-.5v-.5zm-.5.6H7.2v-.5h3.1v.5z"/><path d="M6.2 438.5h.5v.5h-.5zm-1.6-.5h8.2v-.5H4.6v.5zm3-9.1l-.2.1-2.4-2.3h-.4v.5l2.3 2.3.7-.6zm-3 7.5v.5h8.2v-.5H4.6zm2.6 2.6h3.1v-.5H7.2v.5zm4.6 0h1v-.5h-1v.5zm1.5-1.5v.5h.5v-1.5h-.5v1zm-1.3-2.1L9.6 433l-.4.4 1.3 1.3-1.2 1.2h3.6c-.1-.2-.1-.4-.1-.5H12zm1.3 0h.5v.5h-.5zm0 3.6h.5v-.5h-.5v.5zm-9.7-2.1v1h.5v-1.5h-.5v.5zm1.24-5.256l-.849-.849.848-.848.849.848z"/><path d="M6.1 430.3l.4-.4-2.4-2.4v-.8h-.5v3.6l1.2-1.2 1.3 1.2zm-2.5-4.6h.5v.5h-.5zm.5-1.6v-.5h-.5v1.5h.5v-1zm.5 14.9h1v-.5h-1v.5zm-.5-16.4h-.5v.5h.5v-.5zM3.6 439h.5v-.5h-.5v.5zm0-3.6h.5v.5h-.5zm2.5-4.2l-1.3 1.3-1.2-1.2v3.6h.5v-.8l2.4-2.4-.4-.5zm5.2 0l-.4.4 2.4 2.4v.8h.5v-3.6l-1.2 1.2-1.3-1.2zm-.5 7.3h.5v.5h-.5zm4.6-2.6h1.5v-.5h-1.5v.5zm1-3.1h.5v1h-.5zm-1 6.2h.5v-2.1h1v-.5h-1.5v2.6zm1-6.7h.5v-3.1h-.5zm0 6.2h.5v.5h-.5z"/><path d="M16.4 437.5h.5v.5h-.5zm0-8.8h.5v-1h-.5zm-.5-6.1h-.5v2.6h1.5v-.5h-1v-2.1zm-.5 3.6h1.5v-.5h-1.5v.5z"/><path d="M15.4 434.9h1.5v-.5h-1v-7.2h1v-.5h-1.5zm-1 4.1h.5v-2.6h-.5v2.6zm-1.1-13.3h.5v.5h-.5zm1.1-.6h.5v-2.6h-.5v2.6zm-1.1 2.4l-2.4 2.4.4.4 1.3-1.3 1.2 1.2v-3.6h-.5v.9zm0-4.4h.5v-.5h-.5v.5zm0 1v1h.5v-1.5h-.5v.5zm1.1 6.7v4.1h.5v-8.2h-.5zm0-5.1h.5v.5h-.5zm0 9.7h.5v.5h-.5z"/><path d="M12.613 429.9l.848.848-.848.848-.849-.848zM.5 427.2h1v7.2h-1v.5h1.6v-8.2H.5zM2.6 439h.5v-2.6h-.5v2.6zm-1.1-14.4h-1v.5H2v-2.6h-.5v2.1zm3.9 1.6l2.4 2.4.4-.4-1.2-1.3 1.2-1.2H4.6v.5h.8zm-4.9 0H2v-.5H.5v.5zm0 9.7H2v-.5H.5v.5zm10.3-13.3h.5v.5h-.5zm-8.2 12.3h.5v-8.2h-.5zm0-9.8h.5v-2.6h-.5v2.6zm10.2-2.5h-1v.5h1v-.5zm-10.2 3.1h.5v.5h-.5zm13.8-2.1h.5v.5h-.5zm-15.9-1H1v.5H.5z"/><path d="M.5 423.6H1v.5H.5zm0 4.1H1v1H.5zm.5 5.1H.5v1.1H1zm-.5 4.7H1v.5H.5zm0 1H1v.5H.5zm.5-9.3H.5v3.1H1z"/><path d="M.5 436.9h1v2.1H2v-2.6H.5v.5zm2.1-1.5h.5v.5h-.5zm7-8.5l-.8-.9-1 .9 1 .9zm-.03 4.37l.425.424-.425.424-.424-.424zm-.77-2.67l-.5.4.5.5.4-.5zm.396 1.35l.424-.425.425.425-.425.424zM8.8 432.1l-.5.4.5.4.4-.4z"/><path d="M12.8 425.7H9.2l1.2 1.2-1.3 1.3.4.4 2.5-2.5h.8v-.4zm0 .9c-.1.1-.3.1-.4.1L10 429l.4.4 2.4-2.4v-.4zm-3.2 8.1l-.8-.9-1 .9 1 .9zm.4-2.2l2.4 2.4h.4c0-.6.1-.3-.6-1.1l-1.7-1.7-.5.4zm0-1.7l.5.4.4-.4-.4-.4zm2.8-7.2H4.6v.5h8.2v-.5zm0 1H4.6v.5h8.2v-.5zm-7.2-2h-1v.5h1v-.5zm2.566 9.015l-.424.425-.424-.425.424-.424zM6.2 422.6h.5v.5h-.5zm4.1 0H7.2v.5h3.1v-.5zm-2.111 7.364l-.424.424-.425-.424.425-.425zM6.9 431.2l.4-.4-.3-.4-.5.4z"/><path d="M4.6 435.9h3.6L7 434.7l1.3-1.3-.5-.4-2.5 2.4h-.8c.1.2.1.4.1.5zm0-1H5l2.4-2.4-.4-.4-2.4 2.4v.4zm586.6.5h.5v.5h-.5zm-8.7 1v.5h8.2v-.5h-4.1zm0 2.6h.5v-1h7.2v1h.5v-1.5h-8.2zm4.9-6l-.4.4 1.3 1.3-1.2 1.2h3.6v-.5h-.8l-2.5-2.4z"/><path d="M585 439h3.1v-.5H585zm3.6 0h1v-.5h-1zm-5.1-.5h1v.5h-1zm5.7-7.3l-.4.4 2.4 2.4v.8h.5v-3.6l-1.2 1.2-1.3-1.2zm2 5.2h.5v.5h-.5zm0 2.6h.5v-1.5h-.5v1.5zm-2.9-6.9l-.4.4 2.4 2.4h.5c-.1-.2-.1-.3-.1-.4l-2.4-2.4z"/><path d="M590.408 429.898l.848.849-.848.848-.849-.848zM578.4 425.2h2.6v-.5h-2.6v.5zm1 .5v.5h1.5v-.5h-1.5zm1 9.2h.5v-8.2h-.5v8.2zm-.5-8.2h-.5v8.2h.5v-8.2zm.5-3h-2.1v.5h2.6v-1.5h-.5v1zm3.5 7.5l-1.3 1.3-1.2-1.2v3.6h.5v-.9l2.4-2.4-.4-.4zm1.3 1.3l-.4-.4-2.4 2.4v.4h.5l2.3-2.4zm-3.8 6.5h.5v-1.5h-.5v1.5zm0-3.6h.5v.5h-.5zm0 1h.5v.5h-.5zm11.3-9.7h-.5v8.2h.5v-8.2zm1.6 1.1h.5v-1h-.5v1zm0 7.1h.5v-1h-.5v1z"/><path d="M591.2 427.6l-2.4 2.4.4.4 1.3-1.3 1.2 1.2v-3.6h-.5v.9zm-574.8-5h.5v.5h-.5zm577.9 10.2h.5v.5h-.5zm0-6.6h.5v-.5h-.5v.5zm0-3.6h.5v.5h-.5zm-2.1 2.6h2.6v-.5h-2.6v.5zm.5-2.6h-.5v1.5h2.6v-.5h-2.1v-1zm1.6 5.7h.5v.5h-.5zm-14.9 7.1v.5h1.5v-.5h-1.5zm13.8-.5h.5v-8.2h-.5v8.2zm.5-8.7v-.5h-1.5v.5h1.5z"/><path d="M593.2 422.6h.5v.5h-.5zm.5 13.3v-.5h-1.5v.5h1.5zm-.5 2.6h.5v.5h-.5zm-1-1.6h2.6v-.5h-2.6v.5z"/><path d="M592.2 439h.5v-1h2.1v-.5h-2.6v1.5zm2.1-.5h.5v.5h-.5zm0-2.6h.5v-.5h-.5v.5zm0-3.6h.5v-3.1h-.5v3.1zm-8.634-1.998l-.424-.424.424-.424.424.424zM582.5 435.4v.5h3.6l-1.2-1.2 1.3-1.3-.5-.5-2.4 2.4c-.2.1-.7.1-.8.1zm2.345-4.176l-.425-.424.425-.424.424.424zm1.382-2.124l.424-.425.424.425-.424.424zm-.494 2.921l-.424-.424.424-.424.424.424zm-.063-5.078l.848-.848.849.848-.849.849zm2.612 3.505l.425.424-.425.424-.424-.424z"/><path d="M586.506 433.795l.849.848-.849.849-.848-.849zm.948-1.621l-.424-.425.424-.424.424.424zm-.436-2.254l.425-.424.424.424-.424.424zm4.182-4.22h.5v.5h-.5zm0-1h.5v.5h-.5zm-.6 2c-.6 0-.3-.1-1.1.6l-1.7 1.7.4.4 2.4-2.4v-.3zm-12.2 10.2h2.6v-.5h-2.6v.5zm-561 2.1h560.4v-.5H17.4v.5zm569.215-6.845l.424.424-.424.424-.424-.424zm1.985-9.555h1v.5h-1zm2.1 2.6v-.5h-8.2v.5h4.1z"/><path d="M590.7 422.6h-.5v1.1H583v-1.1h-.5v1.6h8.2z"/><path d="M588.1 422.6H585v.5h3.1zm-3.6 0h-1v.5h1zm7.2 0h-.5v1.5h.5v-1.5zm-12.8 6.6h-.5v3.1h.5v-3.1zm0-3.5h-.5v.5h.5v-.5zm0 8.2h-.5v1h.5v-1zm-.5-5.6h.5v.5h-.5zm.5-1.6h-.5v1h.5v-1zm-.5 6.1h.5v.5h-.5zm0 5.2h2.1v1h.5v-1.5h-2.6v.5zm12.3-12.3h-3.6l1.2 1.2-1.3 1.3.4.4 2.4-2.4h.8c.1-.2.1-.3.1-.5zm-11.8 9.7h-.5v.5h.5v-.5zm-.5 3.1h.5v.5h-.5z"/><path d="M579.4 438.5h.5v.5h-.5zm2.5-15.9h-.5v1.5h.5v-1.5zm2.9 6.9l.4-.4-2.4-2.4h-.5c.1.1.1.3.1.4l2.4 2.4zm-3.4-4.8h.5v.5h-.5zm4.3 3.9l.4-.4-1.3-1.3 1.2-1.2h-3.6v.5h.8l2.5 2.4zm-1.8 1.8l.4-.4-2.5-2.5v-.8h-.5v3.6l1.2-1.2 1.4 1.3zm-2.5-4.7h.5v.5h-.5z"/><path d="M582.653 431.61l-.848-.848.848-.849.849.849zm-3.253-9.01h.5v.5h-.5zm-1 0h.5v.5h-.5z"/><path d="M594.8 347.9v74.2h-.5v-74.2h-.6v74.2h-.5v-15.5h-.5v15.5h-.5v-15.5h-.5v15.5h-13.8v13.8h-15.4v.5h15.4v.5h-15.4v.5h15.4v.5H17.5v-.5h15.4v-.5H17.4v-.5h15.4v-.5H17.4v-13.8H3.6v-15.4h-.5v15.4h-.5v-15.4h-.5v15.4h-.6V348H1v74.1H.5V348H0v91.6h595.3V348h-.5zM.5 422.6H1v.5H.5v-.5zm0 1H1v.5H.5v-.5zm0 4.1H1v1H.5v-1zm0 3.1v-1.5H1v3.1H.5v-1.6zm0 2.6v-.5H1v1H.5v-.5zM1 439H.5v-.5H1v.5zm0-1H.5v-.5H1v.5zm1.1 1h-.6v-2.1h-1v-.5H2c.1.9.1 1.7.1 2.6zm0-3.1H.6v-.5h1.5v.5zm0-1H.5v-.5h1v-7.2h-1v-.5H2v8.2zm0-8.7H.6v-.5h1.5v.5zm0-1.1H.6v-.5h1v-2.1h.5v2.6zm1 13.9h-.5v-2.6h.5v2.6zm0-3.1h-.5v-.5h.5v.5zm0-5.1v4.1h-.5v-8.2h.5v4.1zm0-4.6h-.5v-.5h.5v.5zm0-1.1h-.5v-2.6h.5v2.6zm8.7-2.5h1v.5h-1v-.5zm-1 0h.5v.5h-.5v-.5zm-3.7 0h3.1v.5H7.1v-.5zm-.9 0h.5v.5h-.5v-.5zm-1.6 0h1v.5h-1v-.5zm0 1h8.2v.5H4.6v-.5zm0 1h8.2v.5H4.6v-.5zm2.4 5.8l.4.4-.4.4-.4-.4.4-.4zm0 1.7l.4.4-2.4 2.4h-.4v-.4l2.4-2.4zm-1.6 3.3l2.5-2.4.4.4-1.3 1.3 1.2 1.2H4.6v-.5h.8zm2.9-5.4l-.4.4-.5-.4.4-.4.5.4zm-.5 1.2l.4.4-.4.4-.4-.4.4-.4zm0 3.5l.9-.9.9.9-.9.9-.9-.9zm.5-2.2l.5-.4.4.4-.4.4-.5-.4zm.5-3l-.5-.5.5-.4.4.4-.4.5zm-1-2.6l.9-.9.9.9-.9.9-.9-.9zm1.8 4.3l.4.4-.4.4-.4-.4.4-.4zm0-.9l-.4-.4.4-.4.4.4-.4.4zm.9.9l-.4-.5.4-.4.4.4-.4.5zm1.7 2.6c.7.8.6.5.6 1.1h-.4l-2.4-2.4.4-.4 1.8 1.7zm-1.7-4.3l-.5-.5 2.4-2.4c.2 0 .3 0 .4-.1v.5l-2.3 2.5zm1.5-3.4l-2.5 2.5-.4-.4 1.3-1.3-1.2-1.2h3.6v.5c-.2-.1-.6-.1-.8-.1zm-7.4-.4h3.6L7 426.9l1.3 1.3-.4.4-2.4-2.4h-.9v-.5zm0 1H5l2.4 2.3.1-.1-.6.6-2.3-2.3v-.5zm-1-4.1h.5v.5h-.5v-.5zm0 1h.5v1.5h-.5v-1.5zm0 2.1h.5v.5h-.5v-.5zm0 1h.5v.8l2.4 2.4-.4.4-1.3-1.3-1.2 1.2v-3.5zm2.1 4.1l-.9.9-.9-.9.9-.9.9.9zM4.1 439h-.5v-.5h.5v.5zm0-1.5v.5h-.5v-1.5h.5v1zm0-1.6h-.5v-.5h.5v.5zm0-1h-.5v-3.6l1.2 1.2 1.3-1.3.4.4-2.4 2.4v.9zm1.5 4.1h-1v-.5h1v.5zm1.1 0h-.5v-.5h.5v.5zm3.6 0H7.2v-.5h3.1v.5zm1 0h-.5v-.5h.5v.5zm1.5 0h-1v-.5h1v.5zm0-1H4.6v-.5h8.2v.5zm0-1.1H4.6v-.5h8.2v.5zm-3.5-1l1.2-1.2-1.3-1.3.4-.4 2.4 2.4h.8c0 .2 0 .4.1.5H9.3zm4.5 3.1h-.5v-.5h.5v.5zm0-1h-.5v-1.5h.5v1.5zm0-2.1h-.5v-.5h.5v.5zm0-1h-.5v-.8l-2.4-2.4.4-.4 1.3 1.3 1.2-1.2v3.5zm-2-4.1l.9-.9.9.9-.9.9-.9-.9zm2-.5l-1.2-1.2-1.3 1.3-.4-.4 2.4-2.4v-.8h.5v3.5zm0-4.1h-.5v-.5h.5v.5zm0-1.6v.5h-.5v-1.5h.5v1zm0-1.5h-.5v-.5h.5v.5zm1.1 15.9h-.5v-2.6h.5v2.6zm0-3.1h-.5v-.5h.5v.5zm0-1h-.5v-8.2h.5v8.2zm0-8.7h-.5v-.5h.5v.5zm0-1.1h-.5v-2.6h.5v2.6zm2 13.9h-.5v-.5h.5v.5zm0-1h-.5v-.5h.5v.5zm0-1.1h-1v2.1h-.5v-2.6h1.5v.5zm0-1h-1.5v-.5h1.5v.5zm0-2h-.5v-1h.5v1zm0-3.1v1.5h-.5v-3.1h.5v1.6zm0-2.6v.5h-.5v-1h.5v.5zm0-1h-1v7.2h1v.5h-1.5v-8.2h1.5v.5zm0-1h-1.5v-.5h1.5v.5zm0-1.1h-1.5v-2.6h.5v2.1h1v.5zm0-1h-.5v-.5h.5v.5zm0-1h-.5v-.5h.5v.5zM577.8 439H17.4v-.5h560.4v.5zm13.4-16.4h.5v1.5h-.5v-1.5zm0 2.1h.5v.5h-.5v-.5zm0 1h.5v.5h-.5v-.5zm-2.6-3.1h1v.5h-1v-.5zm-3.6 0h3v.5h-3v-.5zm-1.5 0h1v.5h-1v-.5zm-1 0h.5v1h7.2v-1h.5v1.5h-8.2v-1.5zm0 2.1h8.2v.5h-8.2v-.5zm4.1 7.4l.4.4-.4.4-.4-.4.4-.4zm-.9 0l-.4-.4.4-.4.4.4-.4.4zm.9-2.6l-.4-.4.4-.4.4.4-.4.4zm0-1.7l-.9-.9.9-.9.9.9-.9.9zm-.9 2.5l-.4-.4.4-.4.4.4-.4.4zm-.9.9l-.4-.4.4-.4.4.4-.4.4zm1.3 2.2l-1.3 1.3 1.2 1.2h-3.6v-.5c.2 0 .7 0 .8-.1l2.4-2.4.5.5zm-.4 1.3l.9-.9.9.9-.9.9-.9-.9zm1.7-4.4l-.4-.4.4-.4.4.4-.4.4zm.4 1.4l-.4.4-.4-.4.4-.4.4.4zm.5-1.3l.4.4-.4.4-.4-.4.4-.4zm0-.9l-.4-.4 1.7-1.7c.8-.7.5-.6 1.1-.6v.4l-2.4 2.3zm1.5-3.3l-2.4 2.4-.4-.4 1.3-1.3-1.2-1.2h3.6v.5h-.9zm-7.3-.5h3.6l-1.2 1.2 1.3 1.3-.4.4-2.4-2.4h-.8c-.1-.2-.1-.3-.1-.5zm.4 1l2.4 2.4-.4.4-2.4-2.4c0-.2 0-.3-.1-.4h.5zm-1.5-4.1h.5v1.5h-.5v-1.5zm0 2.1h.5v.5h-.5v-.5zm0 1h.5v.5h-.5v-.5zm0 1h.5v.8l2.5 2.5-.4.4-1.3-1.3-1.2 1.2c-.1-.9-.1-3-.1-3.6zm2.1 4.1l-.9.9-.9-.9.9-.9.9.9zm-4.1-8.2h.5v.5h-.5v-.5zm-1 0h.5v.5h-.5v-.5zm0 3.1h.5v.5h-.5v-.5zm0 1h.5v1h-.5v-1zm0 1.6h.5v.5h-.5v-.5zm0 .9h.5v3.1h-.5v-3.1zm0 3.6h.5v.5h-.5v-.5zm0 1.1h.5v1h-.5v-1zm0 1.5h.5v.5h-.5v-.5zm.5 3.6h-.5v-.5h.5v.5zm1 0h-.5v-.5h.5v.5zm1 0h-.5v-1h-2.1v-.5h2.6v1.5zm0-2.1h-2.6v-.5h2.6v.5zm0-1h-1.5v-.5h1.5v.5zm-1.5-1v-8.2h.5v8.2h-.5zm1.5 0h-.5v-8.2h.5v8.2zm0-8.7h-1.5v-.5h1.5v.5zm0-1h-2.6v-.5h2.6v.5zm0-1h-2.6v-.5h2.1v-1h.5v1.5zm1 14.8h-.5v-1.5h.5v1.5zm0-2.1h-.5v-.5h.5v.5zm0-1h-.5v-.5h.5v.5zm0-1.8v.8h-.5v-3.6l1.2 1.2 1.3-1.3.4.4-2.4 2.5zm.5.3l2.4-2.4.4.4-2.3 2.3h-.5v-.3zm2.1 4.6h-1v-.5h1v.5zm3.6 0H585v-.5h3.1v.5zm1.5 0h-1v-.5h1v.5zm1.1 0h-.5v-1H583v1h-.5v-1.5h8.2v1.5zm0-2.1h-8.2v-.5h8.2v.5zm0-1h-3.6l1.2-1.2-1.3-1.3.4-.4 2.4 2.4h.8c.1.2.1.4.1.5zm-.4-1l-2.4-2.4.4-.4 2.4 2.4c0 .1 0 .3.1.4h-.5zm1.4 4.1h-.5v-1.5h.5v1.5zm0-2.1h-.5v-.5h.5v.5zm0-1h-.5v-.5h.5v.5zm0-1h-.5v-.8l-2.4-2.4.4-.4 1.3 1.3 1.2-1.2v3.5zm-2.1-4.1l.9-.9.9.9-.9.9-.9-.9zm2.1-.5l-1.2-1.2-1.3 1.3-.4-.4 2.4-2.4v-.8h.5v3.5zm1.5-7.7h.5v.5h-.5v-.5zm-1 3.1h1.5v.5h-1.5v-.5zm1.5 1v8.2h-.5v-8.2h.5zm-1.5 4.1v-4.1h.5v8.2h-.5v-4.1zm0 4.6h1.5v.5h-1.5v-.5zm1.5 3.6h-.5v-.5h.5v.5zm1.1 0h-.5v-.5h.5v.5zm0-1h-2.1v1h-.5v-1.5h2.6v.5zm0-1.1h-2.6v-.5h2.6v.5zm0-1h-.5v-.5h.5v.5zm0-1h-.5v-1h.5v1zm0-1.5h-.5v-.5h.5v.5zm0-1.1h-.5v-3.1h.5v3.1zm0-3.5h-.5v-.5h.5v.5zm0-1h-.5v-1h.5v1zm0-1.6h-.5v-.5h.5v.5zm0-1h-2.6v-.5h2.6v.5zm0-1h-2.6v-1.5h.5v1h2.1v.5zm0-1.1h-.5v-.5h.5v.5z"/></symbol><symbol viewBox="0 0 112.1 83.4" id="restoran"><path d="M57.3 77.8c-4-.5-13.2-2.4-15.7-5.5-1.2-1.5-2.3-3.1-3.4-4.6-1.2-1.8-2.4-3.6-3.7-5.4l-1-1.5h7.4l.3.2c2.4 2.2 4.9 4.3 7.5 6.3.8.6 2.7.9 3.7 1 2.1.2 4.2.2 6.2.1 2.4-.1 4.9-.4 7.2-1.1.3-.1.6-.3.8-.6l3.9-5.9h6.3L71 80.5l2.4 2.2h3.7c.1 0 .1 0 .1-.1v-.2l-3.3-2.8 5.6-19.1h28.4c2 0 3.6-1.6 3.6-3.6V52c0-2-1.6-3.6-3.6-3.6h-10l-.1-.9c-.8-10.4-5.2-20-12.5-27.3-5.6-5.5-12.4-9.3-20-11l-.6-.1-.1-.7C64 3.9 60.3.7 56 .7c-4.4 0-8.1 3.3-8.6 7.6l-.1.7-.6.1c-7.6 1.7-14.4 5.6-20 11-7.3 7.4-11.7 17-12.5 27.4l-.1.9h-10C2.1 48.4.5 50 .5 52v4.9c0 2 1.6 3.6 3.6 3.6h26.2l.3.4 1.8 2.7c.9 1.3 1.8 2.7 2.7 4 .8 1.2 1.7 2.4 2.5 3.7.6.9 1.2 1.7 1.9 2.5 2.9 3.5 11.1 5.4 15.4 6.1h.3l2.9 2.5H62.5c.1 0 .1 0 .1-.1v-.2l-1.2-1.2c-.9-.8-1.8-1.7-2.7-2.5-.3-.3-.7-.6-1-.8-.1.4-.2.3-.4.2zM56 11.1c20.5 0 37.3 15.7 39.1 36.4l.1 1H16.8l.1-1C18.6 26.7 35.5 11.1 56 11.1zm0-7.5c2.3 0 4.5 1.4 5.4 3.5l.7 1.5-1.6-.2c-1.5-.2-3-.2-4.5-.2s-3 .1-4.5.2l-1.7.2.7-1.5c1-2.1 3.1-3.5 5.5-3.5zm8.2 61.2c-1.4.3-2.9.5-4.3.7-1.9.2-3.8.2-5.7.2-1.1 0-2.7-.1-3.7-.5h-.1l-.1-.1c-1.1-.8-2.1-1.7-3.2-2.5L45 60.9h22.1l-2.6 3.9h-.3zm44.5-6.8H3.2v-6.6h105.5V58z"/></symbol><symbol viewBox="0 0 22.1 21.7" id="search"><path d="M9 17.9c-2.4 0-4.7-.9-6.4-2.6-3.5-3.5-3.5-9.2 0-12.7C4.3.9 6.6 0 9 0s4.7.9 6.4 2.6c3.5 3.5 3.5 9.2 0 12.7-1.7 1.7-4 2.6-6.4 2.6zM9 1.4c-2 0-3.9.8-5.3 2.2-2.9 2.9-2.9 7.7 0 10.6C5.1 15.6 7 16.4 9 16.4s3.9-.8 5.3-2.2c2.9-2.9 2.9-7.7 0-10.6C12.9 2.2 11 1.4 9 1.4z"/><path d="M21.2 21.7c-.2 0-.4-.1-.5-.2l-6.2-6.2c-.3-.3-.3-.8 0-1.1.3-.3.8-.3 1.1 0l6.2 6.2c.3.3.3.8 0 1.1-.2.2-.4.2-.6.2z"/></symbol><symbol viewBox="0 0 130 72.9" id="spa"><path d="M49 70.4c1.6 0 3.1-.1 4.6-.2h.4c-5.1-2.5-9.7-5.7-13.7-9.5-5.1-4.8-9.3-10.4-12.4-16.6-1.9-.5-3.9-.8-5.9-1.1-2.1-.3-4.3-.4-6.5-.4-2.3 0-4.5.1-6.7.4-1.7.2-3.4.5-5.1.9 4 7.8 10.3 14.3 17.9 18.9 8 4.8 17.5 7.6 27.4 7.6zm14.6-6.3c.3.4.3.5.4.6.3.4.5.7.7.9l.2.2.2.3.3-.3c.2-.2.3-.4.6-.7.2-.2.3-.5.5-.7 1-1.4 1.9-2.8 2.7-4.3.9-1.5 1.6-3.1 2.3-4.6 1.6-3.7 2.7-7.5 3.3-11.4.7-4 .9-8 .6-12V32c-.1-.9-.1-1.8-.2-2.6 0-.4-.1-.8-.1-1.2-.1-.4-.1-.8-.2-1.2-.7-4.4-2-8.7-3.8-12.8-1.6-3.6-3.6-7-6-10.2-2.4 3.1-4.5 6.4-6 9.9-1.9 4.1-3.1 8.5-3.8 12.9-.1.8-.2 1.5-.3 2.3-.1.9-.2 1.8-.2 2.6v.1c-.2 4.1 0 8.2.8 12.2.7 4 1.9 7.9 3.6 11.6.7 1.5 1.4 2.9 2.2 4.4.4 1.4 1.3 2.8 2.2 4.1zm-1.7 2l-.4-.6c-1-1.4-1.8-2.8-2.6-4.2-.8-1.5-1.6-3-2.3-4.6-1.7-3.9-3-8-3.7-12.2-.8-4.2-1-8.5-.8-12.8v-.1c.1-.9.1-1.8.2-2.7l.3-2.4c.7-4.7 2.1-9.3 4-13.6C58.5 8.7 61 4.7 64 1.2L65 0l1 1.2c3 3.7 5.4 7.8 7.3 12 1.9 4.3 3.3 8.8 4 13.4.1.4.1.8.2 1.2.1.4.1.8.1 1.2.1.9.2 1.9.3 2.8v.1c.3 4.2.1 8.4-.6 12.6-.7 4.1-1.9 8.1-3.5 12-.7 1.7-1.5 3.3-2.4 4.9-.9 1.5-1.8 3-2.8 4.5-.2.3-.4.6-.6.8-.2.2-.4.5-.6.8-.3.4-.5.7-.9 1.1v.1c-.1.1-.2.3-.3.4l-.9 1.1-1-1.1c-.1-.1-.3-.3-.4-.5 0 0 0-.1-.1-.2-.3-.3-.5-.6-.7-.9l-.2-.2c-.5-.6-.8-.9-1-1.2zM33.6 41.5c.2.3.3.7.6 1.1.2.4.4.8.6 1.1 2.8 5 6.5 9.5 10.9 13.4 3.2 2.8 6.8 5.3 10.6 7.2-.2-.3-.3-.5-.4-.8-.9-1.5-1.7-3.1-2.4-4.7-.4-.8-.7-1.6-1-2.3-.3-.8-.6-1.5-.9-2.3l-.6-1.8c-.2-.6-.4-1.2-.5-1.8-1.1-3.8-1.7-7.6-2-11.5-.3-3.7-.2-7.4.2-11.1-2.9-3.1-6.2-5.8-9.8-8.1-3.2-2.1-6.8-3.9-10.5-5.3-.4 3.9-.3 7.7.3 11.5.7 4.5 2 8.8 3.8 12.9.3.6.5 1.1.8 1.7.3.7 0 .2.3.8zm-1.7 2.3c-.2-.3-.4-.7-.6-1.2-.3-.5-.3-.6-.3-.6s0 .1 0 0c-.3-.6-.6-1.2-.8-1.7-1.9-4.3-3.3-8.9-4-13.6-.7-4.5-.8-9.2-.1-13.8l.2-1.5 1.5.5c4.5 1.5 8.7 3.6 12.6 6.1 4 2.6 7.5 5.6 10.7 9l.4.4-.1.6c-.4 3.7-.5 7.4-.2 11.2.3 3.7.9 7.4 2 11 .2.6.3 1.1.5 1.7s.4 1.1.6 1.7c.3.7.5 1.5.8 2.2.3.8.6 1.5.9 2.2.7 1.5 1.5 3 2.3 4.5.8 1.4 1.7 2.9 2.7 4.3l2.5 3.5-4-1.6c-5.6-2.3-10.8-5.5-15.2-9.4-4.6-4-8.4-8.8-11.4-14-.5-.8-.8-1.1-1-1.5zm.7 1.1zm41.3 19.3c3.8-2 7.3-4.4 10.4-7.2 4.3-3.8 8-8.4 10.9-13.3.2-.3.4-.7.6-1.1.3-.5.4-.8.6-1.2.2-.4.4-.7.6-1.1.2-.3.3-.7.5-1.1 1.8-4.1 3.1-8.4 3.8-12.9.6-3.8.7-7.7.3-11.5-3.8 1.4-7.3 3.2-10.6 5.3-3.6 2.3-6.9 5.1-9.8 8.2.5 3.6.6 7.3.3 10.9-.3 3.8-.9 7.6-1.9 11.3-.3 1.2-.7 2.3-1.1 3.5-.2.7-.5 1.4-.8 2.2-.3.7-.6 1.4-.9 2.2-.8 1.7-1.6 3.3-2.5 4.9-.1.3-.2.6-.4.9zM86 58.9c-4.4 3.9-9.5 7.1-15.1 9.4l-4 1.7 2.5-3.6c1-1.4 1.9-2.9 2.8-4.4s1.7-3.1 2.4-4.7c.3-.7.6-1.3.9-2.1.3-.7.5-1.4.8-2.1.4-1.1.7-2.2 1.1-3.3 1-3.5 1.6-7.1 1.8-10.8.2-3.7.1-7.4-.4-11l-.1-.6.4-.4c3.1-3.4 6.7-6.5 10.7-9 3.9-2.5 8.1-4.6 12.7-6.1l1.5-.5.2 1.5c.6 4.6.5 9.3-.1 13.8-.7 4.7-2.1 9.2-4 13.6-.2.4-.3.7-.5 1.2l-.6 1.2c-.2.5-.5.9-.6 1.2-.2.4-.4.8-.7 1.2-3.3 5.1-7.1 9.8-11.7 13.8zM102.1 44c-3.1 6.2-7.3 11.8-12.4 16.6-4.1 3.8-8.7 7-13.7 9.5h.4c1.5.1 3 .2 4.6.2 9.9 0 19.4-2.8 27.4-7.7 7.6-4.6 13.9-11.1 17.9-18.9-1.7-.4-3.4-.7-5.1-.9-2.2-.3-4.4-.4-6.7-.4-2.2 0-4.4.1-6.5.4-2 .4-4 .7-5.9 1.2zM87.9 58.7c5-4.7 9.2-10.3 12.2-16.4l.3-.5.6-.1c2.2-.5 4.5-1 6.8-1.3 2.2-.3 4.5-.4 6.8-.4s4.7.1 7 .4 4.6.7 6.9 1.3l1.5.4-.7 1.4c-4.2 8.9-11.1 16.2-19.6 21.4-8.4 5.1-18.4 8-28.8 8-1.6 0-3.2-.1-4.9-.2-1.7-.2-3.3-.4-4.9-.7l-4.3-.8 4.1-1.6c6.4-2.6 12.1-6.3 17-10.9zm-34 14c-1.6.2-3.3.2-4.9.2-10.4 0-20.3-2.9-28.7-8C11.8 59.8 4.9 52.4.7 43.5L0 42.1l1.5-.4c2.3-.6 4.6-1 6.9-1.3 2.4-.3 4.7-.4 7-.4s4.6.1 6.8.4c2.3.3 4.6.7 6.8 1.3l.6.1.3.5c3 6.1 7.1 11.7 12.2 16.4 4.9 4.6 10.6 8.3 17 10.8l4.1 1.6-4.3.8c-1.7.4-3.4.6-5 .8z"/></symbol></svg>